<?xml version="1.0" encoding="UTF-8"?>
<!DOCTYPE svg PUBLIC "-//W3C//DTD SVG 1.1//EN" "http://www.w3.org/Graphics/SVG/1.1/DTD/svg11.dtd">
<svg xmlns="http://www.w3.org/2000/svg" version="1.1" width="327px" height="301px" style="shape-rendering:geometricPrecision; text-rendering:geometricPrecision; image-rendering:optimizeQuality; fill-rule:evenodd; clip-rule:evenodd" xmlns:xlink="http://www.w3.org/1999/xlink">
<g><path style="opacity:1" fill="none" d="M -0.5,-0.5 C 108.5,-0.5 217.5,-0.5 326.5,-0.5C 326.5,99.8333 326.5,200.167 326.5,300.5C 217.5,300.5 108.5,300.5 -0.5,300.5C -0.5,200.167 -0.5,99.8333 -0.5,-0.5 Z"/></g>
<g><path style="opacity:1" fill="#0c0c0c" d="M 235.5,227.5 C 240.316,228.326 245.316,228.826 250.5,229C 251.542,230.918 252.708,232.751 254,234.5C 256.144,233.156 257.977,233.49 259.5,235.5C 259.672,236.492 259.338,237.158 258.5,237.5C 257.167,237.5 255.833,237.5 254.5,237.5C 252.549,236.284 251.049,234.618 250,232.5C 249.601,232.728 249.435,233.062 249.5,233.5C 248.833,233.5 248.167,233.5 247.5,233.5C 235.88,231.521 223.88,230.854 211.5,231.5C 213.363,229.838 215.363,228.171 217.5,226.5C 219.435,227.709 221.435,227.542 223.5,226C 245.475,207.689 261.642,185.189 272,158.5C 285.253,121.31 290.586,82.9762 288,43.5C 286.701,42.0203 285.034,41.3536 283,41.5C 253.673,51.1677 224.506,50.6677 195.5,40C 183.309,33.4772 173.309,24.4772 165.5,13C 163.432,12.3131 161.432,12.4798 159.5,13.5C 148.447,32.872 131.78,44.0387 109.5,47C 86.503,51.1853 64.003,49.352 42,41.5C 39.9658,41.3536 38.2991,42.0203 37,43.5C 32.0803,92.3229 40.4136,138.656 62,182.5C 71.9283,199.434 84.4283,214.268 99.5,227C 101.387,227.78 103.054,227.613 104.5,226.5C 104.492,228.05 104.825,229.717 105.5,231.5C 100.167,231.5 94.8333,231.5 89.5,231.5C 89.0825,230.778 88.4158,230.278 87.5,230C 89.7416,228.993 89.4082,228.159 86.5,227.5C 57.0986,199.042 38.9319,164.376 32,123.5C 27.8083,96.3233 26.475,68.99 28,41.5C 30.7742,35.8896 35.2742,32.8896 41.5,32.5C 51.3167,35.6208 61.3167,38.1208 71.5,40C 93.6986,42.8307 114.699,39.164 134.5,29C 138.299,26.2031 141.799,23.0364 145,19.5C 147.798,14.7372 150.964,10.2372 154.5,6C 159.411,4.50763 164.411,4.1743 169.5,5C 175.167,11.3333 180.833,17.6667 186.5,24C 203.091,35.6089 221.591,40.7755 242,39.5C 249.535,39.4816 257.035,38.9816 264.5,38C 270.712,35.6506 277.045,33.8172 283.5,32.5C 289.359,32.856 293.859,35.5227 297,40.5C 300.001,83.5174 294.001,125.184 279,165.5C 268.674,189.172 254.174,209.839 235.5,227.5 Z"/></g>
<g><path style="opacity:1" fill="#e3e4e4" d="M 217.5,226.5 C 218.5,226.167 219.167,225.5 219.5,224.5C 237.465,211.198 251.465,194.531 261.5,174.5C 275.587,145.488 283.42,114.821 285,82.5C 285.5,69.8377 285.667,57.1711 285.5,44.5C 278.744,45.4712 272.077,46.9712 265.5,49C 234.994,55.4598 206.661,50.4598 180.5,34C 174.207,27.8772 168.207,21.7105 162.5,15.5C 152.423,31.0579 138.423,41.5579 120.5,47C 98.1745,54.0899 75.8411,54.2566 53.5,47.5C 52.8333,47.5 52.1667,47.5 51.5,47.5C 47.8156,45.3296 43.8156,44.3296 39.5,44.5C 36.3194,84.3315 41.4861,122.998 55,160.5C 64.9886,187.519 81.4886,209.519 104.5,226.5C 103.054,227.613 101.387,227.78 99.5,227C 84.4283,214.268 71.9283,199.434 62,182.5C 40.4136,138.656 32.0803,92.3229 37,43.5C 38.2991,42.0203 39.9658,41.3536 42,41.5C 64.003,49.352 86.503,51.1853 109.5,47C 131.78,44.0387 148.447,32.872 159.5,13.5C 161.432,12.4798 163.432,12.3131 165.5,13C 173.309,24.4772 183.309,33.4772 195.5,40C 224.506,50.6677 253.673,51.1677 283,41.5C 285.034,41.3536 286.701,42.0203 288,43.5C 290.586,82.9762 285.253,121.31 272,158.5C 261.642,185.189 245.475,207.689 223.5,226C 221.435,227.542 219.435,227.709 217.5,226.5 Z"/></g>
<g><path style="opacity:1" fill="#030202" d="M 261.5,174.5 C 260.233,175.087 259.233,175.087 258.5,174.5C 262.689,166.931 265.689,158.931 267.5,150.5C 268.297,146.777 269.297,143.11 270.5,139.5C 271.043,139.44 271.376,139.107 271.5,138.5C 235.506,137.5 199.506,137.167 163.5,137.5C 163.667,99.1652 163.5,60.8319 163,22.5C 161.893,21.2881 161.393,21.6214 161.5,23.5C 157.519,30.4795 152.186,36.1462 145.5,40.5C 140.923,43.6205 135.923,45.9538 130.5,47.5C 127.482,47.3354 124.482,47.502 121.5,48C 118.508,50.1101 115.175,51.4434 111.5,52C 95.2107,54.8009 78.8774,55.1343 62.5,53C 60.6711,52.7265 59.1711,51.8932 58,50.5C 57.6667,50.8333 57.3333,51.1667 57,51.5C 55.6125,50.2642 54.4458,48.9308 53.5,47.5C 75.8411,54.2566 98.1745,54.0899 120.5,47C 138.423,41.5579 152.423,31.0579 162.5,15.5C 168.207,21.7105 174.207,27.8772 180.5,34C 206.661,50.4598 234.994,55.4598 265.5,49C 272.077,46.9712 278.744,45.4712 285.5,44.5C 285.667,57.1711 285.5,69.8377 285,82.5C 283.42,114.821 275.587,145.488 261.5,174.5 Z"/></g>
<g><path style="opacity:1" fill="#fb9d9b" d="M 50.5,127.5 C 50.2319,121.424 50.2319,115.424 50.5,109.5C 50,107.5 49.5,105.5 49,103.5C 48.6667,103.833 48.3333,104.167 48,104.5C 46.4486,94.4054 45.6153,84.2387 45.5,74C 45.3475,66.3398 45.8475,58.8398 47,51.5C 49.7917,53.4066 52.9584,54.5732 56.5,55C 82.4553,59.2429 108.122,57.9096 133.5,51C 137.417,47.2397 141.417,43.7397 145.5,40.5C 146.15,40.8039 146.817,41.1373 147.5,41.5C 150.305,38.4074 153.472,35.7408 157,33.5C 158.316,32.0257 159.316,30.359 160,28.5C 160.333,28.8333 160.667,29.1667 161,29.5C 161.833,64.838 161.667,100.171 160.5,135.5C 125.542,136.66 90.5417,136.826 55.5,136C 53.4999,133.205 51.8333,130.371 50.5,127.5 Z"/></g>
<g><path style="opacity:1" fill="#281110" d="M 51.5,47.5 C 52.1667,47.5 52.8333,47.5 53.5,47.5C 54.4458,48.9308 55.6125,50.2642 57,51.5C 57.3333,51.1667 57.6667,50.8333 58,50.5C 59.1711,51.8932 60.6711,52.7265 62.5,53C 78.8774,55.1343 95.2107,54.8009 111.5,52C 115.175,51.4434 118.508,50.1101 121.5,48C 124.482,47.502 127.482,47.3354 130.5,47.5C 102.188,58.7697 73.5218,59.4363 44.5,49.5C 45.172,48.7326 46.0053,48.0659 47,47.5C 48.6155,48.8009 50.1155,48.8009 51.5,47.5 Z"/></g>
<g><path style="opacity:1" fill="#dc9c9b" d="M 145.5,40.5 C 141.417,43.7397 137.417,47.2397 133.5,51C 108.122,57.9096 82.4553,59.2429 56.5,55C 52.9584,54.5732 49.7917,53.4066 47,51.5C 45.8475,58.8398 45.3475,66.3398 45.5,74C 45.6153,84.2387 46.4486,94.4054 48,104.5C 48.3333,104.167 48.6667,103.833 49,103.5C 49.5,105.5 50,107.5 50.5,109.5C 50.2319,115.424 50.2319,121.424 50.5,127.5C 50.1667,127.5 49.8333,127.5 49.5,127.5C 44.3706,101.566 42.704,75.566 44.5,49.5C 73.5218,59.4363 102.188,58.7697 130.5,47.5C 135.923,45.9538 140.923,43.6205 145.5,40.5 Z"/></g>
<g><path style="opacity:1" fill="#f1f1f1" d="M 217.5,57.5 C 226.487,56.665 228.82,60.165 224.5,68C 215.889,68.971 213.556,65.471 217.5,57.5 Z"/></g>
<g><path style="opacity:1" fill="#e3a1a2" d="M 116.5,70.5 C 114.5,69.8333 112.5,69.1667 110.5,68.5C 98.5572,66.0381 88.8905,69.7048 81.5,79.5C 81.3398,77.8008 81.5065,76.1341 82,74.5C 82.3333,74.8333 82.6667,75.1667 83,75.5C 86.2886,70.2077 90.9553,66.8743 97,65.5C 102.796,66.2688 108.629,66.7688 114.5,67C 115.823,67.8159 116.489,68.9826 116.5,70.5 Z"/></g>
<g><path style="opacity:1" fill="#f6f6f6" d="M 231.5,88.5 C 230.244,85.2326 229.077,81.8993 228,78.5C 227.678,82.4924 228.512,86.159 230.5,89.5C 231.833,94.8333 233.167,100.167 234.5,105.5C 232.167,105.5 229.833,105.5 227.5,105.5C 227.666,112.841 227.5,120.174 227,127.5C 225.384,128.801 223.884,128.801 222.5,127.5C 222.831,120.137 222.497,112.803 221.5,105.5C 220.893,105.624 220.56,105.957 220.5,106.5C 220.666,113.508 220.5,120.508 220,127.5C 218.644,128.38 217.144,128.714 215.5,128.5C 214.642,120.868 214.309,113.201 214.5,105.5C 212.076,105.808 209.743,105.474 207.5,104.5C 208.816,100.571 209.816,96.571 210.5,92.5C 212.774,88.5053 213.94,84.1719 214,79.5C 212.593,83.8881 211.093,88.2214 209.5,92.5C 208.952,95.0838 207.285,96.0838 204.5,95.5C 205.573,87.5442 207.74,79.8775 211,72.5C 214.098,70.9527 217.431,70.2861 221,70.5C 225.593,69.6845 229.26,71.0178 232,74.5C 234.626,81.3401 236.46,88.3401 237.5,95.5C 233.446,95.1137 231.446,92.7804 231.5,88.5 Z"/></g>
<g><path style="opacity:1" fill="#150d0d" d="M 110.5,68.5 C 112.5,69.1667 114.5,69.8333 116.5,70.5C 118.349,71.593 120.016,72.9263 121.5,74.5C 121.5,75.5 121.5,76.5 121.5,77.5C 121.679,81.2094 123.346,83.8761 126.5,85.5C 127.752,87.0009 128.752,88.6675 129.5,90.5C 129.5,92.1667 129.5,93.8333 129.5,95.5C 128.448,95.3505 127.448,95.5172 126.5,96C 126.79,97.478 126.79,98.978 126.5,100.5C 125.624,100.369 124.957,100.702 124.5,101.5C 122.98,103.662 121.98,105.995 121.5,108.5C 118.465,111.87 115.132,114.87 111.5,117.5C 111.167,117.5 110.833,117.5 110.5,117.5C 110.158,116.662 109.492,116.328 108.5,116.5C 105.854,114.22 102.854,113.887 99.5,115.5C 97.302,114.933 94.9686,114.933 92.5,115.5C 92.1667,115.5 91.8333,115.5 91.5,115.5C 91.6751,112.671 90.3418,111.004 87.5,110.5C 88.7287,109.719 90.062,109.219 91.5,109C 90.8333,108.667 90.1667,108.333 89.5,108C 90.4158,107.722 91.0825,107.222 91.5,106.5C 95.4816,106.618 97.8149,104.618 98.5,100.5C 97.5986,94.5989 94.2653,92.4322 88.5,94C 87.035,95.7742 85.7017,97.6075 84.5,99.5C 83.8333,99.8333 83.1667,100.167 82.5,100.5C 79.8572,97.6604 79.0239,94.327 80,90.5C 82.1368,89.3515 84.3035,89.3515 86.5,90.5C 92.3256,94.1305 96.3256,92.6305 98.5,86C 96.7309,80.1545 93.0642,78.3212 87.5,80.5C 86.8333,80.5 86.5,80.1667 86.5,79.5C 86.5,78.8333 86.5,78.1667 86.5,77.5C 89.196,75.3935 92.0293,73.3935 95,71.5C 96.4064,72.4138 97.9064,73.0805 99.5,73.5C 99.9382,73.4346 100.272,73.6012 100.5,74C 95.5532,77.4833 95.5532,81.15 100.5,85C 105.99,86.5883 109.324,84.5883 110.5,79C 109.25,73.0161 105.583,70.8494 99.5,72.5C 99.5,71.8333 99.8333,71.5 100.5,71.5C 102.833,71.5 105.167,71.5 107.5,71.5C 108.5,70.5 109.5,69.5 110.5,68.5 Z"/></g>
<g><path style="opacity:1" fill="#fae8e7" d="M 86.5,77.5 C 86.5,78.1667 86.5,78.8333 86.5,79.5C 85.2641,81.6107 83.7641,83.6107 82,85.5C 81.6889,81.7866 83.1889,79.12 86.5,77.5 Z"/></g>
<g><path style="opacity:1" fill="#f9f7f5" d="M 99.5,73.5 C 99.5,73.1667 99.5,72.8333 99.5,72.5C 105.583,70.8494 109.25,73.0161 110.5,79C 109.324,84.5883 105.99,86.5883 100.5,85C 95.5532,81.15 95.5532,77.4833 100.5,74C 100.272,73.6012 99.9382,73.4346 99.5,73.5 Z"/></g>
<g><path style="opacity:1" fill="#fff0ef" d="M 121.5,77.5 C 124.654,79.1239 126.321,81.7906 126.5,85.5C 123.346,83.8761 121.679,81.2094 121.5,77.5 Z"/></g>
<g><path style="opacity:1" fill="#361314" d="M 121.5,74.5 C 126.41,78.9857 129.077,84.319 129.5,90.5C 128.752,88.6675 127.752,87.0009 126.5,85.5C 126.321,81.7906 124.654,79.1239 121.5,77.5C 121.5,76.5 121.5,75.5 121.5,74.5 Z"/></g>
<g><path style="opacity:1" fill="#616161" d="M 231.5,88.5 C 230.833,88.5 230.5,88.8333 230.5,89.5C 228.512,86.159 227.678,82.4924 228,78.5C 229.077,81.8993 230.244,85.2326 231.5,88.5 Z"/></g>
<g><path style="opacity:1" fill="#faf9f6" d="M 112.5,79.5 C 115.247,79.1866 117.914,79.52 120.5,80.5C 121.373,82.4134 122.373,84.2467 123.5,86C 121.657,91.9231 117.824,93.7565 112,91.5C 108.831,87.4529 108.997,83.4529 112.5,79.5 Z"/></g>
<g><path style="opacity:1" fill="#261414" d="M 110.5,68.5 C 109.5,69.5 108.5,70.5 107.5,71.5C 107.516,69.5159 106.516,68.5159 104.5,68.5C 102.347,68.5613 101.014,69.5613 100.5,71.5C 99.8333,71.5 99.5,71.8333 99.5,72.5C 99.5,72.8333 99.5,73.1667 99.5,73.5C 97.9064,73.0805 96.4064,72.4138 95,71.5C 92.0293,73.3935 89.196,75.3935 86.5,77.5C 83.1889,79.12 81.6889,81.7866 82,85.5C 83.7641,83.6107 85.2641,81.6107 86.5,79.5C 86.5,80.1667 86.8333,80.5 87.5,80.5C 86.5133,82.4734 85.5133,84.4734 84.5,86.5C 85.6302,87.6223 86.2969,88.9557 86.5,90.5C 84.3035,89.3515 82.1368,89.3515 80,90.5C 79.0239,94.327 79.8572,97.6604 82.5,100.5C 83.1667,100.167 83.8333,99.8333 84.5,99.5C 85.2037,103.537 87.537,105.87 91.5,106.5C 91.0825,107.222 90.4158,107.722 89.5,108C 90.1667,108.333 90.8333,108.667 91.5,109C 90.062,109.219 88.7287,109.719 87.5,110.5C 90.3418,111.004 91.6751,112.671 91.5,115.5C 89.9991,114.248 88.3325,113.248 86.5,112.5C 77.8897,102.621 76.223,91.621 81.5,79.5C 88.8905,69.7048 98.5572,66.0381 110.5,68.5 Z"/></g>
<g><path style="opacity:1" fill="#fef0ef" d="M 107.5,71.5 C 105.167,71.5 102.833,71.5 100.5,71.5C 101.014,69.5613 102.347,68.5613 104.5,68.5C 106.516,68.5159 107.516,69.5159 107.5,71.5 Z"/></g>
<g><path style="opacity:1" fill="#f9f8f7" d="M 86.5,90.5 C 86.2969,88.9557 85.6302,87.6223 84.5,86.5C 85.5133,84.4734 86.5133,82.4734 87.5,80.5C 93.0642,78.3212 96.7309,80.1545 98.5,86C 96.3256,92.6305 92.3256,94.1305 86.5,90.5 Z"/></g>
<g><path style="opacity:1" fill="#444444" d="M 210.5,92.5 C 210.167,92.5 209.833,92.5 209.5,92.5C 211.093,88.2214 212.593,83.8881 214,79.5C 213.94,84.1719 212.774,88.5053 210.5,92.5 Z"/></g>
<g><path style="opacity:1" fill="#faf7f7" d="M 91.5,106.5 C 87.537,105.87 85.2037,103.537 84.5,99.5C 85.7017,97.6075 87.035,95.7742 88.5,94C 94.2653,92.4322 97.5986,94.5989 98.5,100.5C 97.8149,104.618 95.4816,106.618 91.5,106.5 Z"/></g>
<g><path style="opacity:1" fill="#feefee" d="M 126.5,100.5 C 126.306,104.248 124.639,106.915 121.5,108.5C 121.98,105.995 122.98,103.662 124.5,101.5C 124.957,100.702 125.624,100.369 126.5,100.5 Z"/></g>
<g><path style="opacity:1" fill="#f8e6e4" d="M 82.5,100.5 C 84.7396,102.93 85.7396,105.597 85.5,108.5C 83.4284,106.65 82.0951,104.317 81.5,101.5C 81.6236,100.893 81.9569,100.56 82.5,100.5 Z"/></g>
<g><path style="opacity:1" fill="#fbf8f9" d="M 113.5,93.5 C 118.781,92.6069 122.114,94.7736 123.5,100C 122.373,101.753 121.373,103.587 120.5,105.5C 113.259,108.4 109.759,106.067 110,98.5C 110.997,96.6769 112.164,95.0103 113.5,93.5 Z"/></g>
<g><path style="opacity:1" fill="#faf7f5" d="M 100.5,100.5 C 102.924,100.192 105.257,100.526 107.5,101.5C 109.027,103.193 110.36,105.027 111.5,107C 110.167,109 108.833,111 107.5,113C 101.721,114.889 98.0541,112.889 96.5,107C 97.9281,104.868 99.2614,102.701 100.5,100.5 Z"/></g>
<g><path style="opacity:1" fill="#808080" d="M 220.5,106.5 C 220.56,105.957 220.893,105.624 221.5,105.5C 222.497,112.803 222.831,120.137 222.5,127.5C 221.833,120.5 221.167,113.5 220.5,106.5 Z"/></g>
<g><path style="opacity:1" fill="#311314" d="M 129.5,95.5 C 129.244,98.5979 128.578,101.598 127.5,104.5C 123.987,111.008 118.653,115.341 111.5,117.5C 115.132,114.87 118.465,111.87 121.5,108.5C 124.639,106.915 126.306,104.248 126.5,100.5C 126.79,98.978 126.79,97.478 126.5,96C 127.448,95.5172 128.448,95.3505 129.5,95.5 Z"/></g>
<g><path style="opacity:1" fill="#e29fa0" d="M 127.5,104.5 C 127.5,106.833 127.5,109.167 127.5,111.5C 126.167,111.5 124.833,111.5 123.5,111.5C 123.703,113.39 123.037,114.89 121.5,116C 111.535,121.202 101.201,121.869 90.5,118C 87.4513,116.871 86.118,115.038 86.5,112.5C 88.3325,113.248 89.9991,114.248 91.5,115.5C 91.8333,115.5 92.1667,115.5 92.5,115.5C 93.842,116.793 95.5087,117.626 97.5,118C 101.92,118.768 106.253,118.602 110.5,117.5C 110.833,117.5 111.167,117.5 111.5,117.5C 118.653,115.341 123.987,111.008 127.5,104.5 Z"/></g>
<g><path style="opacity:1" fill="#2b0a09" d="M 99.5,115.5 C 100.514,116.765 102.014,117.431 104,117.5C 105.707,117.492 107.207,117.158 108.5,116.5C 109.492,116.328 110.158,116.662 110.5,117.5C 106.253,118.602 101.92,118.768 97.5,118C 95.5087,117.626 93.842,116.793 92.5,115.5C 94.9686,114.933 97.302,114.933 99.5,115.5 Z"/></g>
<g><path style="opacity:1" fill="#e1d0cd" d="M 108.5,116.5 C 107.207,117.158 105.707,117.492 104,117.5C 102.014,117.431 100.514,116.765 99.5,115.5C 102.854,113.887 105.854,114.22 108.5,116.5 Z"/></g>
<g><path style="opacity:1" fill="#db9e9e" d="M 161.5,23.5 C 162.499,61.663 162.832,99.9964 162.5,138.5C 125.833,138.5 89.1667,138.5 52.5,138.5C 51.6745,134.864 51.0078,131.197 50.5,127.5C 51.8333,130.371 53.4999,133.205 55.5,136C 90.5417,136.826 125.542,136.66 160.5,135.5C 161.667,100.171 161.833,64.838 161,29.5C 160.667,29.1667 160.333,28.8333 160,28.5C 159.316,30.359 158.316,32.0257 157,33.5C 153.472,35.7408 150.305,38.4074 147.5,41.5C 146.817,41.1373 146.15,40.8039 145.5,40.5C 152.186,36.1462 157.519,30.4795 161.5,23.5 Z"/></g>
<g><path style="opacity:1" fill="#492320" d="M 270.5,139.5 C 234.671,138.502 198.671,138.168 162.5,138.5C 162.832,99.9964 162.499,61.663 161.5,23.5C 161.393,21.6214 161.893,21.2881 163,22.5C 163.5,60.8319 163.667,99.1652 163.5,137.5C 199.506,137.167 235.506,137.5 271.5,138.5C 271.376,139.107 271.043,139.44 270.5,139.5 Z"/></g>
<g><path style="opacity:1" fill="#1b0202" d="M 49.5,127.5 C 49.8333,127.5 50.1667,127.5 50.5,127.5C 51.0078,131.197 51.6745,134.864 52.5,138.5C 89.1667,138.5 125.833,138.5 162.5,138.5C 162.5,167.167 162.5,195.833 162.5,224.5C 161.829,196.431 161.163,168.264 160.5,140C 129.833,139.333 99.1667,139.333 68.5,140C 64.8218,140.418 61.1551,140.918 57.5,141.5C 55.4075,141.514 53.5741,140.848 52,139.5C 51.6667,139.833 51.3333,140.167 51,140.5C 50.6667,137.833 50.3333,135.167 50,132.5C 49.5,132 49,131.5 48.5,131C 49.3366,129.989 49.67,128.822 49.5,127.5 Z"/></g>
<g><path style="opacity:1" fill="#dd9d9b" d="M 162.5,138.5 C 198.671,138.168 234.671,138.502 270.5,139.5C 269.297,143.11 268.297,146.777 267.5,150.5C 266.023,153.591 264.356,156.591 262.5,159.5C 262.281,155.369 263.448,151.702 266,148.5C 266.497,145.854 266.664,143.187 266.5,140.5C 232.542,140.191 198.542,140.524 164.5,141.5C 164.353,170.169 164.02,198.836 163.5,227.5C 163.167,227.5 162.833,227.5 162.5,227.5C 162.5,226.5 162.5,225.5 162.5,224.5C 162.5,195.833 162.5,167.167 162.5,138.5 Z"/></g>
<g><path style="opacity:1" fill="#030202" d="M 51.5,47.5 C 50.1155,48.8009 48.6155,48.8009 47,47.5C 46.0053,48.0659 45.172,48.7326 44.5,49.5C 42.704,75.566 44.3706,101.566 49.5,127.5C 49.67,128.822 49.3366,129.989 48.5,131C 49,131.5 49.5,132 50,132.5C 50.3333,135.167 50.6667,137.833 51,140.5C 51.3333,140.167 51.6667,139.833 52,139.5C 53.5741,140.848 55.4075,141.514 57.5,141.5C 61.1551,140.918 64.8218,140.418 68.5,140C 99.1667,139.333 129.833,139.333 160.5,140C 161.163,168.264 161.829,196.431 162.5,224.5C 162.5,225.5 162.5,226.5 162.5,227.5C 178.661,228.662 194.995,228.828 211.5,228C 213.863,227.411 214.863,225.911 214.5,223.5C 214.833,223.5 215.167,223.5 215.5,223.5C 216.959,223.433 218.292,223.766 219.5,224.5C 219.167,225.5 218.5,226.167 217.5,226.5C 215.363,228.171 213.363,229.838 211.5,231.5C 201.167,231.5 190.833,231.5 180.5,231.5C 180.167,231.5 179.833,231.5 179.5,231.5C 154.833,231.5 130.167,231.5 105.5,231.5C 104.825,229.717 104.492,228.05 104.5,226.5C 81.4886,209.519 64.9886,187.519 55,160.5C 41.4861,122.998 36.3194,84.3315 39.5,44.5C 43.8156,44.3296 47.8156,45.3296 51.5,47.5 Z"/></g>
<g><path style="opacity:1" fill="#fb9d9b" d="M 262.5,159.5 C 257.364,174.299 249.698,187.632 239.5,199.5C 238.624,199.631 237.957,199.298 237.5,198.5C 237.479,196.398 237.813,194.232 238.5,192C 235.779,188.789 232.779,185.789 229.5,183C 225.833,182.667 222.167,182.333 218.5,182C 213.574,177.52 211.24,171.854 211.5,165C 212.418,160.326 212.418,155.826 211.5,151.5C 211.03,150.307 210.03,149.64 208.5,149.5C 207.5,149.833 206.5,150.167 205.5,150.5C 204.412,152.965 202.579,154.631 200,155.5C 198.682,158.605 196.848,161.438 194.5,164C 194.397,167.217 194.73,170.383 195.5,173.5C 195.5,174.167 195.167,174.5 194.5,174.5C 193.781,176.091 192.781,177.591 191.5,179C 187.208,181.979 182.542,184.146 177.5,185.5C 177.359,190.867 177.192,196.201 177,201.5C 178.117,202.949 178.784,204.616 179,206.5C 180.011,207.337 181.178,207.67 182.5,207.5C 182.5,209.167 182.5,210.833 182.5,212.5C 187.233,212.223 191.9,212.557 196.5,213.5C 198.122,211.561 199.956,211.228 202,212.5C 203.02,211.109 203.853,209.609 204.5,208C 207.146,207.503 209.813,207.336 212.5,207.5C 211.316,208.688 211.316,209.855 212.5,211C 225.298,210.71 226.298,213.377 215.5,219C 213.963,220.11 213.297,221.61 213.5,223.5C 212.547,225.61 210.881,226.777 208.5,227C 193.504,227.5 178.504,227.667 163.5,227.5C 164.02,198.836 164.353,170.169 164.5,141.5C 198.542,140.524 232.542,140.191 266.5,140.5C 266.664,143.187 266.497,145.854 266,148.5C 263.448,151.702 262.281,155.369 262.5,159.5 Z"/></g>
<g><path style="opacity:1" fill="#351b1a" d="M 211.5,151.5 C 206.171,164.611 208.838,176.278 219.5,186.5C 218.778,187.551 217.778,188.218 216.5,188.5C 216.649,187.448 216.483,186.448 216,185.5C 212.296,180.74 209.13,175.74 206.5,170.5C 206.5,169.833 206.5,169.167 206.5,168.5C 206.665,165.15 206.498,161.817 206,158.5C 199.053,166.836 195.553,176.503 195.5,187.5C 194.833,185.833 194.167,184.167 193.5,182.5C 193.833,179.833 194.167,177.167 194.5,174.5C 195.167,174.5 195.5,174.167 195.5,173.5C 197.553,165.566 201.553,158.733 207.5,153C 208.745,152.209 210.078,151.709 211.5,151.5 Z"/></g>
<g><path style="opacity:1" fill="#eeb8b6" d="M 211.5,151.5 C 210.078,151.709 208.745,152.209 207.5,153C 201.553,158.733 197.553,165.566 195.5,173.5C 194.73,170.383 194.397,167.217 194.5,164C 196.848,161.438 198.682,158.605 200,155.5C 202.579,154.631 204.412,152.965 205.5,150.5C 206.5,150.167 207.5,149.833 208.5,149.5C 210.03,149.64 211.03,150.307 211.5,151.5 Z"/></g>
<g><path style="opacity:1" fill="#f59d9e" d="M 206.5,168.5 C 206.5,169.167 206.5,169.833 206.5,170.5C 206.986,172.807 206.986,174.973 206.5,177C 213.508,188.491 211.175,190.991 199.5,184.5C 198.242,177.925 199.075,171.925 202,166.5C 203.47,167.267 204.97,167.933 206.5,168.5 Z"/></g>
<g><path style="opacity:1" fill="#efefef" d="M 107.5,152.5 C 110.616,156.024 113.283,160.024 115.5,164.5C 122.833,165.167 130.167,165.833 137.5,166.5C 132.144,172.688 126.977,179.022 122,185.5C 119.573,194.877 122.073,202.377 129.5,208C 122.833,208.667 116.167,208.667 109.5,208C 111.667,205.833 113.833,203.667 116,201.5C 116.667,195.833 116.667,190.167 116,184.5C 110.5,178.333 105,172.167 99.5,166C 103.871,165.828 108.204,165.328 112.5,164.5C 110.7,160.871 108.7,157.371 106.5,154C 107.056,153.617 107.389,153.117 107.5,152.5 Z"/></g>
<g><path style="opacity:1" fill="#111111" d="M 117.5,169.5 C 122.708,169.369 124.375,171.702 122.5,176.5C 115.842,177.837 114.176,175.503 117.5,169.5 Z"/></g>
<g><path style="opacity:1" fill="#0d0606" d="M 193.5,182.5 C 194.167,184.167 194.833,185.833 195.5,187.5C 200.113,187.469 203.447,189.469 205.5,193.5C 205.787,196.546 205.787,199.546 205.5,202.5C 200.804,209.494 194.47,211.328 186.5,208C 179.93,204.345 177.763,198.845 180,191.5C 183.511,186.815 188.011,185.149 193.5,186.5C 193.5,185.167 193.5,183.833 193.5,182.5 Z"/></g>
<g><path style="opacity:1" fill="#e4b4b3" d="M 206.5,168.5 C 204.97,167.933 203.47,167.267 202,166.5C 199.075,171.925 198.242,177.925 199.5,184.5C 211.175,190.991 213.508,188.491 206.5,177C 206.986,174.973 206.986,172.807 206.5,170.5C 209.13,175.74 212.296,180.74 216,185.5C 216.483,186.448 216.649,187.448 216.5,188.5C 212.062,188.934 209.062,191.267 207.5,195.5C 206.833,194.833 206.167,194.167 205.5,193.5C 203.447,189.469 200.113,187.469 195.5,187.5C 195.553,176.503 199.053,166.836 206,158.5C 206.498,161.817 206.665,165.15 206.5,168.5 Z"/></g>
<g><path style="opacity:1" fill="#0c0606" d="M 212.5,207.5 C 210.469,206.461 209.136,204.795 208.5,202.5C 207.631,200.283 207.298,197.95 207.5,195.5C 209.062,191.267 212.062,188.934 216.5,188.5C 217.778,188.218 218.778,187.551 219.5,186.5C 225.135,184.88 229.635,186.547 233,191.5C 235.394,199.231 232.894,205.065 225.5,209C 221.801,209.334 218.301,209.501 215,209.5C 214.292,208.619 213.458,207.953 212.5,207.5 Z"/></g>
<g><path style="opacity:1" fill="#e7afaf" d="M 211.5,151.5 C 212.418,155.826 212.418,160.326 211.5,165C 211.24,171.854 213.574,177.52 218.5,182C 222.167,182.333 225.833,182.667 229.5,183C 232.779,185.789 235.779,188.789 238.5,192C 237.813,194.232 237.479,196.398 237.5,198.5C 237.957,199.298 238.624,199.631 239.5,199.5C 232.5,208.5 224.5,216.5 215.5,223.5C 215.167,223.5 214.833,223.5 214.5,223.5C 214.167,223.5 213.833,223.5 213.5,223.5C 213.297,221.61 213.963,220.11 215.5,219C 226.298,213.377 225.298,210.71 212.5,211C 211.316,209.855 211.316,208.688 212.5,207.5C 213.458,207.953 214.292,208.619 215,209.5C 218.301,209.501 221.801,209.334 225.5,209C 232.894,205.065 235.394,199.231 233,191.5C 229.635,186.547 225.135,184.88 219.5,186.5C 208.838,176.278 206.171,164.611 211.5,151.5 Z"/></g>
<g><path style="opacity:1" fill="#1a0f0f" d="M 267.5,150.5 C 265.689,158.931 262.689,166.931 258.5,174.5C 259.233,175.087 260.233,175.087 261.5,174.5C 251.465,194.531 237.465,211.198 219.5,224.5C 218.292,223.766 216.959,223.433 215.5,223.5C 224.5,216.5 232.5,208.5 239.5,199.5C 249.698,187.632 257.364,174.299 262.5,159.5C 264.356,156.591 266.023,153.591 267.5,150.5 Z"/></g>
<g><path style="opacity:1" fill="#faf5ef" d="M 205.5,193.5 C 206.167,194.167 206.833,194.833 207.5,195.5C 207.298,197.95 207.631,200.283 208.5,202.5C 207.5,202.5 206.5,202.5 205.5,202.5C 205.787,199.546 205.787,196.546 205.5,193.5 Z"/></g>
<g><path style="opacity:1" fill="#edabad" d="M 194.5,174.5 C 194.167,177.167 193.833,179.833 193.5,182.5C 193.5,183.833 193.5,185.167 193.5,186.5C 188.011,185.149 183.511,186.815 180,191.5C 177.763,198.845 179.93,204.345 186.5,208C 194.47,211.328 200.804,209.494 205.5,202.5C 206.5,202.5 207.5,202.5 208.5,202.5C 209.136,204.795 210.469,206.461 212.5,207.5C 209.813,207.336 207.146,207.503 204.5,208C 203.853,209.609 203.02,211.109 202,212.5C 199.956,211.228 198.122,211.561 196.5,213.5C 191.9,212.557 187.233,212.223 182.5,212.5C 182.5,210.833 182.5,209.167 182.5,207.5C 181.178,207.67 180.011,207.337 179,206.5C 178.784,204.616 178.117,202.949 177,201.5C 177.192,196.201 177.359,190.867 177.5,185.5C 182.542,184.146 187.208,181.979 191.5,179C 192.781,177.591 193.781,176.091 194.5,174.5 Z"/></g>
<g><path style="opacity:1" fill="#45211d" d="M 213.5,223.5 C 213.833,223.5 214.167,223.5 214.5,223.5C 214.863,225.911 213.863,227.411 211.5,228C 194.995,228.828 178.661,228.662 162.5,227.5C 162.833,227.5 163.167,227.5 163.5,227.5C 178.504,227.667 193.504,227.5 208.5,227C 210.881,226.777 212.547,225.61 213.5,223.5 Z"/></g>
<g><path style="opacity:1" fill="#bfbfbf" d="M 89.5,231.5 C 94.8333,231.5 100.167,231.5 105.5,231.5C 130.167,231.5 154.833,231.5 179.5,231.5C 167.098,232.176 154.598,232.842 142,233.5C 120.55,232.398 99.0504,232.398 77.5,233.5C 76.9569,233.44 76.6236,233.107 76.5,232.5C 80.7828,231.508 85.1161,231.174 89.5,231.5 Z"/></g>
<g><path style="opacity:1" fill="#bebfbf" d="M 180.5,231.5 C 190.833,231.5 201.167,231.5 211.5,231.5C 223.88,230.854 235.88,231.521 247.5,233.5C 247.167,233.5 246.833,233.5 246.5,233.5C 225.764,232.169 204.931,232.169 184,233.5C 182.698,232.915 181.531,232.249 180.5,231.5 Z"/></g>
<g><path style="opacity:1" fill="#fbfbfb" d="M 179.5,231.5 C 179.833,231.5 180.167,231.5 180.5,231.5C 181.531,232.249 182.698,232.915 184,233.5C 204.931,232.169 225.764,232.169 246.5,233.5C 244.032,242.237 241.365,250.904 238.5,259.5C 187.5,259.5 136.5,259.5 85.5,259.5C 82.6312,250.894 79.9646,242.227 77.5,233.5C 99.0504,232.398 120.55,232.398 142,233.5C 154.598,232.842 167.098,232.176 179.5,231.5 Z"/></g>
<g><path style="opacity:1" fill="#040404" d="M 144.5,237.5 C 151.122,237.59 153.455,240.757 151.5,247C 154.047,249.978 154.547,253.145 153,256.5C 151.868,254.661 151.035,252.661 150.5,250.5C 149.311,249.571 147.978,249.238 146.5,249.5C 146.662,251.527 146.495,253.527 146,255.5C 145.333,256.833 144.667,256.833 144,255.5C 143.212,249.418 143.379,243.418 144.5,237.5 Z"/></g>
<g><path style="opacity:1" fill="#050404" d="M 168.5,237.5 C 169.117,237.611 169.617,237.944 170,238.5C 170.667,244.167 170.667,249.833 170,255.5C 169.333,256.833 168.667,256.833 168,255.5C 167.667,252.167 167.333,248.833 167,245.5C 166,246.5 165,247.5 164,248.5C 162.846,247.257 161.512,246.257 160,245.5C 159.921,249.358 159.254,253.024 158,256.5C 156.386,251.01 156.053,245.343 157,239.5C 157.718,238.549 158.551,238.383 159.5,239C 163.243,246.198 166.243,245.698 168.5,237.5 Z"/></g>
<g><path style="opacity:1" fill="#f7f7f7" d="M 146.5,240.5 C 149.701,241.839 150.035,243.506 147.5,245.5C 146.548,243.955 146.215,242.288 146.5,240.5 Z"/></g>
<g><path style="opacity:1" fill="#030303" d="M 138.5,240.5 C 139.117,240.611 139.617,240.944 140,241.5C 140.167,243.833 140.333,246.167 140.5,248.5C 139.5,259.167 138.5,259.167 137.5,248.5C 137.551,245.747 137.884,243.08 138.5,240.5 Z"/></g>
<g><path style="opacity:1" fill="#050404" d="M 208.5,238.5 C 214.706,237.868 218.039,240.701 218.5,247C 218.15,251.598 215.65,253.764 211,253.5C 205.254,252.695 203.254,249.362 205,243.5C 205.997,241.677 207.164,240.01 208.5,238.5 Z"/></g>
<g><path style="opacity:1" fill="#f9f9f9" d="M 209.5,241.5 C 213.522,241.018 215.522,242.852 215.5,247C 215.265,247.873 214.931,248.707 214.5,249.5C 207.203,250.974 205.536,248.307 209.5,241.5 Z"/></g>
<g><path style="opacity:1" fill="#050505" d="M 138.5,236.5 C 140.76,237.238 140.927,238.238 139,239.5C 137.272,238.648 137.105,237.648 138.5,236.5 Z"/></g>
<g><path style="opacity:1" fill="#020202" d="M 125.5,237.5 C 129.048,237.095 132.381,237.595 135.5,239C 133.063,240.375 130.397,240.875 127.5,240.5C 127.5,241.5 127.5,242.5 127.5,243.5C 134.167,244.5 134.167,245.5 127.5,246.5C 127.665,249.518 127.498,252.518 127,255.5C 126.333,256.833 125.667,256.833 125,255.5C 124.212,249.418 124.379,243.418 125.5,237.5 Z"/></g>
<g><path style="opacity:1" fill="#060605" d="M 218.5,235.5 C 220.729,236.055 222.395,237.389 223.5,239.5C 220.853,239.895 219.187,238.562 218.5,235.5 Z"/></g>
<g><path style="opacity:1" fill="#040404" d="M 188.5,236.5 C 190.017,236.511 191.184,237.177 192,238.5C 194.583,244.987 196.583,244.654 198,237.5C 199,236.167 200,236.167 201,237.5C 201.95,243.674 201.617,249.674 200,255.5C 198.746,252.024 198.079,248.358 198,244.5C 195.14,248.583 192.807,248.25 191,243.5C 190.667,247.167 190.333,250.833 190,254.5C 189.333,255.167 188.667,255.833 188,256.5C 187.208,249.753 187.374,243.086 188.5,236.5 Z"/></g>
<g><path style="opacity:1" fill="#040505" d="M 177.5,236.5 C 178.496,236.414 179.329,236.748 180,237.5C 182.769,243.572 184.103,249.905 184,256.5C 182.885,255 182.052,253.333 181.5,251.5C 179.604,250.534 177.604,250.201 175.5,250.5C 175.716,252.681 174.883,254.347 173,255.5C 172.308,254.975 171.808,254.308 171.5,253.5C 172.511,247.364 174.511,241.698 177.5,236.5 Z"/></g>
<g><path style="opacity:1" fill="#f6f6f6" d="M 177.5,243.5 C 181.708,245.926 181.375,247.259 176.5,247.5C 176.433,246.041 176.766,244.708 177.5,243.5 Z"/></g>
<g><path style="opacity:1" fill="#f0f0f0" d="M 254.5,237.5 C 254.982,238.416 255.315,239.416 255.5,240.5C 253.698,247.237 251.698,253.904 249.5,260.5C 250.063,263.862 251.397,266.862 253.5,269.5C 253.333,269.833 253.167,270.167 253,270.5C 248.066,267.735 243.9,264.068 240.5,259.5C 243.509,250.805 246.509,242.138 249.5,233.5C 249.435,233.062 249.601,232.728 250,232.5C 251.049,234.618 252.549,236.284 254.5,237.5 Z"/></g>
<g><path style="opacity:1" fill="#020202" d="M 85.5,259.5 C 136.5,259.5 187.5,259.5 238.5,259.5C 240.527,262.22 242.193,265.22 243.5,268.5C 241.704,267.207 240.037,265.707 238.5,264C 187.501,263.5 136.501,263.333 85.5,263.5C 85.1115,262.024 85.1115,260.691 85.5,259.5 Z"/></g>
<g><path style="opacity:1" fill="#131313" d="M 86.5,227.5 C 89.4082,228.159 89.7416,228.993 87.5,230C 88.4158,230.278 89.0825,230.778 89.5,231.5C 85.1161,231.174 80.7828,231.508 76.5,232.5C 76.6236,233.107 76.9569,233.44 77.5,233.5C 79.9646,242.227 82.6312,250.894 85.5,259.5C 85.1115,260.691 85.1115,262.024 85.5,263.5C 80.9111,270.451 74.5778,274.285 66.5,275C 65.8448,273.513 64.8448,272.347 63.5,271.5C 48.3904,278.426 32.7237,283.759 16.5,287.5C 13.0424,286.249 12.0424,283.916 13.5,280.5C 19.5377,275.463 24.8711,269.797 29.5,263.5C 22.5215,261.604 15.5215,259.771 8.5,258C 5.79613,255.313 5.96279,252.813 9,250.5C 23.9932,246.724 38.4932,241.558 52.5,235C 55.5244,233.487 58.1911,231.487 60.5,229C 64.2103,227.776 66.8769,228.942 68.5,232.5C 69.941,231.135 71.2744,229.635 72.5,228C 77.1548,227.501 81.8215,227.334 86.5,227.5 Z"/></g>
<g><path style="opacity:1" fill="#f8f8f8" d="M 61.5,233.5 C 62.4959,233.414 63.3292,233.748 64,234.5C 66.1316,241.895 68.4649,249.228 71,256.5C 71.6667,258.167 71.6667,259.833 71,261.5C 54.7188,271.864 37.2188,278.531 18.5,281.5C 24.9587,275.252 30.9587,268.585 36.5,261.5C 35.3349,260.416 34.0016,259.583 32.5,259C 25.4272,257.586 18.4272,255.919 11.5,254C 23.7272,250.612 35.7272,246.612 47.5,242C 52.7303,239.894 57.397,237.061 61.5,233.5 Z"/></g>
<g><path style="opacity:1" fill="#f0f0f0" d="M 73.5,232.5 C 77.0896,241.084 80.4229,249.918 83.5,259C 80.1983,264.66 75.5316,268.327 69.5,270C 71.8211,267.192 73.4878,264.025 74.5,260.5C 72.0746,254.144 70.0746,247.644 68.5,241C 69.9336,238.058 71.6002,235.224 73.5,232.5 Z"/></g>
<g><path style="opacity:1" fill="#131313" d="M 235.5,227.5 C 240.844,227.334 246.177,227.501 251.5,228C 252.787,229.41 253.954,230.91 255,232.5C 256.334,228.896 258.834,227.729 262.5,229C 269.044,233.773 276.044,237.773 283.5,241C 294.034,244.733 304.701,248.067 315.5,251C 317.994,253.244 317.994,255.577 315.5,258C 308.411,259.623 301.411,261.456 294.5,263.5C 299.113,269.616 304.28,275.282 310,280.5C 311.312,284.223 310.145,286.556 306.5,287.5C 290.535,283.956 275.202,278.623 260.5,271.5C 259.276,272.766 257.943,273.933 256.5,275C 251.116,274.975 246.783,272.808 243.5,268.5C 242.193,265.22 240.527,262.22 238.5,259.5C 241.365,250.904 244.032,242.237 246.5,233.5C 246.833,233.5 247.167,233.5 247.5,233.5C 248.167,233.5 248.833,233.5 249.5,233.5C 246.509,242.138 243.509,250.805 240.5,259.5C 243.9,264.068 248.066,267.735 253,270.5C 253.167,270.167 253.333,269.833 253.5,269.5C 251.397,266.862 250.063,263.862 249.5,260.5C 251.698,253.904 253.698,247.237 255.5,240.5C 255.315,239.416 254.982,238.416 254.5,237.5C 255.833,237.5 257.167,237.5 258.5,237.5C 256.811,244.737 254.811,251.904 252.5,259C 252.439,260.711 253.106,262.044 254.5,263C 270.619,272.706 287.952,279.039 306.5,282C 299.332,275.997 292.999,269.163 287.5,261.5C 288.381,260.029 289.714,259.196 291.5,259C 298.322,257.948 304.989,256.281 311.5,254C 293.772,249.632 277.106,242.799 261.5,233.5C 260.818,234.243 260.151,234.909 259.5,235.5C 257.977,233.49 256.144,233.156 254,234.5C 252.708,232.751 251.542,230.918 250.5,229C 245.316,228.826 240.316,228.326 235.5,227.5 Z"/></g>
<g><path style="opacity:1" fill="#f7f7f7" d="M 258.5,237.5 C 259.338,237.158 259.672,236.492 259.5,235.5C 260.151,234.909 260.818,234.243 261.5,233.5C 277.106,242.799 293.772,249.632 311.5,254C 304.989,256.281 298.322,257.948 291.5,259C 289.714,259.196 288.381,260.029 287.5,261.5C 292.999,269.163 299.332,275.997 306.5,282C 287.952,279.039 270.619,272.706 254.5,263C 253.106,262.044 252.439,260.711 252.5,259C 254.811,251.904 256.811,244.737 258.5,237.5 Z"/></g>
</svg>
