<svg id="svg" version="1.1" xmlns="http://www.w3.org/2000/svg" xmlns:xlink="http://www.w3.org/1999/xlink" width="400" height="342.66666666666663" viewBox="0, 0, 400,342.66666666666663"><g id="svgg"><path id="path0" d="M190.697 13.442 L 181.477 20.167 177.489 20.167 C 175.217 20.167,173.500 20.232,173.500 20.318 C 173.500 20.401,174.704 24.120,176.175 28.584 C 177.647 33.047,178.828 36.764,178.800 36.844 C 178.773 36.924,175.543 34.666,171.623 31.828 C 167.703 28.989,164.471 26.667,164.441 26.667 C 164.411 26.667,163.831 28.430,163.152 30.585 L 161.918 34.503 152.855 41.043 C 147.870 44.640,143.728 47.624,143.650 47.674 C 143.572 47.724,144.975 52.474,146.767 58.230 C 148.559 63.987,150.001 68.721,149.971 68.751 C 149.941 68.780,148.867 68.889,147.583 68.992 C 131.509 70.282,113.654 72.286,100.000 74.332 C 98.121 74.614,96.227 74.890,95.792 74.945 L 95.000 75.046 95.000 80.273 C 95.000 86.203,94.836 85.649,96.499 85.333 C 99.460 84.772,113.802 82.849,121.917 81.925 C 140.030 79.863,162.626 78.128,176.333 77.746 L 179.750 77.651 189.870 85.061 L 199.991 92.471 210.204 85.069 L 220.417 77.668 221.797 77.667 C 222.557 77.667,225.594 77.780,228.547 77.918 C 252.918 79.060,279.303 81.625,301.484 85.007 C 303.263 85.278,304.821 85.500,304.945 85.500 C 305.132 85.500,305.164 84.590,305.127 80.296 L 305.083 75.092 304.333 74.961 C 295.090 73.336,271.561 70.583,255.417 69.238 C 252.483 68.993,250.066 68.779,250.044 68.760 C 250.023 68.742,251.472 64.017,253.265 58.259 C 255.058 52.502,256.463 47.736,256.387 47.669 C 256.312 47.601,252.230 44.651,247.317 41.112 C 242.403 37.573,238.306 34.581,238.211 34.464 C 238.116 34.346,237.497 32.563,236.835 30.500 C 236.174 28.438,235.610 26.726,235.582 26.696 C 235.554 26.667,232.329 28.978,228.414 31.831 C 224.500 34.685,221.266 36.989,221.229 36.951 C 221.191 36.913,222.362 33.166,223.830 28.624 C 225.299 24.082,226.500 20.321,226.500 20.266 C 226.500 20.211,224.708 20.167,222.519 20.167 L 218.538 20.167 209.561 13.644 C 204.623 10.057,200.433 7.031,200.250 6.920 C 199.951 6.738,198.979 7.402,190.697 13.442 M206.250 24.058 C 209.550 26.437,212.388 28.513,212.557 28.671 C 212.908 28.997,213.184 28.022,209.812 38.375 L 207.980 44.000 200.000 44.000 L 192.020 44.000 190.000 37.792 C 188.890 34.377,187.789 30.995,187.555 30.277 C 187.259 29.369,187.183 28.917,187.303 28.797 C 187.895 28.205,199.948 19.573,200.083 19.644 C 200.175 19.691,202.950 21.678,206.250 24.058 M175.022 47.099 C 178.493 49.629,181.333 51.774,181.333 51.867 C 181.333 52.122,176.482 66.900,176.358 67.024 C 176.205 67.176,161.110 67.977,160.956 67.841 C 160.819 67.721,155.630 51.812,155.705 51.744 C 156.168 51.329,168.436 42.500,168.550 42.500 C 168.638 42.500,171.551 44.570,175.022 47.099 M237.846 47.016 C 241.276 49.500,244.148 51.593,244.227 51.668 C 244.305 51.742,243.184 55.450,241.735 59.907 L 239.101 68.011 238.425 67.925 C 238.054 67.879,234.600 67.679,230.750 67.483 C 226.900 67.286,223.701 67.078,223.641 67.021 C 223.495 66.881,218.833 52.256,218.833 51.938 C 218.833 51.691,231.083 42.519,231.429 42.506 C 231.527 42.503,234.415 44.532,237.846 47.016 M210.430 62.798 C 211.752 66.858,212.833 70.242,212.833 70.319 C 212.833 70.396,209.942 72.533,206.408 75.067 L 199.984 79.674 193.950 75.334 C 190.632 72.947,187.730 70.857,187.503 70.689 L 187.089 70.385 189.490 62.984 C 190.810 58.914,191.920 55.526,191.956 55.457 C 191.992 55.387,195.623 55.350,200.024 55.373 L 208.026 55.417 210.430 62.798 M173.583 83.112 C 144.317 84.558,121.936 86.726,95.833 90.642 L 95.083 90.754 95.041 122.812 L 94.999 154.870 95.375 154.779 C 95.581 154.730,97.925 154.344,100.583 153.923 C 103.242 153.502,105.623 153.116,105.875 153.065 L 106.333 152.974 106.333 126.820 C 106.333 112.436,106.362 100.667,106.397 100.667 C 106.433 100.667,107.839 100.481,109.522 100.254 C 126.758 97.927,147.063 95.995,164.667 95.005 C 171.851 94.601,174.081 94.504,180.250 94.328 C 183.825 94.226,188.073 94.091,189.691 94.029 L 192.632 93.917 185.167 88.458 L 177.702 83.000 176.143 83.032 C 175.285 83.049,174.133 83.085,173.583 83.112 M214.949 88.440 C 210.848 91.432,207.514 93.902,207.541 93.929 C 207.568 93.956,210.701 94.059,214.503 94.157 C 239.026 94.788,266.847 97.007,290.000 100.176 C 291.971 100.446,293.602 100.667,293.625 100.667 C 293.648 100.667,293.667 112.438,293.667 126.826 L 293.667 152.985 294.208 153.078 C 294.506 153.129,296.887 153.510,299.500 153.923 C 302.112 154.336,304.456 154.716,304.708 154.767 L 305.167 154.860 305.167 122.858 C 305.167 92.523,305.151 90.851,304.875 90.770 C 302.986 90.217,281.552 87.481,269.500 86.256 C 254.604 84.742,229.979 83.006,223.329 83.001 L 222.408 83.000 214.949 88.440 M185.833 152.112 C 141.343 153.171,98.693 158.237,67.250 166.196 C 65.050 166.753,63.075 167.246,62.861 167.293 C 62.220 167.432,62.204 167.361,65.576 179.695 C 67.367 186.249,68.833 191.789,68.833 192.007 C 68.833 192.224,67.362 199.028,65.564 207.126 C 63.766 215.224,62.329 221.884,62.371 221.926 C 62.412 221.968,64.202 221.557,66.348 221.014 C 141.297 202.031,258.116 201.993,333.348 220.927 C 335.693 221.517,337.649 222.000,337.695 222.000 C 337.741 222.000,336.291 215.308,334.473 207.128 C 332.654 198.949,331.170 192.105,331.173 191.920 C 331.176 191.735,332.666 186.183,334.482 179.583 C 336.819 171.096,337.729 167.550,337.592 167.468 C 337.272 167.278,331.863 165.910,327.250 164.853 C 287.676 155.784,234.153 150.961,185.833 152.112 M207.173 164.168 C 209.330 164.577,211.261 166.040,212.214 167.988 L 212.750 169.083 212.750 177.917 L 212.750 186.750 212.261 187.750 C 211.299 189.719,209.291 191.264,207.173 191.665 C 206.001 191.888,190.672 191.888,189.481 191.666 C 187.335 191.265,185.392 189.756,184.387 187.708 L 183.917 186.750 183.917 177.917 L 183.917 169.083 184.453 167.988 C 185.375 166.104,187.344 164.576,189.363 164.178 C 190.406 163.973,206.098 163.964,207.173 164.168 M224.500 164.601 L 227.417 164.707 234.958 174.562 C 239.105 179.982,242.684 184.642,242.910 184.917 L 243.321 185.417 243.327 176.581 L 243.333 167.745 242.320 166.623 L 241.307 165.500 242.112 165.505 C 242.554 165.507,244.567 165.618,246.583 165.751 C 248.600 165.884,250.510 165.994,250.829 165.996 L 251.408 166.000 250.287 167.129 L 249.167 168.258 249.167 179.776 L 249.167 191.293 250.290 192.506 L 251.413 193.719 250.415 193.615 C 249.866 193.559,247.804 193.423,245.833 193.313 C 243.862 193.204,242.095 193.058,241.906 192.990 C 241.716 192.921,238.004 188.239,233.656 182.585 L 225.750 172.305 225.707 181.105 L 225.664 189.906 226.874 191.130 L 228.083 192.354 224.500 192.256 C 222.529 192.202,220.204 192.114,219.333 192.060 L 217.750 191.961 218.875 190.915 L 220.000 189.869 220.000 178.328 L 220.000 166.788 218.885 165.542 L 217.770 164.297 219.677 164.396 C 220.725 164.451,222.896 164.543,224.500 164.601 M172.860 165.449 C 174.726 166.322,175.868 167.637,176.415 169.543 C 176.916 171.287,176.721 176.970,176.118 178.198 C 175.670 179.110,174.036 180.833,173.619 180.833 C 173.516 180.833,173.841 181.078,174.341 181.376 C 176.191 182.480,176.664 183.685,176.666 187.293 L 176.667 189.836 177.792 190.902 L 178.917 191.969 178.333 192.060 C 177.571 192.179,168.987 192.543,168.904 192.460 C 168.869 192.425,169.326 191.863,169.920 191.213 L 171.000 190.030 171.000 187.524 C 171.000 184.307,170.860 184.061,169.055 184.121 C 166.955 184.190,155.093 184.837,154.208 184.931 L 153.333 185.024 153.333 188.076 L 153.333 191.128 154.423 192.148 C 155.022 192.708,155.453 193.171,155.381 193.177 C 155.309 193.183,153.075 193.359,150.417 193.569 C 147.758 193.778,145.552 193.924,145.514 193.892 C 145.476 193.860,145.945 193.316,146.556 192.683 L 147.667 191.532 147.667 180.062 L 147.667 168.592 146.546 167.463 L 145.426 166.333 146.088 166.321 C 146.452 166.315,151.662 165.982,157.667 165.582 C 170.339 164.738,171.321 164.729,172.860 165.449 M271.667 168.144 L 285.250 169.587 285.295 173.407 L 285.340 177.227 284.128 175.955 L 282.917 174.684 278.566 174.259 C 276.174 174.025,274.093 173.833,273.941 173.833 C 273.689 173.833,273.667 174.645,273.667 183.683 L 273.667 193.533 274.770 194.767 C 275.598 195.692,275.796 196.000,275.562 196.001 C 275.045 196.003,265.922 194.969,265.849 194.900 C 265.812 194.865,266.281 194.379,266.891 193.820 L 268.000 192.804 268.000 182.993 L 268.000 173.182 267.458 173.094 C 267.160 173.045,265.017 172.807,262.696 172.563 L 258.475 172.121 257.779 172.775 C 257.397 173.134,256.915 173.568,256.708 173.740 L 256.333 174.052 256.333 170.274 L 256.333 166.497 257.208 166.599 C 257.690 166.655,264.196 167.350,271.667 168.144 M136.832 167.884 C 138.086 168.345,139.474 169.742,140.015 171.085 L 140.417 172.083 140.466 179.978 C 140.526 189.582,140.428 190.186,138.457 192.426 C 136.498 194.652,135.894 194.817,125.667 195.929 C 116.979 196.873,116.615 196.886,115.070 196.312 C 111.695 195.057,111.296 193.640,111.371 183.185 C 111.438 173.882,111.599 173.176,114.143 171.001 C 116.075 169.348,116.018 169.361,126.222 168.253 C 134.579 167.346,135.303 167.321,136.832 167.884 M189.987 169.987 L 189.500 170.474 189.500 177.917 L 189.500 185.359 189.987 185.846 L 190.474 186.333 198.333 186.333 L 206.192 186.333 206.679 185.846 L 207.167 185.359 207.167 177.917 L 207.167 170.474 206.679 169.987 L 206.192 169.500 198.333 169.500 L 190.474 169.500 189.987 169.987 M253.542 170.659 L 252.333 171.804 252.333 181.937 L 252.333 192.069 251.583 191.333 L 250.833 190.597 250.833 180.049 L 250.833 169.500 252.792 169.507 L 254.750 169.514 253.542 170.659 M215.634 171.624 L 216.083 172.583 216.083 180.333 C 216.083 189.739,215.965 190.282,213.386 192.753 C 211.136 194.909,210.486 195.021,200.562 194.964 L 192.250 194.917 191.211 194.437 C 189.325 193.566,189.174 193.583,198.639 193.583 C 206.779 193.583,207.483 193.561,208.333 193.271 C 211.437 192.215,213.516 190.109,214.444 187.083 C 214.723 186.172,214.750 185.375,214.750 178.064 C 214.750 169.346,214.708 169.649,215.634 171.624 M161.667 170.673 C 157.404 170.930,153.785 171.146,153.625 171.154 C 153.355 171.166,153.333 171.484,153.333 175.401 L 153.333 179.635 154.292 179.562 C 154.819 179.523,158.535 179.305,162.550 179.080 C 171.833 178.558,171.000 179.020,171.000 174.389 C 171.000 169.666,171.966 170.050,161.667 170.673 M179.599 172.250 C 180.153 173.701,180.065 177.949,179.455 179.190 C 179.032 180.052,177.716 181.500,177.356 181.500 C 176.773 181.500,176.671 180.670,177.166 179.964 C 178.217 178.465,178.396 177.612,178.466 173.775 L 178.530 170.299 178.905 170.858 C 179.111 171.165,179.424 171.792,179.599 172.250 M106.667 174.593 C 106.667 176.650,106.625 178.333,106.574 178.333 C 106.524 178.333,105.980 177.929,105.366 177.435 L 104.250 176.537 99.583 177.404 L 94.917 178.272 94.874 188.103 L 94.831 197.935 95.916 198.833 C 96.514 199.327,96.945 199.783,96.876 199.846 C 96.739 199.970,87.117 201.671,87.031 201.586 C 87.003 201.558,87.471 200.970,88.073 200.280 L 89.167 199.026 89.167 189.180 C 89.167 181.412,89.123 179.334,88.958 179.337 C 88.844 179.339,86.728 179.706,84.257 180.153 C 79.218 181.063,79.848 180.789,78.125 182.822 L 77.500 183.560 77.500 179.736 L 77.500 175.911 91.958 173.319 C 99.910 171.893,106.473 170.755,106.542 170.790 C 106.610 170.825,106.667 172.536,106.667 174.593 M205.333 172.000 L 205.333 172.833 199.524 172.833 L 193.715 172.833 193.274 173.242 L 192.833 173.651 192.833 179.075 L 192.833 184.500 192.083 184.500 L 191.333 184.500 191.333 178.406 C 191.333 174.365,191.394 172.198,191.513 171.975 C 191.913 171.229,192.370 171.180,199.042 171.173 L 205.333 171.167 205.333 172.000 M305.083 172.648 C 314.861 174.300,315.557 174.553,317.512 177.164 C 319.128 179.322,319.083 178.990,319.083 188.917 L 319.083 197.583 318.616 198.536 C 316.975 201.876,315.510 202.062,305.000 200.264 C 294.876 198.532,294.623 198.454,292.654 196.487 C 290.205 194.039,290.148 193.743,290.204 183.652 L 290.250 175.250 290.658 174.421 C 291.697 172.310,293.879 171.072,296.250 171.249 C 296.800 171.290,300.775 171.920,305.083 172.648 M169.167 172.814 L 169.167 173.462 168.292 173.559 C 167.810 173.613,165.242 173.775,162.583 173.920 C 159.925 174.065,157.509 174.220,157.214 174.265 L 156.679 174.346 156.631 175.965 L 156.583 177.583 155.875 177.635 L 155.167 177.686 155.167 175.343 C 155.167 174.054,155.185 172.991,155.208 172.979 C 155.290 172.939,167.267 172.211,168.208 172.189 L 169.167 172.167 169.167 172.814 M143.366 174.132 C 143.953 175.585,143.966 189.231,143.382 191.083 C 142.436 194.087,139.921 196.722,137.108 197.658 C 135.948 198.044,122.823 199.667,120.861 199.667 C 119.763 199.667,118.402 199.332,117.783 198.911 C 117.338 198.608,117.438 198.593,126.032 197.669 C 136.389 196.555,136.762 196.450,139.256 193.934 C 142.117 191.048,142.209 190.642,142.293 180.500 C 142.368 171.533,142.352 171.624,143.366 174.132 M125.624 173.733 C 118.553 174.532,117.970 174.622,117.624 174.969 L 117.250 175.342 117.203 182.924 L 117.157 190.505 117.569 190.917 C 117.871 191.220,118.104 191.308,118.449 191.250 C 118.706 191.207,122.142 190.829,126.083 190.412 C 133.832 189.592,134.206 189.511,134.593 188.587 C 134.885 187.888,134.949 174.839,134.665 173.818 C 134.506 173.247,133.952 172.805,133.450 172.852 C 133.340 172.862,129.818 173.259,125.624 173.733 M288.403 173.268 C 288.633 173.356,288.666 173.853,288.663 177.143 L 288.659 180.917 287.913 180.135 L 287.167 179.353 287.167 176.260 L 287.167 173.167 287.653 173.167 C 287.921 173.167,288.258 173.212,288.403 173.268 M109.833 177.260 C 109.833 180.222,109.789 180.994,109.625 180.897 C 109.510 180.829,109.171 180.589,108.871 180.364 L 108.326 179.955 108.371 176.854 L 108.417 173.753 108.917 173.646 C 109.192 173.587,109.510 173.531,109.625 173.520 C 109.786 173.504,109.833 174.353,109.833 177.260 M263.333 174.420 C 266.321 174.741,266.167 174.683,266.167 175.495 C 266.167 176.285,266.120 176.293,263.405 175.990 L 261.823 175.814 260.745 176.761 L 259.667 177.707 259.667 175.839 L 259.667 173.971 260.292 174.065 C 260.635 174.117,262.004 174.277,263.333 174.420 M132.886 176.164 C 132.811 176.230,130.350 176.525,127.417 176.821 C 119.571 177.611,120.335 176.834,120.334 184.024 L 120.333 189.298 119.667 189.362 L 119.000 189.425 119.000 183.283 L 119.000 177.141 119.487 176.654 C 119.755 176.386,120.074 176.162,120.196 176.157 C 120.317 176.152,123.229 175.832,126.667 175.445 L 132.917 174.742 132.969 175.394 C 132.998 175.752,132.960 176.099,132.886 176.164 M279.583 176.255 L 282.250 176.511 282.992 177.249 C 283.960 178.214,284.084 178.190,280.292 177.766 L 277.000 177.398 277.000 185.984 L 277.000 194.571 276.167 193.750 L 275.333 192.929 275.333 184.366 L 275.333 175.802 276.125 175.901 C 276.560 175.956,278.117 176.115,279.583 176.255 M296.561 176.862 C 295.863 177.199,295.833 177.532,295.834 184.966 C 295.835 194.181,295.259 193.160,301.010 194.152 C 313.348 196.279,312.763 196.205,313.224 195.695 C 313.472 195.421,313.500 194.635,313.500 187.884 C 313.500 179.421,313.545 179.714,312.199 179.334 C 311.658 179.181,297.152 176.649,296.983 176.678 C 296.946 176.684,296.756 176.767,296.561 176.862 M228.313 178.576 L 229.000 179.486 229.000 185.111 L 229.000 190.736 228.250 190.000 L 227.500 189.264 227.500 183.465 C 227.500 180.276,227.528 177.667,227.563 177.667 C 227.598 177.667,227.936 178.076,228.313 178.576 M104.170 179.133 L 104.883 179.765 101.566 180.351 L 98.250 180.937 98.167 189.478 L 98.083 198.020 97.373 197.412 L 96.664 196.805 96.707 188.280 L 96.750 179.754 100.000 179.147 C 101.787 178.812,103.297 178.530,103.354 178.519 C 103.411 178.509,103.778 178.785,104.170 179.133 M305.167 179.917 C 308.604 180.512,311.473 180.999,311.542 180.999 C 311.610 181.000,311.667 181.338,311.667 181.750 C 311.667 182.162,311.621 182.500,311.565 182.500 C 311.509 182.500,308.960 182.079,305.901 181.565 C 302.736 181.033,300.155 180.675,299.913 180.736 C 299.225 180.909,299.167 181.391,299.167 186.864 L 299.167 192.039 298.792 191.938 C 298.585 191.883,298.248 191.837,298.042 191.836 L 297.667 191.833 297.667 185.742 L 297.667 179.652 298.076 179.242 C 298.593 178.725,297.906 178.660,305.167 179.917 M87.333 182.153 C 87.333 182.890,87.346 182.884,84.443 183.344 C 83.026 183.568,82.895 183.659,81.539 185.368 C 80.683 186.448,80.649 186.407,80.703 184.379 L 80.750 182.591 83.667 182.066 C 87.567 181.365,87.333 181.359,87.333 182.153 M321.896 182.816 C 322.137 183.354,322.409 184.188,322.501 184.670 C 322.728 185.868,322.717 198.002,322.487 199.244 C 321.840 202.742,318.987 205.147,315.466 205.163 C 313.301 205.172,299.685 202.708,298.417 202.078 C 297.047 201.397,295.802 200.418,296.500 200.570 C 297.517 200.792,312.344 203.336,313.167 203.430 C 316.014 203.754,319.040 202.085,320.302 199.495 C 321.107 197.842,321.183 196.857,321.131 188.806 C 321.080 180.989,321.079 180.996,321.896 182.816 M179.752 187.233 C 179.912 187.782,179.996 188.588,179.966 189.275 L 179.917 190.410 179.208 189.769 L 178.500 189.128 178.505 187.189 L 178.510 185.250 178.999 185.788 C 179.268 186.084,179.607 186.734,179.752 187.233 M169.167 186.720 L 169.167 187.440 163.125 187.736 C 159.802 187.899,156.990 188.061,156.875 188.095 C 156.726 188.139,156.667 188.635,156.667 189.828 C 156.667 191.714,156.640 191.745,155.778 190.862 L 155.154 190.223 155.202 188.487 L 155.250 186.750 161.250 186.398 C 164.550 186.205,167.681 186.036,168.208 186.023 L 169.167 186.000 169.167 186.720 M54.299 187.750 C 50.475 188.514,47.269 189.187,47.174 189.246 C 47.060 189.316,47.000 190.938,47.000 193.931 L 47.000 198.508 36.042 210.183 C 30.015 216.604,25.061 221.919,25.034 221.994 C 25.007 222.069,29.938 225.637,35.992 229.924 L 47.000 237.717 47.000 242.942 C 47.000 245.815,47.038 248.167,47.084 248.167 C 47.130 248.167,49.586 247.751,52.542 247.243 C 58.206 246.269,66.974 244.855,72.680 243.996 C 77.068 243.336,85.163 242.168,85.400 242.162 C 85.778 242.151,84.736 241.726,70.083 235.911 C 61.833 232.636,55.031 229.910,54.966 229.853 C 54.902 229.796,56.762 221.275,59.099 210.916 L 63.349 192.083 62.663 189.500 C 62.286 188.079,61.940 186.785,61.894 186.625 C 61.783 186.235,62.172 186.178,54.299 187.750 M338.188 186.708 C 338.113 186.915,337.762 188.214,337.408 189.595 L 336.764 192.107 340.902 210.845 C 343.179 221.151,345.051 229.642,345.062 229.713 C 345.074 229.785,338.333 232.539,330.083 235.833 C 321.833 239.128,314.940 241.887,314.765 241.964 C 314.549 242.059,315.483 242.249,317.682 242.560 C 326.484 243.801,350.818 247.667,352.625 248.111 L 353.000 248.203 353.004 242.976 L 353.009 237.750 363.859 230.083 C 369.827 225.867,374.817 222.339,374.949 222.244 C 375.140 222.107,372.952 219.688,364.094 210.250 L 353.000 198.428 353.000 193.797 C 353.000 191.250,352.975 189.167,352.944 189.167 C 352.913 189.167,349.678 188.529,345.755 187.750 C 337.540 186.118,338.362 186.232,338.188 186.708 M181.548 194.496 L 182.250 195.158 181.750 195.173 C 181.475 195.182,179.225 195.283,176.750 195.399 C 171.555 195.643,171.901 195.700,172.832 194.752 L 173.560 194.010 175.488 193.958 C 176.549 193.929,178.188 193.889,179.131 193.869 L 180.846 193.833 181.548 194.496 M229.426 194.256 C 229.889 194.329,231.340 195.562,231.156 195.725 C 231.116 195.760,229.433 195.729,227.417 195.656 C 225.400 195.583,223.153 195.518,222.424 195.511 L 221.097 195.500 221.793 194.791 L 222.488 194.083 225.702 194.129 C 227.470 194.154,229.146 194.211,229.426 194.256 M158.145 195.603 C 158.532 195.935,158.823 196.233,158.791 196.265 C 158.719 196.337,150.221 197.000,149.370 197.000 L 148.754 197.000 149.502 196.253 L 150.250 195.506 152.917 195.276 C 157.284 194.898,157.323 194.900,158.145 195.603 M249.071 195.328 L 253.225 195.646 253.987 196.418 L 254.750 197.191 253.833 197.097 C 253.329 197.045,251.642 196.927,250.083 196.835 C 244.808 196.524,245.068 196.575,244.488 195.733 L 243.984 195.000 244.450 195.005 C 244.707 195.007,246.786 195.153,249.071 195.328 M274.383 197.727 L 277.682 198.104 278.375 198.796 C 279.337 199.759,279.401 199.753,274.139 199.180 C 271.542 198.896,269.304 198.663,269.167 198.661 C 269.026 198.658,269.245 198.369,269.667 198.000 C 270.545 197.231,270.208 197.251,274.383 197.727 M99.597 201.900 C 100.427 202.620,100.787 202.482,95.667 203.401 C 93.237 203.837,91.034 204.237,90.769 204.289 C 90.202 204.401,90.258 204.244,91.146 203.243 L 91.708 202.607 95.229 201.993 C 97.166 201.655,98.794 201.368,98.847 201.356 C 98.901 201.343,99.238 201.588,99.597 201.900 M101.500 219.594 C 99.162 219.993,96.744 220.404,96.125 220.508 L 95.000 220.697 95.001 233.140 C 95.001 252.894,95.981 258.320,101.567 269.500 C 114.583 295.552,149.569 320.205,195.028 335.356 L 199.973 337.004 204.361 335.566 C 254.378 319.169,291.625 290.990,301.708 261.917 C 304.662 253.399,305.020 250.427,305.122 233.576 L 305.200 220.735 299.558 219.782 C 296.455 219.258,293.865 218.830,293.802 218.831 C 293.739 218.832,293.658 225.077,293.621 232.708 C 293.550 247.711,293.545 247.799,292.573 252.326 C 288.357 271.968,271.180 290.534,242.348 306.608 C 230.982 312.945,215.879 319.613,203.121 323.927 L 199.992 324.985 196.826 323.906 C 149.234 307.683,115.865 281.903,108.279 255.496 C 106.538 249.434,106.464 248.545,106.379 232.542 C 106.312 219.869,106.286 218.835,106.028 218.851 C 105.875 218.860,103.837 219.195,101.500 219.594 M151.333 227.274 C 151.333 227.335,151.633 227.641,152.000 227.955 L 152.667 228.526 152.667 235.133 L 152.667 241.741 151.958 242.363 L 151.250 242.986 154.826 242.993 L 158.403 243.000 157.701 242.285 L 157.000 241.571 157.000 239.287 L 157.000 237.004 163.042 236.960 L 169.083 236.917 169.131 235.127 L 169.178 233.338 163.131 233.294 L 157.083 233.250 157.083 232.083 L 157.083 230.917 164.079 230.873 L 171.074 230.830 171.881 231.331 C 172.326 231.607,172.723 231.833,172.766 231.833 C 172.808 231.833,172.822 230.802,172.796 229.542 L 172.750 227.250 162.042 227.207 C 156.152 227.184,151.333 227.214,151.333 227.274 M231.750 227.566 C 229.977 228.127,228.839 229.027,228.161 230.403 L 227.644 231.453 227.697 235.351 C 227.757 239.730,227.848 240.080,229.250 241.311 C 231.065 242.905,231.713 243.000,240.758 243.000 L 248.333 243.000 248.333 241.167 L 248.333 239.333 240.825 239.333 C 231.160 239.333,232.130 239.837,232.203 234.851 L 232.250 231.619 232.720 231.268 C 233.178 230.926,233.374 230.915,239.960 230.870 L 246.729 230.822 247.531 231.321 L 248.333 231.820 248.333 229.576 L 248.333 227.333 240.375 227.344 C 234.447 227.353,232.247 227.409,231.750 227.566 " stroke="none" fill="#e41c34" fill-rule="evenodd"></path><path id="path1" d="M190.417 100.100 C 181.752 100.298,169.517 100.763,164.500 101.084 C 154.149 101.747,150.971 101.979,143.833 102.593 C 135.243 103.330,125.131 104.397,116.583 105.465 L 112.917 105.924 112.874 125.824 C 112.851 136.769,112.859 145.692,112.891 145.653 C 112.940 145.595,122.861 131.465,122.903 131.394 C 122.950 131.314,133.449 130.176,138.750 129.676 C 151.973 128.429,174.718 127.010,181.625 127.001 L 182.500 127.000 182.500 136.799 L 182.500 146.597 200.000 146.597 L 217.500 146.597 217.500 136.775 L 217.500 126.953 220.625 127.064 C 232.899 127.501,247.002 128.366,257.750 129.341 C 265.563 130.050,276.734 131.253,276.994 131.413 C 277.055 131.450,279.350 134.678,282.094 138.586 L 287.083 145.691 287.126 125.897 C 287.155 111.974,287.115 106.071,286.990 105.994 C 286.615 105.762,271.433 104.011,261.833 103.092 C 238.842 100.891,209.527 99.663,190.417 100.100 M189.000 212.165 C 185.654 212.232,182.823 212.298,182.709 212.310 C 182.543 212.329,182.492 221.008,182.459 254.789 L 182.417 297.244 176.635 301.997 C 173.456 304.611,170.853 306.787,170.851 306.833 C 170.848 306.920,171.632 307.302,176.583 309.622 C 185.281 313.696,199.091 319.137,200.257 318.948 C 201.746 318.706,213.849 313.986,219.667 311.378 C 224.125 309.379,229.178 306.948,229.129 306.825 C 229.104 306.760,226.477 304.544,223.292 301.901 L 217.500 297.095 217.500 254.734 L 217.500 212.373 215.792 212.273 C 212.935 212.104,195.469 212.034,189.000 212.165 M83.583 222.827 C 73.194 224.966,63.455 227.285,63.875 227.520 C 64.185 227.694,88.789 237.507,89.208 237.624 C 89.483 237.701,89.500 237.244,89.500 229.686 C 89.500 223.374,89.456 221.670,89.292 221.681 C 89.177 221.689,86.608 222.204,83.583 222.827 M310.500 229.659 C 310.500 234.871,310.558 237.667,310.666 237.667 C 310.835 237.667,335.723 227.743,336.150 227.505 C 336.634 227.236,318.108 222.983,311.125 221.761 L 310.500 221.652 310.500 229.659 M113.005 246.293 C 112.994 246.724,113.516 249.915,113.849 251.451 C 116.460 263.501,125.400 276.054,139.361 287.271 C 140.431 288.130,141.350 288.833,141.405 288.833 C 141.459 288.833,141.484 285.665,141.460 281.792 L 141.417 274.750 139.750 273.512 C 129.593 265.970,120.530 256.932,114.781 248.611 C 112.982 246.007,113.012 246.045,113.005 246.293 M286.250 247.207 C 281.051 255.287,270.575 265.925,260.401 273.455 L 258.667 274.739 258.667 281.796 C 258.667 287.397,258.710 288.827,258.875 288.729 C 260.300 287.879,266.046 282.819,269.337 279.515 C 279.332 269.480,285.076 259.285,286.750 248.605 C 287.138 246.132,287.068 245.936,286.250 247.207 " stroke="none" fill="#445464" fill-rule="evenodd"></path><path id="path2" d="M189.709 7.341 L 179.667 14.667 172.750 14.667 C 168.946 14.667,165.833 14.713,165.833 14.770 C 165.833 14.827,166.398 16.600,167.087 18.711 C 167.777 20.821,168.320 22.565,168.295 22.586 C 168.270 22.607,166.787 21.549,165.000 20.234 C 161.237 17.467,161.479 17.557,161.099 18.792 C 160.936 19.319,159.977 22.280,158.966 25.372 L 157.129 30.994 147.189 38.191 C 141.723 42.149,137.193 45.436,137.123 45.496 C 137.054 45.555,138.275 49.677,139.838 54.657 C 141.401 59.636,142.658 63.730,142.631 63.754 C 142.605 63.778,141.271 63.922,139.667 64.074 C 123.675 65.586,104.685 67.951,92.417 69.958 L 89.583 70.421 89.541 113.033 C 89.502 153.433,89.484 155.649,89.208 155.729 C 89.048 155.775,87.679 156.046,86.167 156.331 C 75.309 158.375,56.210 162.902,55.516 163.595 C 55.476 163.635,56.510 167.539,57.813 172.270 C 59.117 177.001,60.154 180.901,60.119 180.937 C 60.084 180.972,58.861 181.228,57.403 181.507 C 53.195 182.310,43.859 184.164,42.625 184.441 L 41.500 184.693 41.500 190.485 L 41.500 196.277 29.078 209.499 C 22.246 216.770,16.683 222.800,16.716 222.898 C 16.749 222.996,22.338 227.015,29.136 231.829 L 41.498 240.583 41.499 247.720 C 41.500 254.438,41.517 254.851,41.792 254.768 C 42.598 254.527,57.282 252.030,65.417 250.750 C 71.670 249.767,89.210 247.167,89.590 247.167 C 89.609 247.167,89.675 247.785,89.738 248.542 C 92.443 281.056,122.141 311.223,172.750 332.866 C 182.116 336.871,198.208 342.667,199.962 342.667 C 201.269 342.667,213.883 338.317,221.583 335.212 C 275.209 313.583,306.828 282.934,310.180 249.332 C 310.295 248.187,310.402 247.230,310.418 247.206 C 310.621 246.913,356.008 254.093,358.208 254.767 C 358.483 254.851,358.500 254.438,358.505 247.720 L 358.510 240.583 370.866 231.833 C 377.662 227.021,383.250 223.001,383.283 222.901 C 383.316 222.801,377.754 216.764,370.922 209.487 L 358.500 196.255 358.500 190.464 L 358.500 184.673 358.125 184.587 C 356.727 184.265,350.484 183.014,345.657 182.089 C 342.511 181.485,339.908 180.963,339.873 180.929 C 339.827 180.883,343.976 165.837,344.591 163.820 C 344.784 163.185,329.476 159.381,316.750 156.900 C 313.633 156.292,310.990 155.769,310.875 155.736 C 310.709 155.689,310.667 147.017,310.667 113.092 L 310.667 70.506 310.292 70.422 C 308.928 70.114,300.474 68.836,293.083 67.820 C 282.781 66.404,268.711 64.807,258.615 63.908 C 257.622 63.820,257.334 63.739,257.400 63.567 C 258.012 61.973,262.988 45.592,262.887 45.503 C 262.812 45.436,258.400 42.247,253.083 38.417 C 247.767 34.587,243.269 31.314,243.087 31.143 C 242.876 30.944,242.008 28.519,240.668 24.387 C 239.518 20.843,238.504 17.919,238.414 17.890 C 238.324 17.862,236.787 18.915,235.000 20.231 C 233.213 21.547,231.726 22.603,231.697 22.578 C 231.667 22.553,232.211 20.794,232.905 18.670 C 233.599 16.546,234.167 14.776,234.167 14.737 C 234.167 14.699,231.054 14.667,227.249 14.667 L 220.332 14.667 210.250 7.333 C 204.705 3.300,200.074 0.003,199.959 0.008 C 199.844 0.012,195.231 3.312,189.709 7.341 M209.206 13.333 L 218.379 20.000 222.541 20.000 C 225.840 20.000,226.685 20.044,226.621 20.212 C 226.520 20.475,221.910 34.726,221.501 36.040 L 221.202 36.997 221.726 36.627 C 222.014 36.424,225.175 34.128,228.750 31.525 C 232.325 28.922,235.339 26.758,235.449 26.715 C 235.580 26.665,236.078 27.972,236.913 30.556 L 238.179 34.474 247.340 41.082 C 252.378 44.716,256.500 47.770,256.500 47.869 C 256.500 47.967,255.075 52.631,253.333 58.232 C 251.591 63.834,250.166 68.492,250.166 68.583 C 250.167 68.682,252.493 68.942,255.867 69.220 C 271.189 70.483,293.252 73.065,303.958 74.848 L 305.167 75.049 305.167 80.361 L 305.167 85.673 304.792 85.586 C 304.089 85.422,296.764 84.345,291.833 83.681 C 270.928 80.867,248.061 78.834,226.817 77.903 L 220.552 77.628 213.901 82.448 C 210.243 85.098,205.618 88.450,203.623 89.897 L 199.996 92.527 198.207 91.224 C 197.222 90.508,192.629 87.157,188.000 83.778 L 179.583 77.633 177.000 77.741 C 149.286 78.897,120.421 81.626,96.960 85.308 C 95.884 85.477,94.966 85.577,94.919 85.530 C 94.775 85.386,94.824 75.192,94.969 75.103 C 96.259 74.305,132.547 70.052,147.215 68.980 C 149.067 68.844,149.990 68.714,149.946 68.596 C 149.281 66.834,143.505 47.764,143.607 47.669 C 143.686 47.596,147.688 44.704,152.500 41.242 C 162.543 34.017,161.889 34.533,162.155 33.619 C 162.842 31.254,164.366 26.667,164.465 26.667 C 164.530 26.667,167.771 28.981,171.667 31.809 C 175.563 34.637,178.772 36.934,178.799 36.913 C 178.826 36.892,177.607 33.107,176.091 28.502 C 174.574 23.897,173.333 20.100,173.333 20.065 C 173.333 20.029,175.199 20.000,177.479 20.000 L 181.624 20.000 190.770 13.339 C 195.801 9.676,199.943 6.676,199.975 6.673 C 200.007 6.669,204.161 9.667,209.206 13.333 M193.563 24.261 C 190.091 26.788,187.260 28.959,187.272 29.085 C 187.284 29.212,188.367 32.620,189.679 36.658 L 192.064 44.000 199.999 44.000 L 207.934 44.000 210.323 36.639 C 211.637 32.591,212.721 29.183,212.731 29.066 C 212.748 28.877,200.259 19.667,199.986 19.667 C 199.926 19.667,197.036 21.734,193.563 24.261 M162.250 47.010 C 158.858 49.481,156.015 51.605,155.931 51.731 C 155.827 51.885,156.602 54.505,158.347 59.896 L 160.917 67.833 161.833 67.825 C 164.242 67.805,176.182 67.050,176.314 66.909 C 176.482 66.731,181.385 51.828,181.303 51.749 C 181.041 51.496,168.601 42.502,168.522 42.508 C 168.464 42.513,165.642 44.539,162.250 47.010 M225.225 47.019 C 221.847 49.504,219.014 51.603,218.928 51.682 C 218.656 51.936,223.515 66.849,223.916 66.991 C 224.280 67.121,238.973 67.918,239.071 67.814 C 239.158 67.720,244.334 51.777,244.289 51.742 C 243.314 51.003,231.499 42.500,231.446 42.500 C 231.403 42.500,228.603 44.534,225.225 47.019 M192.000 55.410 C 192.000 55.453,190.909 58.837,189.576 62.931 C 188.243 67.025,187.174 70.393,187.201 70.417 C 187.736 70.879,199.870 79.500,199.986 79.500 C 200.099 79.500,212.038 71.036,212.795 70.419 C 212.820 70.399,211.737 66.996,210.390 62.858 L 207.940 55.333 199.970 55.333 C 195.586 55.333,192.000 55.368,192.000 55.410 M185.188 88.415 C 191.622 93.127,192.641 93.930,192.307 94.024 C 192.092 94.084,190.567 94.142,188.917 94.152 C 169.312 94.271,139.359 96.521,113.216 99.838 C 109.623 100.294,106.641 100.667,106.591 100.667 C 106.541 100.667,106.500 112.437,106.500 126.822 C 106.500 151.589,106.485 152.982,106.208 153.062 C 106.048 153.108,104.867 153.306,103.583 153.501 C 102.300 153.696,99.926 154.076,98.308 154.344 C 96.690 154.613,95.246 154.833,95.099 154.833 C 94.742 154.833,94.684 90.876,95.042 90.748 C 95.156 90.707,96.487 90.488,98.000 90.262 C 116.845 87.442,137.210 85.285,157.833 83.924 C 163.921 83.522,176.847 82.847,177.464 82.899 C 177.582 82.909,181.058 85.391,185.188 88.415 M226.333 83.077 C 246.819 83.728,292.471 88.145,304.469 90.637 L 305.083 90.765 305.125 122.799 C 305.158 147.690,305.123 154.833,304.967 154.833 C 304.856 154.833,302.700 154.501,300.175 154.095 C 297.649 153.689,295.171 153.295,294.667 153.219 L 293.750 153.080 293.708 126.873 C 293.674 106.077,293.623 100.666,293.458 100.665 C 293.344 100.664,291.600 100.444,289.583 100.176 C 264.812 96.878,236.321 94.630,214.167 94.225 C 210.821 94.163,207.919 94.069,207.718 94.015 C 207.209 93.878,222.349 82.799,222.895 82.908 C 223.090 82.948,224.637 83.024,226.333 83.077 M214.417 100.167 C 237.992 100.806,262.834 102.723,284.958 105.609 L 287.167 105.897 287.167 125.902 L 287.167 145.908 286.292 144.653 C 285.810 143.963,283.517 140.696,281.196 137.392 L 276.975 131.386 275.196 131.187 C 257.517 129.211,243.211 128.076,227.750 127.425 C 224.542 127.290,220.961 127.139,219.793 127.089 L 217.669 126.999 217.626 136.841 L 217.583 146.682 200.042 146.716 L 182.500 146.750 182.500 136.859 L 182.500 126.969 180.958 127.064 C 180.110 127.116,178.067 127.202,176.417 127.255 C 162.054 127.711,142.790 129.161,126.362 131.023 L 122.974 131.407 118.054 138.412 C 115.348 142.264,113.028 145.527,112.900 145.661 C 112.698 145.872,112.671 143.090,112.708 125.911 L 112.750 105.917 116.250 105.466 C 138.845 102.560,164.037 100.671,187.667 100.112 C 192.753 99.991,209.192 100.025,214.417 100.167 M141.500 141.823 L 141.500 148.980 140.792 149.070 C 140.402 149.119,139.108 149.241,137.917 149.341 C 135.402 149.551,127.056 150.399,124.107 150.744 C 122.994 150.874,121.071 151.100,119.833 151.245 C 118.596 151.390,117.415 151.546,117.208 151.591 C 116.584 151.728,116.635 151.656,122.801 143.657 L 128.768 135.917 130.176 135.777 C 130.950 135.700,133.683 135.428,136.250 135.172 C 138.817 134.916,141.048 134.698,141.208 134.687 C 141.482 134.668,141.500 135.111,141.500 141.823 M265.948 135.392 L 271.312 135.917 277.320 143.739 C 280.624 148.041,283.310 151.574,283.289 151.591 C 283.268 151.607,282.425 151.518,281.417 151.392 C 277.366 150.887,267.526 149.823,263.917 149.501 C 261.808 149.313,259.765 149.118,259.375 149.069 L 258.667 148.980 258.667 141.826 L 258.667 134.672 259.625 134.769 C 260.152 134.823,262.997 135.103,265.948 135.392 M213.917 152.086 C 251.662 152.613,294.091 157.318,326.000 164.517 C 331.201 165.691,337.517 167.284,337.702 167.469 C 337.774 167.541,336.329 173.071,334.492 179.758 L 331.151 191.917 334.435 206.667 C 336.241 214.779,337.750 221.572,337.790 221.762 C 337.857 222.086,337.566 222.034,333.050 220.904 C 270.035 205.137,177.446 202.257,103.417 213.763 C 88.469 216.086,66.176 220.618,62.439 222.094 C 62.188 222.193,62.146 222.156,62.221 221.900 C 62.272 221.726,63.790 214.917,65.594 206.769 L 68.873 191.955 65.614 180.019 C 63.822 173.454,62.331 167.942,62.303 167.768 C 62.239 167.390,62.709 167.240,68.086 165.915 C 101.246 157.747,146.177 152.608,189.667 152.009 C 198.162 151.892,200.557 151.900,213.917 152.086 M188.581 164.464 C 186.207 165.293,184.687 166.901,184.060 169.250 C 183.666 170.726,183.741 185.506,184.149 186.818 C 184.775 188.829,185.991 190.213,187.928 191.120 L 188.917 191.583 198.333 191.583 L 207.750 191.583 208.738 191.120 C 210.676 190.213,211.892 188.829,212.518 186.818 C 212.926 185.506,213.001 170.726,212.607 169.250 C 212.072 167.247,210.758 165.675,208.873 164.782 L 207.750 164.250 198.583 164.211 C 190.220 164.175,189.343 164.198,188.581 164.464 M218.963 165.546 L 220.000 166.592 220.000 178.250 L 220.000 189.908 218.982 190.935 L 217.964 191.962 221.440 192.064 C 223.352 192.121,225.581 192.200,226.392 192.240 L 227.867 192.314 227.565 191.949 C 227.398 191.748,226.903 191.205,226.463 190.743 L 225.664 189.903 225.707 181.061 L 225.750 172.220 233.732 182.610 C 238.123 188.324,241.798 193.002,241.899 193.004 C 242.000 193.006,243.696 193.116,245.667 193.250 C 247.637 193.384,249.698 193.494,250.246 193.496 L 251.241 193.500 250.121 192.371 L 249.000 191.242 249.000 179.746 L 249.000 168.250 250.096 167.270 C 251.477 166.035,251.572 166.085,247.417 165.852 C 245.492 165.744,243.317 165.610,242.583 165.554 L 241.250 165.453 242.375 166.627 L 243.500 167.801 243.500 176.664 C 243.500 181.990,243.439 185.506,243.347 185.472 C 243.262 185.442,239.629 180.760,235.272 175.068 L 227.351 164.720 224.065 164.610 C 222.258 164.550,220.138 164.500,219.353 164.500 L 217.926 164.500 218.963 165.546 M157.517 165.639 L 145.451 166.417 146.559 167.453 L 147.667 168.489 147.667 180.009 L 147.667 191.529 146.663 192.640 C 145.437 193.996,145.145 193.929,150.466 193.509 C 152.850 193.321,154.936 193.167,155.104 193.167 C 155.318 193.167,155.074 192.830,154.283 192.033 L 153.159 190.900 153.204 187.908 L 153.250 184.917 161.417 184.455 C 171.957 183.860,171.000 183.552,171.000 187.537 L 171.000 190.242 169.875 191.386 L 168.750 192.531 169.917 192.437 C 170.558 192.385,172.133 192.302,173.417 192.251 C 174.700 192.201,176.451 192.114,177.308 192.059 L 178.865 191.958 177.783 190.981 L 176.700 190.003 176.634 187.127 C 176.550 183.471,176.036 182.287,174.104 181.301 L 173.435 180.960 173.924 180.605 C 175.040 179.795,175.521 179.247,176.038 178.197 L 176.583 177.090 176.579 173.503 C 176.573 168.935,176.085 167.564,173.946 166.100 C 171.922 164.714,171.878 164.713,157.517 165.639 M256.333 170.293 L 256.333 174.029 257.429 173.050 L 258.524 172.071 263.054 172.544 C 265.545 172.805,267.677 173.049,267.792 173.087 C 267.955 173.141,268.000 175.279,268.000 183.029 L 268.000 192.902 266.958 193.850 C 266.385 194.371,265.954 194.830,266.000 194.870 C 266.106 194.964,275.555 196.000,275.629 195.927 C 275.659 195.897,275.231 195.357,274.678 194.728 L 273.672 193.583 273.670 183.658 L 273.667 173.733 278.375 174.205 L 283.083 174.677 284.200 175.880 L 285.317 177.083 285.325 173.385 L 285.333 169.687 284.625 169.589 C 284.235 169.535,277.917 168.857,270.583 168.084 C 263.250 167.310,257.044 166.650,256.792 166.617 L 256.333 166.558 256.333 170.293 M125.833 168.329 C 116.096 169.397,115.982 169.426,113.978 171.301 C 111.533 173.588,111.477 173.880,111.536 184.105 L 111.583 192.417 112.047 193.360 C 113.767 196.864,114.814 197.051,126.000 195.843 C 135.774 194.788,136.125 194.697,138.106 192.719 C 140.263 190.565,140.497 189.357,140.497 180.417 C 140.497 171.714,140.356 170.856,138.644 169.144 C 136.796 167.296,135.819 167.234,125.833 168.329 M206.758 169.909 L 207.167 170.318 207.167 177.917 L 207.167 185.515 206.758 185.924 L 206.348 186.333 198.333 186.333 L 190.318 186.333 189.909 185.924 L 189.500 185.515 189.500 177.917 L 189.500 170.318 189.909 169.909 L 190.318 169.500 198.333 169.500 L 206.348 169.500 206.758 169.909 M170.591 170.576 C 170.999 170.983,171.000 170.997,171.000 174.385 C 171.000 179.189,171.962 178.654,162.417 179.164 C 158.933 179.350,155.427 179.549,154.625 179.606 L 153.167 179.710 153.167 175.438 C 153.167 173.089,153.185 171.158,153.208 171.148 C 153.286 171.112,168.411 170.210,169.299 170.188 C 170.031 170.170,170.252 170.237,170.591 170.576 M91.796 173.399 C 84.029 174.795,77.634 175.977,77.584 176.027 C 77.534 176.077,77.514 177.756,77.538 179.758 L 77.583 183.398 78.632 182.151 L 79.681 180.904 82.799 180.355 C 84.514 180.053,86.648 179.673,87.542 179.509 L 89.167 179.212 89.164 189.148 L 89.162 199.083 88.170 200.250 C 86.936 201.699,86.652 201.661,91.861 200.755 C 97.439 199.785,97.112 199.941,95.854 198.851 L 94.833 197.967 94.833 188.096 L 94.833 178.225 99.125 177.432 C 101.485 176.995,103.611 176.600,103.848 176.554 C 104.188 176.487,104.494 176.648,105.299 177.318 C 105.860 177.785,106.360 178.167,106.409 178.167 C 106.459 178.167,106.500 176.517,106.500 174.500 C 106.500 171.114,106.478 170.834,106.208 170.847 C 106.048 170.855,99.562 172.003,91.796 173.399 M294.167 171.489 C 292.714 171.933,291.269 173.212,290.610 174.637 C 290.113 175.712,289.956 191.024,290.425 192.638 C 291.218 195.364,293.366 197.648,295.937 198.498 C 297.729 199.091,312.588 201.534,313.926 201.456 C 316.057 201.332,317.758 200.207,318.648 198.333 L 319.083 197.417 319.131 189.348 C 319.190 179.452,319.099 178.911,316.980 176.593 C 315.026 174.455,314.497 174.284,304.860 172.669 C 297.149 171.378,295.227 171.166,294.167 171.489 M134.424 173.242 L 134.833 173.652 134.833 181.063 L 134.833 188.474 134.409 188.978 C 133.843 189.652,134.389 189.555,125.833 190.497 C 116.978 191.472,117.916 191.416,117.500 191.000 C 117.176 190.676,117.167 190.444,117.167 183.071 L 117.167 175.474 117.654 174.987 C 117.922 174.719,118.278 174.495,118.446 174.489 C 118.613 174.483,121.900 174.117,125.750 173.674 C 134.213 172.703,133.900 172.718,134.424 173.242 M304.728 177.935 C 312.870 179.340,312.988 179.371,313.388 180.213 C 313.732 180.938,313.817 194.655,313.482 195.390 C 313.052 196.333,313.233 196.352,299.297 193.915 C 295.550 193.260,295.833 194.003,295.833 184.818 L 295.833 177.485 296.242 177.076 C 296.784 176.534,296.348 176.490,304.728 177.935 M62.609 189.083 C 63.006 190.550,63.332 191.887,63.332 192.054 C 63.333 192.321,55.094 229.124,54.926 229.602 C 54.875 229.750,67.674 234.931,84.632 241.627 C 85.209 241.855,85.654 242.068,85.621 242.101 C 85.588 242.134,83.203 242.503,80.322 242.920 C 70.710 244.313,60.558 245.914,52.298 247.340 C 49.667 247.795,47.398 248.167,47.257 248.167 C 47.031 248.167,46.999 247.535,46.994 242.958 L 46.988 237.750 35.917 229.923 C 25.172 222.326,24.855 222.086,25.132 221.773 C 25.288 221.596,30.273 216.271,36.208 209.941 L 47.000 198.431 47.000 193.799 C 47.000 191.251,47.019 189.163,47.042 189.159 C 47.065 189.155,50.196 188.523,54.000 187.754 C 62.776 185.980,61.724 185.818,62.609 189.083 M345.589 187.664 C 349.253 188.395,352.419 189.034,352.625 189.083 L 353.000 189.173 353.008 193.795 L 353.017 198.417 364.081 210.167 C 370.167 216.629,375.129 221.983,375.107 222.064 C 375.086 222.144,370.122 225.711,364.076 229.990 L 353.083 237.769 353.039 242.968 C 353.015 245.827,352.937 248.167,352.866 248.167 C 352.795 248.167,348.952 247.534,344.327 246.760 C 335.167 245.227,329.192 244.291,320.347 243.003 C 314.333 242.126,314.214 242.102,314.852 241.856 C 318.227 240.556,344.788 229.924,344.888 229.833 C 344.964 229.764,343.151 221.235,340.859 210.881 L 336.692 192.055 337.457 189.194 C 338.142 186.632,338.259 186.333,338.575 186.333 C 338.770 186.333,341.926 186.932,345.589 187.664 M217.506 212.254 C 217.608 212.317,217.667 227.781,217.667 254.762 L 217.667 297.172 223.417 301.944 C 226.579 304.569,229.167 306.768,229.167 306.832 C 229.167 307.528,210.279 315.608,201.874 318.508 L 199.998 319.155 198.325 318.573 C 193.502 316.893,186.715 314.209,181.583 311.950 C 176.418 309.676,170.833 307.018,170.833 306.835 C 170.833 306.784,173.458 304.577,176.667 301.931 L 182.500 297.119 182.500 254.646 L 182.500 212.172 186.625 212.111 C 192.602 212.023,217.317 212.137,217.506 212.254 M141.500 240.083 C 141.500 254.063,141.455 265.500,141.401 265.500 C 141.064 265.500,136.275 261.662,133.167 258.903 C 122.208 249.172,115.087 239.098,113.090 230.500 C 112.891 229.646,112.838 228.194,112.836 223.633 L 112.833 217.848 113.375 217.757 C 115.655 217.371,126.957 216.039,133.167 215.426 C 140.111 214.739,140.394 214.713,140.958 214.689 L 141.500 214.667 141.500 240.083 M262.750 215.001 C 270.463 215.738,283.579 217.252,286.625 217.758 L 287.167 217.848 287.163 223.466 C 287.160 228.401,287.120 229.261,286.837 230.544 C 284.721 240.111,275.910 251.766,262.667 262.516 C 260.558 264.228,258.894 265.500,258.763 265.500 C 258.710 265.500,258.667 254.063,258.667 240.083 C 258.667 215.988,258.682 214.667,258.958 214.667 C 259.119 214.667,260.825 214.817,262.750 215.001 M106.500 232.135 C 106.500 251.026,107.047 254.470,111.534 263.838 C 122.546 286.831,155.332 309.882,196.949 323.891 L 199.981 324.912 201.949 324.269 C 243.157 310.794,276.541 287.659,288.160 264.524 C 292.945 254.997,293.655 250.618,293.662 230.568 L 293.667 218.720 298.875 219.604 C 301.740 220.090,304.327 220.532,304.625 220.585 L 305.167 220.682 305.167 232.483 C 305.167 252.162,304.192 257.808,298.908 268.750 C 286.095 295.281,249.700 320.895,203.458 335.926 L 200.000 337.050 196.542 335.926 C 173.127 328.315,149.067 316.317,132.500 303.991 C 108.762 286.330,96.356 267.061,95.004 245.750 C 94.810 242.690,94.770 220.672,94.958 220.657 C 95.027 220.652,97.596 220.217,100.667 219.691 C 103.737 219.164,106.306 218.761,106.375 218.793 C 106.444 218.826,106.500 224.830,106.500 232.135 M89.500 229.752 L 89.500 237.838 88.958 237.613 C 88.660 237.489,82.806 235.155,75.948 232.426 C 69.091 229.697,63.505 227.439,63.536 227.409 C 63.900 227.044,87.770 221.712,89.208 221.674 C 89.482 221.667,89.500 222.160,89.500 229.752 M315.206 222.511 C 322.459 223.966,334.804 226.785,336.160 227.295 C 336.537 227.437,328.926 230.566,311.319 237.505 L 310.500 237.828 310.500 229.748 C 310.500 222.711,310.532 221.667,310.748 221.667 C 310.884 221.667,312.890 222.047,315.206 222.511 M172.833 229.500 C 172.833 230.783,172.777 231.831,172.708 231.828 C 172.640 231.825,172.283 231.638,171.917 231.412 L 171.250 231.002 164.208 231.001 L 157.167 231.000 157.167 232.167 L 157.167 233.333 163.167 233.333 L 169.167 233.333 169.167 235.167 L 169.167 237.000 163.167 237.000 L 157.167 237.000 157.167 239.404 L 157.167 241.807 157.863 242.404 L 158.560 243.000 154.836 243.000 L 151.111 243.000 151.764 242.424 C 152.123 242.107,152.473 241.844,152.542 241.840 C 152.610 241.836,152.667 238.856,152.667 235.217 L 152.667 228.601 151.875 227.891 L 151.083 227.182 161.958 227.174 L 172.833 227.167 172.833 229.500 M248.500 229.500 C 248.500 230.783,248.444 231.831,248.375 231.828 C 248.306 231.825,247.950 231.638,247.583 231.412 L 246.917 231.002 240.117 231.001 C 231.311 231.000,232.167 230.544,232.167 235.235 L 232.167 238.442 232.597 238.846 L 233.027 239.250 240.763 239.298 L 248.500 239.346 248.500 241.173 L 248.500 243.000 240.598 243.000 C 231.798 243.000,231.520 242.970,229.852 241.828 C 227.911 240.499,227.667 239.738,227.667 235.008 C 227.667 230.702,227.800 230.171,229.198 228.908 C 230.985 227.294,231.571 227.207,240.792 227.185 L 248.500 227.167 248.500 229.500 M116.635 251.068 C 122.575 258.912,130.936 266.985,140.042 273.665 L 141.500 274.735 141.500 281.877 L 141.500 289.019 140.292 288.078 C 125.025 276.193,115.649 262.626,113.331 249.068 C 112.756 245.707,112.794 245.646,114.192 247.681 C 114.848 248.636,115.947 250.160,116.635 251.068 M287.065 246.792 C 285.346 261.046,276.697 274.377,260.782 287.301 L 258.667 289.019 258.667 281.868 L 258.667 274.717 261.215 272.784 C 271.179 265.228,279.420 256.885,285.491 248.208 C 287.257 245.685,287.191 245.744,287.065 246.792 M148.979 279.893 C 156.849 284.926,172.273 292.974,176.792 294.404 C 177.397 294.595,177.403 294.589,171.708 299.337 C 168.706 301.839,166.126 303.992,165.974 304.122 C 165.492 304.532,151.362 296.268,147.208 293.147 L 146.333 292.489 146.333 285.411 C 146.333 281.518,146.380 278.333,146.437 278.333 C 146.495 278.333,147.638 279.035,148.979 279.893 M253.667 285.388 L 253.667 292.442 253.292 292.788 C 252.139 293.852,242.224 299.989,236.955 302.900 C 234.358 304.335,234.322 304.348,233.950 304.051 C 232.219 302.666,222.833 294.754,222.834 294.679 C 222.834 294.626,223.191 294.440,223.626 294.264 C 231.236 291.196,243.184 284.940,250.833 280.017 C 252.254 279.103,253.473 278.350,253.542 278.344 C 253.610 278.338,253.667 281.508,253.667 285.388 " stroke="none" fill="#fbfbfb" fill-rule="evenodd"></path><path id="path3" d="M190.125 100.123 C 190.606 100.157,191.394 100.157,191.875 100.123 C 192.356 100.089,191.963 100.062,191.000 100.062 C 190.037 100.062,189.644 100.089,190.125 100.123 M208.125 100.123 C 208.606 100.157,209.394 100.157,209.875 100.123 C 210.356 100.089,209.963 100.062,209.000 100.062 C 208.037 100.062,207.644 100.089,208.125 100.123 M182.958 100.287 C 183.256 100.324,183.744 100.324,184.042 100.287 C 184.340 100.250,184.096 100.220,183.500 100.220 C 182.904 100.220,182.660 100.250,182.958 100.287 M215.958 100.287 C 216.256 100.324,216.744 100.324,217.042 100.287 C 217.340 100.250,217.096 100.220,216.500 100.220 C 215.904 100.220,215.660 100.250,215.958 100.287 M177.877 100.453 C 178.131 100.491,178.506 100.490,178.711 100.451 C 178.916 100.411,178.708 100.380,178.250 100.381 C 177.792 100.382,177.624 100.415,177.877 100.453 M221.377 100.453 C 221.631 100.491,222.006 100.490,222.211 100.451 C 222.416 100.411,222.208 100.380,221.750 100.381 C 221.292 100.382,221.124 100.415,221.377 100.453 M173.625 100.618 C 173.831 100.657,174.169 100.657,174.375 100.618 C 174.581 100.578,174.412 100.545,174.000 100.545 C 173.588 100.545,173.419 100.578,173.625 100.618 M225.625 100.618 C 225.831 100.657,226.169 100.657,226.375 100.618 C 226.581 100.578,226.412 100.545,226.000 100.545 C 225.588 100.545,225.419 100.578,225.625 100.618 M170.294 100.785 C 170.501 100.824,170.801 100.823,170.960 100.781 C 171.120 100.739,170.950 100.707,170.583 100.709 C 170.217 100.711,170.086 100.745,170.294 100.785 M229.292 100.784 C 229.498 100.824,229.835 100.824,230.042 100.784 C 230.248 100.745,230.079 100.712,229.667 100.712 C 229.254 100.712,229.085 100.745,229.292 100.784 M166.708 100.948 C 166.869 100.990,167.131 100.990,167.292 100.948 C 167.452 100.906,167.321 100.872,167.000 100.872 C 166.679 100.872,166.548 100.906,166.708 100.948 M232.542 100.948 C 232.702 100.990,232.965 100.990,233.125 100.948 C 233.285 100.906,233.154 100.872,232.833 100.872 C 232.512 100.872,232.381 100.906,232.542 100.948 M238.375 101.282 C 238.535 101.323,238.798 101.323,238.958 101.282 C 239.119 101.240,238.987 101.205,238.667 101.205 C 238.346 101.205,238.215 101.240,238.375 101.282 M112.744 106.042 C 112.700 106.156,112.684 115.175,112.707 126.083 L 112.750 145.917 112.833 125.875 C 112.879 114.852,112.896 105.833,112.870 105.833 C 112.844 105.833,112.787 105.927,112.744 106.042 M179.628 127.121 C 179.928 127.158,180.378 127.157,180.628 127.119 C 180.878 127.081,180.633 127.051,180.083 127.052 C 179.533 127.053,179.328 127.084,179.628 127.121 M217.540 136.783 L 217.500 146.649 216.625 146.710 L 215.750 146.772 216.630 146.803 C 217.773 146.843,217.676 147.829,217.625 136.667 L 217.581 126.917 217.540 136.783 M219.628 127.121 C 219.928 127.158,220.378 127.157,220.628 127.119 C 220.878 127.081,220.633 127.051,220.083 127.052 C 219.533 127.053,219.328 127.084,219.628 127.121 M175.044 127.286 C 175.297 127.325,175.672 127.324,175.877 127.284 C 176.082 127.244,175.875 127.213,175.417 127.214 C 174.958 127.216,174.791 127.248,175.044 127.286 M224.377 127.286 C 224.631 127.325,225.006 127.324,225.211 127.284 C 225.416 127.244,225.208 127.213,224.750 127.214 C 224.292 127.216,224.124 127.248,224.377 127.286 M171.127 127.451 C 171.334 127.491,171.634 127.490,171.794 127.448 C 171.953 127.406,171.783 127.374,171.417 127.375 C 171.050 127.377,170.920 127.411,171.127 127.451 M228.292 127.451 C 228.498 127.491,228.835 127.491,229.042 127.451 C 229.248 127.411,229.079 127.379,228.667 127.379 C 228.254 127.379,228.085 127.411,228.292 127.451 M167.794 127.618 C 168.001 127.658,168.301 127.656,168.460 127.615 C 168.620 127.573,168.450 127.540,168.083 127.542 C 167.717 127.544,167.586 127.578,167.794 127.618 M231.960 127.618 C 232.168 127.658,232.468 127.656,232.627 127.615 C 232.786 127.573,232.617 127.540,232.250 127.542 C 231.883 127.544,231.753 127.578,231.960 127.618 M164.542 127.782 C 164.702 127.823,164.965 127.823,165.125 127.782 C 165.285 127.740,165.154 127.705,164.833 127.705 C 164.512 127.705,164.381 127.740,164.542 127.782 M237.875 127.948 C 238.035 127.990,238.298 127.990,238.458 127.948 C 238.619 127.906,238.487 127.872,238.167 127.872 C 237.846 127.872,237.715 127.906,237.875 127.948 M240.542 128.115 C 240.702 128.157,240.965 128.157,241.125 128.115 C 241.285 128.073,241.154 128.039,240.833 128.039 C 240.512 128.039,240.381 128.073,240.542 128.115 M136.250 135.172 C 133.683 135.428,130.950 135.700,130.176 135.777 L 128.768 135.917 122.801 143.657 C 116.635 151.656,116.584 151.728,117.208 151.591 C 117.415 151.546,118.596 151.390,119.833 151.245 C 121.071 151.100,122.994 150.874,124.107 150.744 C 127.056 150.399,135.402 149.551,137.917 149.341 C 139.108 149.241,140.402 149.119,140.792 149.070 L 141.500 148.980 141.500 141.823 C 141.500 135.111,141.482 134.668,141.208 134.687 C 141.048 134.698,138.817 134.916,136.250 135.172 M258.667 141.826 L 258.667 148.980 259.375 149.069 C 259.765 149.118,261.808 149.313,263.917 149.501 C 267.526 149.823,277.366 150.887,281.417 151.392 C 282.425 151.518,283.268 151.607,283.289 151.591 C 283.310 151.574,280.624 148.041,277.320 143.739 L 271.312 135.917 265.948 135.392 C 262.997 135.103,260.152 134.823,259.625 134.769 L 258.667 134.672 258.667 141.826 M196.292 146.625 C 198.331 146.651,201.669 146.651,203.708 146.625 C 205.748 146.598,204.079 146.577,200.000 146.577 C 195.921 146.577,194.252 146.598,196.292 146.625 M182.961 146.787 C 183.261 146.825,183.711 146.824,183.961 146.786 C 184.212 146.748,183.967 146.717,183.417 146.718 C 182.867 146.719,182.662 146.750,182.961 146.787 M251.000 180.133 L 251.000 190.766 251.667 191.417 L 252.333 192.068 252.333 181.878 L 252.333 171.687 253.418 170.719 C 254.684 169.589,254.653 169.556,252.292 169.520 L 251.000 169.500 251.000 180.133 M214.797 177.738 C 214.835 183.994,214.799 185.520,214.590 186.529 C 213.954 189.597,211.897 191.967,208.836 193.159 L 207.750 193.582 198.842 193.633 L 189.934 193.683 190.425 194.011 C 191.828 194.945,192.401 195.000,200.816 195.000 C 207.257 195.000,208.768 194.956,209.590 194.745 C 212.902 193.895,215.415 191.181,215.999 187.824 C 216.382 185.626,216.148 172.919,215.704 171.833 C 214.735 169.461,214.745 169.392,214.797 177.738 M178.502 173.583 C 178.495 177.414,178.210 178.645,176.916 180.429 C 176.687 180.745,176.698 180.805,177.052 181.137 L 177.439 181.501 178.129 180.910 C 180.287 179.063,180.698 173.201,178.835 170.833 L 178.507 170.417 178.502 173.583 M191.765 171.846 L 191.333 172.359 191.333 178.429 L 191.333 184.500 191.991 184.500 L 192.650 184.500 192.700 179.101 C 192.766 172.011,192.023 172.669,199.958 172.668 L 205.333 172.667 205.333 172.000 L 205.333 171.333 198.765 171.333 L 192.196 171.333 191.765 171.846 M161.750 172.593 C 158.358 172.802,155.490 172.980,155.375 172.987 C 155.219 172.997,155.167 173.589,155.167 175.354 L 155.167 177.708 155.688 177.604 C 155.974 177.547,156.271 177.500,156.348 177.500 C 156.425 177.500,156.509 176.769,156.536 175.875 L 156.583 174.250 162.333 173.886 C 165.496 173.686,168.327 173.517,168.625 173.511 C 169.144 173.500,169.167 173.472,169.167 172.833 C 169.167 172.170,169.164 172.167,168.542 172.189 C 168.198 172.202,165.142 172.383,161.750 172.593 M142.333 180.144 C 142.333 184.556,142.263 188.167,142.166 188.686 C 141.623 191.598,139.589 194.388,137.047 195.706 C 134.959 196.789,135.324 196.729,122.583 198.084 C 120.383 198.318,118.321 198.558,118.000 198.616 L 117.417 198.723 118.328 199.124 C 118.839 199.349,119.718 199.564,120.328 199.612 C 121.752 199.726,135.414 198.119,136.884 197.665 C 139.713 196.790,142.106 194.449,143.187 191.500 L 143.583 190.417 143.583 182.583 L 143.583 174.750 143.050 173.625 C 142.757 173.006,142.476 172.500,142.425 172.500 C 142.375 172.500,142.333 175.940,142.333 180.144 M287.172 176.208 L 287.177 179.250 287.833 180.000 L 288.490 180.750 288.495 177.063 L 288.500 173.375 287.979 173.271 C 287.693 173.214,287.393 173.167,287.313 173.167 C 287.232 173.167,287.169 174.535,287.172 176.208 M109.042 173.686 L 108.500 173.843 108.504 176.963 L 108.507 180.083 109.170 180.552 L 109.833 181.022 109.833 177.261 C 109.833 175.192,109.777 173.507,109.708 173.515 C 109.640 173.523,109.340 173.600,109.042 173.686 M259.667 175.882 L 259.667 177.695 260.708 176.747 L 261.750 175.800 263.000 175.907 C 263.688 175.966,264.649 176.059,265.136 176.115 L 266.022 176.215 265.969 175.483 L 265.917 174.750 262.792 174.410 L 259.667 174.070 259.667 175.882 M126.167 175.522 C 118.148 176.425,119.000 175.488,119.000 183.408 L 119.000 189.333 119.403 189.333 C 120.378 189.333,120.333 189.598,120.333 183.828 L 120.333 178.526 120.750 178.031 C 121.283 177.397,121.075 177.437,126.833 176.842 C 133.575 176.145,133.000 176.272,133.000 175.485 C 133.000 174.683,133.639 174.679,126.167 175.522 M275.500 184.503 L 275.500 193.099 276.167 193.750 L 276.833 194.401 276.833 185.960 C 276.833 181.318,276.890 177.486,276.958 177.444 C 277.027 177.402,278.396 177.513,280.000 177.690 C 283.733 178.101,283.713 178.105,282.895 177.220 L 282.250 176.524 278.875 176.215 L 275.500 175.906 275.500 184.503 M227.667 183.532 L 227.667 189.290 228.326 190.020 L 228.986 190.750 228.993 185.155 L 229.000 179.560 228.333 178.667 L 227.667 177.773 227.667 183.532 M99.667 179.262 C 98.063 179.568,96.731 179.821,96.708 179.826 C 96.685 179.830,96.667 183.649,96.667 188.313 L 96.667 196.793 97.417 197.408 L 98.167 198.022 98.167 189.456 L 98.167 180.890 101.417 180.333 C 104.953 179.728,104.928 179.739,104.094 179.103 C 103.390 178.566,103.298 178.569,99.667 179.262 M298.478 179.035 C 298.241 179.114,297.962 179.367,297.857 179.597 C 297.573 180.222,297.589 191.654,297.875 191.741 C 297.990 191.776,298.327 191.847,298.625 191.898 L 299.167 191.992 299.167 186.681 C 299.167 180.762,299.197 180.597,300.264 180.629 C 300.724 180.643,310.494 182.252,311.292 182.445 C 311.638 182.529,311.667 182.479,311.667 181.798 L 311.667 181.060 310.458 180.866 C 309.794 180.760,306.923 180.272,304.078 179.782 C 300.433 179.155,298.780 178.934,298.478 179.035 M83.917 182.067 L 80.917 182.599 80.866 183.466 C 80.839 183.943,80.839 184.719,80.866 185.190 L 80.917 186.047 81.959 184.800 L 83.002 183.553 85.168 183.166 L 87.333 182.780 87.333 182.140 C 87.333 181.730,87.259 181.506,87.125 181.518 C 87.010 181.527,85.567 181.774,83.917 182.067 M321.168 189.200 C 321.166 199.332,320.847 200.534,317.643 202.451 C 315.150 203.944,315.498 203.968,299.634 201.159 C 296.308 200.570,296.364 200.573,296.758 201.009 C 297.835 202.199,311.225 205.167,315.520 205.167 C 318.151 205.167,320.593 203.623,321.789 201.204 L 322.417 199.935 322.465 192.279 C 322.517 183.957,322.480 183.562,321.500 182.083 L 321.169 181.583 321.168 189.200 M178.500 187.189 L 178.500 189.096 179.272 189.742 L 180.045 190.387 179.967 188.985 C 179.794 185.883,178.500 184.297,178.500 187.189 M161.833 186.425 C 158.396 186.635,155.490 186.813,155.375 186.820 C 155.223 186.830,155.167 187.298,155.167 188.566 L 155.167 190.299 155.792 190.848 L 156.417 191.398 156.464 189.775 C 156.497 188.684,156.579 188.131,156.714 188.088 C 156.826 188.054,159.279 187.906,162.167 187.761 C 165.054 187.615,167.810 187.454,168.292 187.403 L 169.167 187.309 169.167 186.655 C 169.167 186.023,169.148 186.001,168.625 186.022 C 168.327 186.034,165.271 186.216,161.833 186.425 M176.224 193.958 L 173.531 194.008 172.894 194.712 L 172.256 195.417 172.752 195.473 C 173.024 195.504,174.973 195.448,177.082 195.348 C 179.191 195.248,181.217 195.166,181.583 195.166 L 182.250 195.166 181.500 194.507 C 180.805 193.896,180.683 193.850,179.833 193.878 C 179.329 193.894,177.705 193.930,176.224 193.958 M221.758 194.814 L 221.099 195.500 222.523 195.500 C 223.306 195.500,225.552 195.546,227.515 195.603 L 231.083 195.705 230.399 195.004 L 229.715 194.303 226.066 194.216 L 222.417 194.129 221.758 194.814 M153.250 195.284 L 150.250 195.524 149.502 196.262 C 148.899 196.857,148.818 197.000,149.086 196.998 C 149.268 196.997,151.329 196.848,153.667 196.667 C 156.004 196.485,158.133 196.336,158.396 196.335 L 158.876 196.333 158.146 195.674 C 157.304 194.912,157.607 194.936,153.250 195.284 M244.526 195.736 C 244.924 196.301,245.175 196.501,245.490 196.503 C 245.725 196.504,247.492 196.615,249.417 196.749 C 251.342 196.883,253.291 196.995,253.748 196.996 L 254.578 197.000 253.914 196.344 L 253.250 195.688 249.667 195.429 C 247.696 195.287,245.612 195.126,245.035 195.071 L 243.987 194.972 244.526 195.736 M269.785 197.958 L 269.159 198.583 274.035 199.114 C 276.717 199.406,278.923 199.631,278.939 199.614 C 278.954 199.597,278.679 199.260,278.328 198.866 L 277.688 198.148 274.136 197.744 C 272.182 197.521,270.545 197.338,270.497 197.336 C 270.450 197.335,270.129 197.615,269.785 197.958 M94.920 202.080 L 91.757 202.623 91.049 203.427 C 90.660 203.869,90.359 204.246,90.379 204.264 C 90.420 204.301,99.156 202.739,99.832 202.575 L 100.247 202.474 99.665 201.991 C 98.946 201.395,98.895 201.396,94.920 202.080 M191.708 212.124 C 192.327 212.156,193.340 212.156,193.958 212.124 C 194.577 212.092,194.071 212.065,192.833 212.065 C 191.596 212.065,191.090 212.092,191.708 212.124 M206.042 212.124 C 206.660 212.156,207.673 212.156,208.292 212.124 C 208.910 212.092,208.404 212.065,207.167 212.065 C 205.929 212.065,205.423 212.092,206.042 212.124 M182.961 212.287 C 183.261 212.325,183.711 212.324,183.961 212.286 C 184.212 212.248,183.967 212.217,183.417 212.218 C 182.867 212.219,182.662 212.250,182.961 212.287 M216.582 212.286 L 217.500 212.350 217.500 254.738 C 217.500 294.909,217.515 297.138,217.792 297.355 C 218.050 297.557,218.060 297.553,217.875 297.317 C 217.711 297.105,217.659 288.230,217.625 254.650 L 217.583 212.250 216.624 212.236 L 215.665 212.223 216.582 212.286 M138.917 214.859 C 131.376 215.598,128.314 215.915,124.583 216.346 C 120.262 216.845,114.403 217.583,113.375 217.757 L 112.833 217.848 112.836 223.633 C 112.838 228.194,112.891 229.646,113.090 230.500 C 115.087 239.098,122.208 249.172,133.167 258.903 C 136.275 261.662,141.064 265.500,141.401 265.500 C 141.455 265.500,141.500 254.063,141.500 240.083 L 141.500 214.667 140.958 214.689 C 140.660 214.701,139.742 214.778,138.917 214.859 M258.667 240.083 C 258.667 254.063,258.710 265.500,258.763 265.500 C 258.894 265.500,260.558 264.228,262.667 262.516 C 275.910 251.766,284.721 240.111,286.837 230.544 C 287.120 229.261,287.160 228.401,287.163 223.466 L 287.167 217.848 286.625 217.758 C 282.863 217.133,260.797 214.668,258.958 214.667 C 258.682 214.667,258.667 215.988,258.667 240.083 M123.000 258.750 C 123.311 259.071,123.603 259.333,123.649 259.333 C 123.695 259.333,123.478 259.071,123.167 258.750 C 122.856 258.429,122.564 258.167,122.518 258.167 C 122.472 258.167,122.689 258.429,123.000 258.750 M128.083 263.833 C 128.441 264.200,128.772 264.500,128.818 264.500 C 128.863 264.500,128.608 264.200,128.250 263.833 C 127.892 263.467,127.562 263.167,127.516 263.167 C 127.470 263.167,127.725 263.467,128.083 263.833 M271.073 264.542 L 270.583 265.083 271.125 264.594 C 271.630 264.138,271.743 264.000,271.615 264.000 C 271.586 264.000,271.342 264.244,271.073 264.542 M129.667 278.583 C 130.257 279.179,130.778 279.667,130.824 279.667 C 130.870 279.667,130.424 279.179,129.833 278.583 C 129.243 277.987,128.722 277.500,128.676 277.500 C 128.630 277.500,129.076 277.987,129.667 278.583 M146.333 285.411 L 146.333 292.489 147.208 293.147 C 151.362 296.268,165.492 304.532,165.974 304.122 C 166.126 303.992,168.706 301.839,171.708 299.337 C 177.403 294.589,177.397 294.595,176.792 294.404 C 172.273 292.974,156.849 284.926,148.979 279.893 C 147.638 279.035,146.495 278.333,146.437 278.333 C 146.380 278.333,146.333 281.518,146.333 285.411 M250.833 280.017 C 243.184 284.940,231.236 291.196,223.626 294.264 C 223.191 294.440,222.834 294.626,222.834 294.679 C 222.833 294.754,232.219 302.666,233.950 304.051 C 234.322 304.348,234.358 304.335,236.955 302.900 C 242.224 299.989,252.139 293.852,253.292 292.788 L 253.667 292.442 253.667 285.388 C 253.667 281.508,253.610 278.338,253.542 278.344 C 253.473 278.350,252.254 279.103,250.833 280.017 M131.833 280.750 C 132.331 281.254,132.776 281.667,132.822 281.667 C 132.868 281.667,132.498 281.254,132.000 280.750 C 131.502 280.246,131.057 279.833,131.011 279.833 C 130.966 279.833,131.335 280.246,131.833 280.750 " stroke="none" fill="#b4b4bc" fill-rule="evenodd"></path><path id="path4" d="M173.333 20.125 C 173.333 20.194,174.552 20.231,176.041 20.207 C 181.113 20.127,181.590 20.069,177.458 20.034 C 175.190 20.015,173.333 20.056,173.333 20.125 M219.833 20.116 C 223.348 20.235,226.667 20.239,226.667 20.125 C 226.667 20.056,224.810 20.015,222.542 20.034 C 220.273 20.053,219.054 20.090,219.833 20.116 M173.042 67.282 C 173.202 67.323,173.465 67.323,173.625 67.282 C 173.785 67.240,173.654 67.205,173.333 67.205 C 173.012 67.205,172.881 67.240,173.042 67.282 M226.542 67.282 C 226.702 67.323,226.965 67.323,227.125 67.282 C 227.285 67.240,227.154 67.205,226.833 67.205 C 226.512 67.205,226.381 67.240,226.542 67.282 M170.042 67.448 C 170.202 67.490,170.465 67.490,170.625 67.448 C 170.785 67.406,170.654 67.372,170.333 67.372 C 170.012 67.372,169.881 67.406,170.042 67.448 M229.542 67.448 C 229.702 67.490,229.965 67.490,230.125 67.448 C 230.285 67.406,230.154 67.372,229.833 67.372 C 229.512 67.372,229.381 67.406,229.542 67.448 M166.875 67.615 C 167.035 67.657,167.298 67.657,167.458 67.615 C 167.619 67.573,167.487 67.539,167.167 67.539 C 166.846 67.539,166.715 67.573,166.875 67.615 M232.708 67.615 C 232.869 67.657,233.131 67.657,233.292 67.615 C 233.452 67.573,233.321 67.539,233.000 67.539 C 232.679 67.539,232.548 67.573,232.708 67.615 M163.875 67.782 C 164.035 67.823,164.298 67.823,164.458 67.782 C 164.619 67.740,164.487 67.705,164.167 67.705 C 163.846 67.705,163.715 67.740,163.875 67.782 M235.708 67.782 C 235.869 67.823,236.131 67.823,236.292 67.782 C 236.452 67.740,236.321 67.705,236.000 67.705 C 235.679 67.705,235.548 67.740,235.708 67.782 M94.869 80.282 C 94.849 83.141,94.890 85.515,94.958 85.558 C 95.027 85.600,95.064 84.086,95.041 82.193 C 94.961 75.710,94.905 75.086,94.869 80.282 M175.877 77.786 C 176.131 77.825,176.506 77.824,176.711 77.784 C 176.916 77.744,176.708 77.713,176.250 77.714 C 175.792 77.716,175.624 77.748,175.877 77.786 M223.544 77.786 C 223.797 77.825,224.172 77.824,224.377 77.784 C 224.582 77.744,224.375 77.713,223.917 77.714 C 223.458 77.716,223.291 77.748,223.544 77.786 M171.960 77.951 C 172.168 77.991,172.468 77.990,172.627 77.948 C 172.786 77.906,172.617 77.874,172.250 77.875 C 171.883 77.877,171.753 77.911,171.960 77.951 M227.458 77.951 C 227.665 77.991,228.002 77.991,228.208 77.951 C 228.415 77.911,228.246 77.879,227.833 77.879 C 227.421 77.879,227.252 77.911,227.458 77.951 M168.627 78.118 C 168.834 78.158,169.134 78.156,169.294 78.115 C 169.453 78.073,169.283 78.040,168.917 78.042 C 168.550 78.044,168.420 78.078,168.627 78.118 M231.127 78.118 C 231.334 78.158,231.634 78.156,231.794 78.115 C 231.953 78.073,231.783 78.040,231.417 78.042 C 231.050 78.044,230.920 78.078,231.127 78.118 M165.375 78.282 C 165.535 78.323,165.798 78.323,165.958 78.282 C 166.119 78.240,165.987 78.205,165.667 78.205 C 165.346 78.205,165.215 78.240,165.375 78.282 M234.375 78.282 C 234.535 78.323,234.798 78.323,234.958 78.282 C 235.119 78.240,234.987 78.205,234.667 78.205 C 234.346 78.205,234.215 78.240,234.375 78.282 M162.375 78.448 C 162.535 78.490,162.798 78.490,162.958 78.448 C 163.119 78.406,162.987 78.372,162.667 78.372 C 162.346 78.372,162.215 78.406,162.375 78.448 M237.208 78.448 C 237.369 78.490,237.631 78.490,237.792 78.448 C 237.952 78.406,237.821 78.372,237.500 78.372 C 237.179 78.372,237.048 78.406,237.208 78.448 M173.377 83.120 C 173.631 83.158,174.006 83.157,174.211 83.117 C 174.416 83.078,174.208 83.046,173.750 83.048 C 173.292 83.049,173.124 83.081,173.377 83.120 M225.958 83.118 C 226.165 83.157,226.502 83.157,226.708 83.118 C 226.915 83.078,226.746 83.045,226.333 83.045 C 225.921 83.045,225.752 83.078,225.958 83.118 M169.794 83.285 C 170.001 83.324,170.301 83.323,170.460 83.281 C 170.620 83.239,170.450 83.207,170.083 83.209 C 169.717 83.211,169.586 83.245,169.794 83.285 M229.625 83.284 C 229.831 83.324,230.169 83.324,230.375 83.284 C 230.581 83.245,230.412 83.212,230.000 83.212 C 229.588 83.212,229.419 83.245,229.625 83.284 M166.708 83.448 C 166.869 83.490,167.131 83.490,167.292 83.448 C 167.452 83.406,167.321 83.372,167.000 83.372 C 166.679 83.372,166.548 83.406,166.708 83.448 M233.042 83.448 C 233.202 83.490,233.465 83.490,233.625 83.448 C 233.785 83.406,233.654 83.372,233.333 83.372 C 233.012 83.372,232.881 83.406,233.042 83.448 M163.708 83.615 C 163.869 83.657,164.131 83.657,164.292 83.615 C 164.452 83.573,164.321 83.539,164.000 83.539 C 163.679 83.539,163.548 83.573,163.708 83.615 M236.042 83.615 C 236.202 83.657,236.465 83.657,236.625 83.615 C 236.785 83.573,236.654 83.539,236.333 83.539 C 236.012 83.539,235.881 83.573,236.042 83.615 M160.542 83.782 C 160.702 83.823,160.965 83.823,161.125 83.782 C 161.285 83.740,161.154 83.705,160.833 83.705 C 160.512 83.705,160.381 83.740,160.542 83.782 M238.875 83.782 C 239.035 83.823,239.298 83.823,239.458 83.782 C 239.619 83.740,239.487 83.705,239.167 83.705 C 238.846 83.705,238.715 83.740,238.875 83.782 M241.542 83.948 C 241.702 83.990,241.965 83.990,242.125 83.948 C 242.285 83.906,242.154 83.872,241.833 83.872 C 241.512 83.872,241.381 83.906,241.542 83.948 M94.910 90.875 C 94.867 90.990,94.850 105.446,94.874 123.000 L 94.917 154.917 95.000 122.792 C 95.046 105.123,95.062 90.667,95.036 90.667 C 95.011 90.667,94.954 90.760,94.910 90.875 M189.631 94.123 C 190.115 94.157,190.865 94.156,191.297 94.122 C 191.730 94.088,191.333 94.060,190.417 94.061 C 189.500 94.061,189.146 94.089,189.631 94.123 M208.797 94.123 C 209.282 94.157,210.032 94.156,210.464 94.122 C 210.896 94.088,210.500 94.060,209.583 94.061 C 208.667 94.061,208.313 94.089,208.797 94.123 M182.628 94.287 C 182.928 94.325,183.378 94.324,183.628 94.286 C 183.878 94.248,183.633 94.217,183.083 94.218 C 182.533 94.219,182.328 94.250,182.628 94.287 M216.792 94.287 C 217.090 94.324,217.577 94.324,217.875 94.287 C 218.173 94.250,217.929 94.220,217.333 94.220 C 216.737 94.220,216.494 94.250,216.792 94.287 M177.211 94.453 C 177.464 94.491,177.839 94.490,178.044 94.451 C 178.249 94.411,178.042 94.380,177.583 94.381 C 177.125 94.382,176.957 94.415,177.211 94.453 M222.044 94.453 C 222.297 94.491,222.672 94.490,222.877 94.451 C 223.082 94.411,222.875 94.380,222.417 94.381 C 221.958 94.382,221.791 94.415,222.044 94.453 M173.044 94.620 C 173.297 94.658,173.672 94.657,173.877 94.617 C 174.082 94.578,173.875 94.546,173.417 94.548 C 172.958 94.549,172.791 94.581,173.044 94.620 M226.211 94.620 C 226.464 94.658,226.839 94.657,227.044 94.617 C 227.249 94.578,227.042 94.546,226.583 94.548 C 226.125 94.549,225.957 94.581,226.211 94.620 M169.708 94.782 C 169.869 94.823,170.131 94.823,170.292 94.782 C 170.452 94.740,170.321 94.705,170.000 94.705 C 169.679 94.705,169.548 94.740,169.708 94.782 M229.960 94.785 C 230.168 94.824,230.468 94.823,230.627 94.781 C 230.786 94.739,230.617 94.707,230.250 94.709 C 229.883 94.711,229.753 94.745,229.960 94.785 M166.294 94.951 C 166.501 94.991,166.801 94.990,166.960 94.948 C 167.120 94.906,166.950 94.874,166.583 94.875 C 166.217 94.877,166.086 94.911,166.294 94.951 M233.127 94.951 C 233.334 94.991,233.634 94.990,233.794 94.948 C 233.953 94.906,233.783 94.874,233.417 94.875 C 233.050 94.877,232.920 94.911,233.127 94.951 M160.542 95.282 C 160.702 95.323,160.965 95.323,161.125 95.282 C 161.285 95.240,161.154 95.205,160.833 95.205 C 160.512 95.205,160.381 95.240,160.542 95.282 M238.875 95.282 C 239.035 95.323,239.298 95.323,239.458 95.282 C 239.619 95.240,239.487 95.205,239.167 95.205 C 238.846 95.205,238.715 95.240,238.875 95.282 M106.415 126.833 C 106.415 141.271,106.434 147.177,106.458 139.958 C 106.482 132.740,106.482 120.927,106.458 113.708 C 106.434 106.490,106.415 112.396,106.415 126.833 M199.125 151.956 C 199.606 151.990,200.394 151.990,200.875 151.956 C 201.356 151.923,200.963 151.895,200.000 151.895 C 199.037 151.895,198.644 151.923,199.125 151.956 M185.131 152.123 C 185.615 152.157,186.365 152.156,186.797 152.122 C 187.230 152.088,186.833 152.060,185.917 152.061 C 185.000 152.061,184.646 152.089,185.131 152.123 M213.125 152.123 C 213.606 152.157,214.394 152.157,214.875 152.123 C 215.356 152.089,214.963 152.062,214.000 152.062 C 213.037 152.062,212.644 152.089,213.125 152.123 M178.958 152.287 C 179.256 152.324,179.744 152.324,180.042 152.287 C 180.340 152.250,180.096 152.220,179.500 152.220 C 178.904 152.220,178.660 152.250,178.958 152.287 M220.292 152.287 C 220.590 152.324,221.077 152.324,221.375 152.287 C 221.673 152.250,221.429 152.220,220.833 152.220 C 220.237 152.220,219.994 152.250,220.292 152.287 M174.125 152.451 C 174.331 152.491,174.669 152.491,174.875 152.451 C 175.081 152.411,174.912 152.379,174.500 152.379 C 174.088 152.379,173.919 152.411,174.125 152.451 M225.377 152.453 C 225.631 152.491,226.006 152.490,226.211 152.451 C 226.416 152.411,226.208 152.380,225.750 152.381 C 225.292 152.382,225.124 152.415,225.377 152.453 M169.792 152.618 C 169.998 152.657,170.335 152.657,170.542 152.618 C 170.748 152.578,170.579 152.545,170.167 152.545 C 169.754 152.545,169.585 152.578,169.792 152.618 M229.458 152.618 C 229.665 152.657,230.002 152.657,230.208 152.618 C 230.415 152.578,230.246 152.545,229.833 152.545 C 229.421 152.545,229.252 152.578,229.458 152.618 M166.460 152.785 C 166.668 152.824,166.968 152.823,167.127 152.781 C 167.286 152.739,167.117 152.707,166.750 152.709 C 166.383 152.711,166.253 152.745,166.460 152.785 M233.208 152.782 C 233.369 152.823,233.631 152.823,233.792 152.782 C 233.952 152.740,233.821 152.705,233.500 152.705 C 233.179 152.705,233.048 152.740,233.208 152.782 M162.960 152.951 C 163.168 152.991,163.468 152.990,163.627 152.948 C 163.786 152.906,163.617 152.874,163.250 152.875 C 162.883 152.877,162.753 152.911,162.960 152.951 M236.460 152.951 C 236.668 152.991,236.968 152.990,237.127 152.948 C 237.286 152.906,237.117 152.874,236.750 152.875 C 236.383 152.877,236.253 152.911,236.460 152.951 M157.375 153.282 C 157.535 153.323,157.798 153.323,157.958 153.282 C 158.119 153.240,157.987 153.205,157.667 153.205 C 157.346 153.205,157.215 153.240,157.375 153.282 M242.208 153.282 C 242.369 153.323,242.631 153.323,242.792 153.282 C 242.952 153.240,242.821 153.205,242.500 153.205 C 242.179 153.205,242.048 153.240,242.208 153.282 M194.125 164.125 C 196.440 164.151,200.227 164.151,202.542 164.125 C 204.856 164.099,202.963 164.077,198.333 164.077 C 193.704 164.077,191.810 164.099,194.125 164.125 M218.295 164.454 C 218.594 164.491,219.044 164.490,219.295 164.452 C 219.545 164.414,219.300 164.384,218.750 164.385 C 218.200 164.386,217.995 164.417,218.295 164.454 M223.375 164.619 C 223.627 164.658,224.040 164.658,224.292 164.619 C 224.544 164.581,224.338 164.550,223.833 164.550 C 223.329 164.550,223.123 164.581,223.375 164.619 M168.708 164.948 C 168.869 164.990,169.131 164.990,169.292 164.948 C 169.452 164.906,169.321 164.872,169.000 164.872 C 168.679 164.872,168.548 164.906,168.708 164.948 M166.042 165.115 C 166.202 165.157,166.465 165.157,166.625 165.115 C 166.785 165.073,166.654 165.039,166.333 165.039 C 166.012 165.039,165.881 165.073,166.042 165.115 M163.375 165.282 C 163.535 165.323,163.798 165.323,163.958 165.282 C 164.119 165.240,163.987 165.205,163.667 165.205 C 163.346 165.205,163.215 165.240,163.375 165.282 M155.375 165.782 C 155.535 165.823,155.798 165.823,155.958 165.782 C 156.119 165.740,155.987 165.705,155.667 165.705 C 155.346 165.705,155.215 165.740,155.375 165.782 M219.000 165.719 C 219.000 165.748,219.244 165.991,219.542 166.260 L 220.083 166.750 219.594 166.208 C 219.138 165.703,219.000 165.590,219.000 165.719 M248.542 165.948 C 248.702 165.990,248.965 165.990,249.125 165.948 C 249.285 165.906,249.154 165.872,248.833 165.872 C 248.512 165.872,248.381 165.906,248.542 165.948 M249.276 167.971 C 249.025 168.249,249.000 169.309,249.000 179.779 L 249.000 191.282 249.375 191.599 C 249.750 191.916,249.750 191.916,249.458 191.570 C 249.021 191.051,249.006 168.454,249.442 167.971 C 249.594 167.804,249.681 167.667,249.635 167.667 C 249.589 167.667,249.428 167.804,249.276 167.971 M243.373 176.552 C 243.342 183.535,243.290 185.329,243.125 185.235 C 242.960 185.142,242.959 185.163,243.122 185.339 C 243.493 185.739,243.503 185.469,243.458 176.568 L 243.414 167.750 243.373 176.552 M250.912 180.083 C 250.912 185.950,250.933 188.326,250.958 185.363 C 250.984 182.400,250.984 177.600,250.958 174.696 C 250.933 171.792,250.912 174.217,250.912 180.083 M253.875 169.615 C 254.035 169.657,254.298 169.657,254.458 169.615 C 254.619 169.573,254.487 169.539,254.167 169.539 C 253.846 169.539,253.715 169.573,253.875 169.615 M168.542 170.282 C 168.702 170.323,168.965 170.323,169.125 170.282 C 169.285 170.240,169.154 170.205,168.833 170.205 C 168.512 170.205,168.381 170.240,168.542 170.282 M165.542 170.448 C 165.702 170.490,165.965 170.490,166.125 170.448 C 166.285 170.406,166.154 170.372,165.833 170.372 C 165.512 170.372,165.381 170.406,165.542 170.448 M253.240 170.875 L 252.750 171.417 253.292 170.927 C 253.797 170.471,253.910 170.333,253.781 170.333 C 253.752 170.333,253.509 170.577,253.240 170.875 M162.627 170.618 C 162.834 170.658,163.134 170.656,163.294 170.615 C 163.453 170.573,163.283 170.540,162.917 170.542 C 162.550 170.544,162.420 170.578,162.627 170.618 M106.417 174.516 C 106.417 176.615,106.473 178.333,106.542 178.333 C 106.610 178.333,106.667 176.650,106.667 174.593 C 106.667 172.536,106.610 170.818,106.542 170.776 C 106.473 170.733,106.417 172.416,106.417 174.516 M159.708 170.782 C 159.869 170.823,160.131 170.823,160.292 170.782 C 160.452 170.740,160.321 170.705,160.000 170.705 C 159.679 170.705,159.548 170.740,159.708 170.782 M113.658 171.458 L 113.083 172.083 113.708 171.509 C 114.290 170.974,114.410 170.833,114.283 170.833 C 114.255 170.833,113.974 171.115,113.658 171.458 M156.708 170.948 C 156.869 170.990,157.131 170.990,157.292 170.948 C 157.452 170.906,157.321 170.872,157.000 170.872 C 156.679 170.872,156.548 170.906,156.708 170.948 M153.708 171.115 C 153.869 171.157,154.131 171.157,154.292 171.115 C 154.452 171.073,154.321 171.039,154.000 171.039 C 153.679 171.039,153.548 171.073,153.708 171.115 M153.239 175.417 C 153.239 177.800,153.263 178.752,153.291 177.532 C 153.320 176.312,153.320 174.362,153.291 173.198 C 153.263 172.035,153.239 173.033,153.239 175.417 M195.792 171.291 C 197.556 171.318,200.444 171.318,202.208 171.291 C 203.973 171.264,202.529 171.242,199.000 171.242 C 195.471 171.242,194.027 171.264,195.792 171.291 M295.544 171.286 C 295.797 171.325,296.172 171.324,296.377 171.284 C 296.582 171.244,296.375 171.213,295.917 171.214 C 295.458 171.216,295.291 171.248,295.544 171.286 M197.042 172.791 C 198.577 172.819,201.090 172.819,202.625 172.791 C 204.160 172.764,202.904 172.741,199.833 172.741 C 196.762 172.741,195.506 172.764,197.042 172.791 M288.571 177.083 C 288.572 179.192,288.595 180.031,288.625 178.949 C 288.654 177.867,288.654 176.142,288.624 175.116 C 288.595 174.090,288.571 174.975,288.571 177.083 M108.407 173.881 C 108.362 173.998,108.348 175.442,108.375 177.089 L 108.425 180.083 108.462 176.972 C 108.490 174.668,108.554 173.839,108.708 173.777 C 108.872 173.711,108.870 173.690,108.703 173.680 C 108.586 173.673,108.453 173.763,108.407 173.881 M156.611 174.278 C 156.550 174.339,156.500 175.084,156.500 175.933 C 156.500 177.345,156.471 177.483,156.164 177.552 C 155.885 177.615,155.892 177.624,156.206 177.606 C 156.567 177.584,156.585 177.514,156.631 175.969 C 156.671 174.610,156.724 174.344,156.964 174.280 C 157.200 174.219,157.203 174.202,156.986 174.186 C 156.841 174.175,156.672 174.217,156.611 174.278 M192.741 179.333 C 192.741 182.221,192.764 183.402,192.791 181.958 C 192.819 180.515,192.819 178.152,192.791 176.708 C 192.764 175.265,192.741 176.446,192.741 179.333 M265.996 175.466 L 266.076 176.250 266.133 175.603 C 266.164 175.247,266.128 174.894,266.052 174.819 C 265.977 174.744,265.952 175.035,265.996 175.466 M275.411 184.417 C 275.411 189.183,275.432 191.109,275.458 188.697 C 275.484 186.284,275.484 182.384,275.458 180.030 C 275.432 177.676,275.411 179.650,275.411 184.417 M143.742 182.417 C 143.742 185.992,143.765 187.430,143.791 185.614 C 143.818 183.797,143.818 180.872,143.791 179.114 C 143.764 177.355,143.742 178.842,143.742 182.417 M111.410 183.750 C 111.410 187.967,111.432 189.668,111.458 187.530 C 111.485 185.393,111.485 181.943,111.458 179.864 C 111.432 177.784,111.410 179.533,111.410 183.750 M276.911 186.000 C 276.911 190.721,276.932 192.652,276.958 190.292 C 276.984 187.931,276.984 184.069,276.958 181.708 C 276.932 179.348,276.911 181.279,276.911 186.000 M283.299 177.692 C 283.475 177.917,283.475 177.983,283.299 178.054 C 283.162 178.109,283.190 178.145,283.375 178.154 C 283.535 178.161,283.667 178.101,283.667 178.020 C 283.667 177.940,283.535 177.771,283.375 177.645 C 283.114 177.441,283.106 177.446,283.299 177.692 M227.539 183.438 C 227.503 188.843,227.522 189.310,227.792 189.521 C 228.049 189.723,228.059 189.719,227.877 189.486 C 227.725 189.290,227.659 187.711,227.625 183.402 L 227.579 177.583 227.539 183.438 M168.708 178.782 C 168.869 178.823,169.131 178.823,169.292 178.782 C 169.452 178.740,169.321 178.705,169.000 178.705 C 168.679 178.705,168.548 178.740,168.708 178.782 M165.875 178.948 C 166.035 178.990,166.298 178.990,166.458 178.948 C 166.619 178.906,166.487 178.872,166.167 178.872 C 165.846 178.872,165.715 178.906,165.875 178.948 M160.042 179.282 C 160.202 179.323,160.465 179.323,160.625 179.282 C 160.785 179.240,160.654 179.205,160.333 179.205 C 160.012 179.205,159.881 179.240,160.042 179.282 M157.042 179.448 C 157.202 179.490,157.465 179.490,157.625 179.448 C 157.785 179.406,157.654 179.372,157.333 179.372 C 157.012 179.372,156.881 179.406,157.042 179.448 M154.042 179.615 C 154.202 179.657,154.465 179.657,154.625 179.615 C 154.785 179.573,154.654 179.539,154.333 179.539 C 154.012 179.539,153.881 179.573,154.042 179.615 M313.577 187.917 C 313.577 191.950,313.598 193.576,313.625 191.530 C 313.651 189.485,313.651 186.185,313.625 184.197 C 313.598 182.209,313.577 183.883,313.577 187.917 M80.778 182.611 C 80.624 182.765,80.637 186.167,80.792 186.167 C 80.860 186.167,80.917 185.342,80.917 184.333 C 80.917 183.325,80.910 182.500,80.903 182.500 C 80.895 182.500,80.839 182.550,80.778 182.611 M168.375 184.115 C 168.535 184.157,168.798 184.157,168.958 184.115 C 169.119 184.073,168.987 184.039,168.667 184.039 C 168.346 184.039,168.215 184.073,168.375 184.115 M165.375 184.282 C 165.535 184.323,165.798 184.323,165.958 184.282 C 166.119 184.240,165.987 184.205,165.667 184.205 C 165.346 184.205,165.215 184.240,165.375 184.282 M162.375 184.448 C 162.535 184.490,162.798 184.490,162.958 184.448 C 163.119 184.406,162.987 184.372,162.667 184.372 C 162.346 184.372,162.215 184.406,162.375 184.448 M159.375 184.615 C 159.535 184.657,159.798 184.657,159.958 184.615 C 160.119 184.573,159.987 184.539,159.667 184.539 C 159.346 184.539,159.215 184.573,159.375 184.615 M156.375 184.782 C 156.535 184.823,156.798 184.823,156.958 184.782 C 157.119 184.740,156.987 184.705,156.667 184.705 C 156.346 184.705,156.215 184.740,156.375 184.782 M153.241 185.048 C 153.195 185.165,153.181 186.572,153.208 188.173 L 153.258 191.083 153.296 188.053 L 153.333 185.022 153.792 184.953 L 154.250 184.883 153.786 184.858 C 153.531 184.845,153.286 184.930,153.241 185.048 M322.576 191.917 C 322.576 195.675,322.598 197.236,322.625 195.386 C 322.652 193.536,322.652 190.461,322.625 188.553 C 322.598 186.645,322.576 188.158,322.576 191.917 M156.611 188.111 C 156.550 188.172,156.500 188.927,156.500 189.788 C 156.500 190.928,156.448 191.321,156.308 191.234 C 156.188 191.160,156.160 191.188,156.234 191.308 C 156.528 191.783,156.649 191.377,156.698 189.750 C 156.726 188.787,156.744 187.999,156.736 188.000 C 156.728 188.000,156.672 188.050,156.611 188.111 M170.167 190.917 C 169.762 191.329,169.468 191.667,169.514 191.667 C 169.560 191.667,169.928 191.329,170.333 190.917 C 170.738 190.504,171.032 190.167,170.986 190.167 C 170.940 190.167,170.572 190.504,170.167 190.917 M177.500 190.750 C 177.811 191.071,178.103 191.333,178.149 191.333 C 178.195 191.333,177.978 191.071,177.667 190.750 C 177.356 190.429,177.064 190.167,177.018 190.167 C 176.972 190.167,177.189 190.429,177.500 190.750 M218.577 191.208 L 217.750 192.083 218.625 191.256 C 219.106 190.801,219.500 190.408,219.500 190.381 C 219.500 190.257,219.346 190.395,218.577 191.208 M194.125 191.792 C 196.440 191.818,200.227 191.818,202.542 191.792 C 204.856 191.765,202.963 191.744,198.333 191.744 C 193.704 191.744,191.810 191.765,194.125 191.792 M177.460 192.118 C 177.668 192.158,177.968 192.156,178.127 192.115 C 178.286 192.073,178.117 192.040,177.750 192.042 C 177.383 192.044,177.253 192.078,177.460 192.118 M219.792 192.121 C 220.090 192.158,220.577 192.158,220.875 192.121 C 221.173 192.084,220.929 192.053,220.333 192.053 C 219.737 192.053,219.494 192.084,219.792 192.121 M173.792 192.284 C 173.998 192.324,174.335 192.324,174.542 192.284 C 174.748 192.245,174.579 192.212,174.167 192.212 C 173.754 192.212,173.585 192.245,173.792 192.284 M225.458 192.287 C 225.756 192.324,226.244 192.324,226.542 192.287 C 226.840 192.250,226.596 192.220,226.000 192.220 C 225.404 192.220,225.160 192.250,225.458 192.287 M170.294 192.451 C 170.501 192.491,170.801 192.490,170.960 192.448 C 171.120 192.406,170.950 192.374,170.583 192.375 C 170.217 192.377,170.086 192.411,170.294 192.451 M145.862 193.386 C 145.456 193.818,145.407 194.000,145.694 194.000 C 145.801 194.000,145.838 193.949,145.776 193.887 C 145.714 193.825,145.827 193.600,146.028 193.387 C 146.228 193.174,146.354 193.000,146.308 193.000 C 146.262 193.000,146.062 193.174,145.862 193.386 M139.240 194.042 L 138.750 194.583 139.292 194.094 C 139.797 193.638,139.910 193.500,139.781 193.500 C 139.752 193.500,139.509 193.744,139.240 194.042 M250.460 193.618 C 250.668 193.658,250.968 193.656,251.127 193.615 C 251.286 193.573,251.117 193.540,250.750 193.542 C 250.383 193.544,250.253 193.578,250.460 193.618 M177.711 193.953 C 177.964 193.991,178.339 193.990,178.544 193.951 C 178.749 193.911,178.542 193.880,178.083 193.881 C 177.625 193.882,177.457 193.915,177.711 193.953 M228.208 194.286 C 228.460 194.324,228.873 194.324,229.125 194.286 C 229.377 194.248,229.171 194.217,228.667 194.217 C 228.162 194.217,227.956 194.248,228.208 194.286 M230.396 194.945 L 231.042 195.640 230.563 195.712 C 230.090 195.782,230.091 195.784,230.625 195.808 C 231.335 195.841,231.309 195.700,230.458 194.909 L 229.750 194.250 230.396 194.945 M179.542 195.282 C 179.702 195.323,179.965 195.323,180.125 195.282 C 180.285 195.240,180.154 195.205,179.833 195.205 C 179.512 195.205,179.381 195.240,179.542 195.282 M175.708 195.448 C 175.869 195.490,176.131 195.490,176.292 195.448 C 176.452 195.406,176.321 195.372,176.000 195.372 C 175.679 195.372,175.548 195.406,175.708 195.448 M225.211 195.620 C 225.464 195.658,225.839 195.657,226.044 195.617 C 226.249 195.578,226.042 195.546,225.583 195.548 C 225.125 195.549,224.957 195.581,225.211 195.620 M292.167 196.052 C 292.167 196.081,292.410 196.325,292.708 196.594 L 293.250 197.083 292.760 196.542 C 292.304 196.037,292.167 195.923,292.167 196.052 M116.958 196.784 C 117.165 196.824,117.502 196.824,117.708 196.784 C 117.915 196.745,117.746 196.712,117.333 196.712 C 116.921 196.712,116.752 196.745,116.958 196.784 M46.406 199.042 L 45.917 199.583 46.458 199.094 C 46.756 198.825,47.000 198.581,47.000 198.552 C 47.000 198.423,46.862 198.537,46.406 199.042 M278.000 198.552 C 278.000 198.581,278.244 198.825,278.542 199.094 L 279.083 199.583 278.594 199.042 C 278.138 198.537,278.000 198.423,278.000 198.552 M354.500 200.083 C 354.811 200.404,355.103 200.667,355.149 200.667 C 355.195 200.667,354.978 200.404,354.667 200.083 C 354.356 199.762,354.064 199.500,354.018 199.500 C 353.972 199.500,354.189 199.762,354.500 200.083 M43.906 201.708 L 43.417 202.250 43.958 201.760 C 44.463 201.304,44.577 201.167,44.448 201.167 C 44.419 201.167,44.175 201.410,43.906 201.708 M356.667 202.385 C 356.667 202.414,356.910 202.658,357.208 202.927 L 357.750 203.417 357.260 202.875 C 356.804 202.370,356.667 202.257,356.667 202.385 M41.324 204.458 L 40.750 205.083 41.375 204.509 C 41.957 203.974,42.077 203.833,41.949 203.833 C 41.922 203.833,41.640 204.115,41.324 204.458 M359.167 205.052 C 359.167 205.081,359.410 205.325,359.708 205.594 L 360.250 206.083 359.760 205.542 C 359.304 205.037,359.167 204.923,359.167 205.052 M38.824 207.125 L 38.250 207.750 38.875 207.176 C 39.457 206.641,39.577 206.500,39.449 206.500 C 39.422 206.500,39.140 206.781,38.824 207.125 M188.125 206.790 C 188.606 206.823,189.394 206.823,189.875 206.790 C 190.356 206.756,189.963 206.728,189.000 206.728 C 188.037 206.728,187.644 206.756,188.125 206.790 M209.958 206.790 C 210.440 206.823,211.227 206.823,211.708 206.790 C 212.190 206.756,211.796 206.728,210.833 206.728 C 209.871 206.728,209.477 206.756,209.958 206.790 M180.958 206.954 C 181.256 206.991,181.744 206.991,182.042 206.954 C 182.340 206.917,182.096 206.887,181.500 206.887 C 180.904 206.887,180.660 206.917,180.958 206.954 M218.292 206.954 C 218.590 206.991,219.077 206.991,219.375 206.954 C 219.673 206.917,219.429 206.887,218.833 206.887 C 218.237 206.887,217.994 206.917,218.292 206.954 M175.377 207.120 C 175.631 207.158,176.006 207.157,176.211 207.117 C 176.416 207.078,176.208 207.046,175.750 207.048 C 175.292 207.049,175.124 207.081,175.377 207.120 M223.877 207.120 C 224.131 207.158,224.506 207.157,224.711 207.117 C 224.916 207.078,224.708 207.046,224.250 207.048 C 223.792 207.049,223.624 207.081,223.877 207.120 M171.125 207.284 C 171.331 207.324,171.669 207.324,171.875 207.284 C 172.081 207.245,171.912 207.212,171.500 207.212 C 171.088 207.212,170.919 207.245,171.125 207.284 M228.125 207.284 C 228.331 207.324,228.669 207.324,228.875 207.284 C 229.081 207.245,228.912 207.212,228.500 207.212 C 228.088 207.212,227.919 207.245,228.125 207.284 M167.627 207.451 C 167.834 207.491,168.134 207.490,168.294 207.448 C 168.453 207.406,168.283 207.374,167.917 207.375 C 167.550 207.377,167.420 207.411,167.627 207.451 M232.042 207.448 C 232.202 207.490,232.465 207.490,232.625 207.448 C 232.785 207.406,232.654 207.372,232.333 207.372 C 232.012 207.372,231.881 207.406,232.042 207.448 M164.127 207.618 C 164.334 207.658,164.634 207.656,164.794 207.615 C 164.953 207.573,164.783 207.540,164.417 207.542 C 164.050 207.544,163.920 207.578,164.127 207.618 M235.294 207.618 C 235.501 207.658,235.801 207.656,235.960 207.615 C 236.120 207.573,235.950 207.540,235.583 207.542 C 235.217 207.544,235.086 207.578,235.294 207.618 M361.667 207.719 C 361.667 207.748,361.910 207.991,362.208 208.260 L 362.750 208.750 362.260 208.208 C 361.804 207.703,361.667 207.590,361.667 207.719 M36.324 209.792 L 35.750 210.417 36.375 209.842 C 36.957 209.308,37.077 209.167,36.949 209.167 C 36.922 209.167,36.640 209.448,36.324 209.792 M364.333 210.552 C 364.333 210.581,364.577 210.825,364.875 211.094 L 365.417 211.583 364.927 211.042 C 364.471 210.537,364.333 210.423,364.333 210.552 M33.740 212.542 L 33.250 213.083 33.792 212.594 C 34.090 212.325,34.333 212.081,34.333 212.052 C 34.333 211.923,34.196 212.037,33.740 212.542 M366.833 213.219 C 366.833 213.248,367.077 213.491,367.375 213.760 L 367.917 214.250 367.427 213.708 C 366.971 213.203,366.833 213.090,366.833 213.219 M31.240 215.208 L 30.750 215.750 31.292 215.260 C 31.590 214.991,31.833 214.748,31.833 214.719 C 31.833 214.590,31.696 214.703,31.240 215.208 M369.333 215.885 C 369.333 215.914,369.577 216.158,369.875 216.427 L 370.417 216.917 369.927 216.375 C 369.471 215.870,369.333 215.757,369.333 215.885 M28.740 217.875 L 28.250 218.417 28.792 217.927 C 29.090 217.658,29.333 217.414,29.333 217.385 C 29.333 217.257,29.196 217.370,28.740 217.875 M372.333 219.083 C 372.644 219.404,372.936 219.667,372.982 219.667 C 373.028 219.667,372.811 219.404,372.500 219.083 C 372.189 218.762,371.897 218.500,371.851 218.500 C 371.805 218.500,372.022 218.762,372.333 219.083 M106.333 231.300 L 106.417 243.917 106.459 231.426 C 106.483 224.556,106.445 218.879,106.376 218.809 C 106.307 218.740,106.287 224.361,106.333 231.300 M26.158 220.625 L 25.583 221.250 26.208 220.676 C 26.790 220.141,26.910 220.000,26.783 220.000 C 26.755 220.000,26.474 220.281,26.158 220.625 M94.912 232.417 C 94.912 238.925,94.933 241.612,94.958 238.387 C 94.984 235.163,94.984 229.838,94.958 226.554 C 94.933 223.270,94.912 225.908,94.912 232.417 M240.620 227.292 L 248.324 227.337 248.375 229.627 L 248.427 231.917 248.463 229.542 L 248.500 227.167 240.708 227.207 L 232.917 227.247 240.620 227.292 M157.069 231.060 C 157.021 231.185,157.009 231.729,157.043 232.269 L 157.104 233.250 157.135 232.127 L 157.167 231.004 164.208 230.958 L 171.250 230.913 164.203 230.873 C 158.383 230.840,157.141 230.873,157.069 231.060 M236.792 230.958 C 238.648 230.985,241.685 230.985,243.542 230.958 C 245.398 230.931,243.879 230.909,240.167 230.909 C 236.454 230.909,234.935 230.931,236.792 230.958 M157.066 239.333 C 157.066 240.662,157.092 241.206,157.124 240.542 C 157.155 239.877,157.155 238.790,157.124 238.125 C 157.092 237.460,157.066 238.004,157.066 239.333 M248.396 241.167 C 248.396 242.221,248.423 242.652,248.456 242.125 C 248.490 241.598,248.490 240.735,248.456 240.208 C 248.423 239.681,248.396 240.112,248.396 241.167 M293.548 244.083 C 293.549 244.542,293.581 244.709,293.620 244.456 C 293.658 244.203,293.657 243.828,293.617 243.623 C 293.578 243.418,293.546 243.625,293.548 244.083 M305.052 244.250 C 305.053 244.800,305.084 245.005,305.121 244.705 C 305.158 244.406,305.157 243.956,305.119 243.705 C 305.081 243.455,305.051 243.700,305.052 244.250 M123.667 281.250 C 123.978 281.571,124.270 281.833,124.315 281.833 C 124.361 281.833,124.144 281.571,123.833 281.250 C 123.522 280.929,123.230 280.667,123.185 280.667 C 123.139 280.667,123.356 280.929,123.667 281.250 M127.833 285.417 C 128.144 285.737,128.436 286.000,128.482 286.000 C 128.528 286.000,128.311 285.737,128.000 285.417 C 127.689 285.096,127.397 284.833,127.351 284.833 C 127.305 284.833,127.522 285.096,127.833 285.417 M282.079 291.542 L 280.750 292.917 282.125 291.587 C 283.402 290.353,283.576 290.167,283.454 290.167 C 283.429 290.167,282.811 290.785,282.079 291.542 M120.500 294.052 C 120.500 294.081,120.744 294.325,121.042 294.594 L 121.583 295.083 121.094 294.542 C 120.638 294.037,120.500 293.923,120.500 294.052 " stroke="none" fill="#dc99a4" fill-rule="evenodd"></path></g></svg>