<?xml version="1.0" encoding="UTF-8"?>
<!-- Generator: visioncortex VTracer 0.6.3 -->
<svg version="1.1" xmlns="http://www.w3.org/2000/svg" width="300" height="300">
<path d="M0 0 C1.48 0.74 1.48 0.74 2.98 1.5 C36.16 18.77 60.06 49.86 71.39 85.08 C78.6 108.62 80.39 136 74 160 C73.7 161.17 73.7 161.17 73.4 162.36 C65.39 193.15 48.25 220.43 23 240 C22.13 240.72 21.26 241.44 20.37 242.18 C-7.57 264.55 -45 273.91 -80.32 270.49 C-118.51 266.22 -152.11 248.1 -177.31 219.12 C-201.98 188.21 -213.2 149.68 -208.98 110.4 C-205.21 78.71 -191.05 51.64 -170 28 C-169.38 27.29 -168.76 26.59 -168.12 25.86 C-125.65 -19.46 -53.96 -27.83 0 0 Z " fill="#040405" transform="translate(217,23)"/>
<path d="M0 0 C0.56 0.41 1.12 0.81 1.7 1.23 C4.51 2.93 7.14 4.06 10.3 4.96 C11.12 5.19 11.94 5.42 12.79 5.67 C16.46 6.66 20.14 7.62 23.82 8.54 C23.84 9.86 23.85 11.18 23.87 12.53 C24.1 25.14 24.1 25.14 28.49 36.81 C33.24 46.55 33.22 57.25 33.01 67.86 C33 69.19 32.98 70.53 32.97 71.87 C32.94 75.09 32.89 78.32 32.82 81.54 C33.53 81.76 34.23 81.99 34.96 82.21 C38.21 83.24 41.45 84.26 44.7 85.29 C45.81 85.64 46.92 85.99 48.06 86.35 C54.77 88.48 61.32 90.83 67.82 93.54 C68.87 93.96 69.91 94.38 70.99 94.81 C73.27 95.72 75.55 96.63 77.82 97.54 C77.49 98.86 77.16 100.18 76.82 101.54 C62.81 98.5 49.22 93.62 35.82 88.54 C33.83 87.87 31.83 87.19 29.82 86.54 C29.56 87.39 29.29 88.24 29.02 89.12 C22.82 106.86 10.95 121.82 -5.18 131.54 C-6.17 130.88 -7.16 130.22 -8.18 129.54 C-8.18 128.55 -8.18 127.56 -8.18 126.54 C-6.34 125.07 -6.34 125.07 -3.8 123.48 C11.31 113.26 19.43 99.64 24.82 82.54 C25.19 81.66 25.56 80.78 25.94 79.88 C27.28 74.82 27.11 69.87 27.07 64.67 C27.08 63.62 27.09 62.57 27.1 61.48 C27.08 55.46 26.5 50.32 24.82 44.54 C24.7 41.54 24.7 41.54 24.82 39.54 C24.16 39.54 23.5 39.54 22.82 39.54 C22.86 40.22 22.89 40.9 22.93 41.61 C23.55 63.74 15.17 86.42 5.26 105.92 C4.72 106.98 4.19 108.04 3.63 109.13 C1.82 111.54 1.82 111.54 -0.89 112.39 C-1.64 112.44 -2.4 112.49 -3.18 112.54 C-2.57 107.68 -0.45 103.8 1.82 99.54 C-6.34 99.75 -11.51 102.17 -17.49 107.67 C-20.03 112 -21.05 116.67 -22.18 121.54 C-18.88 121.54 -15.58 121.54 -12.18 121.54 C-14.3 125.79 -16.21 128.88 -20.18 131.54 C-23.18 132.24 -25.99 132.12 -29.05 131.92 C-29.83 131.89 -30.62 131.86 -31.43 131.84 C-33.34 131.77 -35.26 131.66 -37.18 131.54 C-35.34 135.86 -35.34 135.86 -31.99 138.92 C-31.39 139.12 -30.79 139.33 -30.18 139.54 C-29.25 138.55 -29.25 138.55 -28.3 137.54 C-26.18 135.54 -26.18 135.54 -24.18 135.54 C-24.61 136.38 -24.61 136.38 -25.05 137.23 C-26.23 139.52 -26.23 139.52 -26.95 141.99 C-28.47 145.16 -29.94 146.03 -32.99 147.73 C-33.84 148.22 -34.69 148.71 -35.57 149.21 C-40.74 151.85 -44.47 153.37 -50.18 151.54 C-55.82 148.99 -60.85 145.93 -65.61 141.98 C-69.81 138.56 -74.12 136.8 -79.13 134.84 C-98.01 126.8 -111.38 110.12 -119.18 91.54 C-119.52 90.21 -119.86 88.88 -120.18 87.54 C-127.28 88.78 -133.98 90.63 -140.8 92.98 C-141.69 93.28 -142.58 93.58 -143.5 93.89 C-147.53 95.26 -151.54 96.67 -155.51 98.19 C-158.43 99.27 -161.14 100.11 -164.18 100.73 C-164.94 100.89 -165.7 101.05 -166.49 101.21 C-167.32 101.38 -167.32 101.38 -168.18 101.54 C-168.18 99.89 -168.18 98.24 -168.18 96.54 C-162.11 94.4 -156.04 92.26 -149.97 90.13 C-147.9 89.41 -145.84 88.68 -143.77 87.95 C-140.81 86.9 -137.84 85.86 -134.88 84.82 C-133.49 84.33 -133.49 84.33 -132.07 83.83 C-131.21 83.53 -130.35 83.23 -129.46 82.92 C-128.71 82.65 -127.95 82.39 -127.17 82.11 C-125.18 81.54 -125.18 81.54 -122.18 81.54 C-122.42 80.16 -122.42 80.16 -122.66 78.76 C-123.4 73.55 -123.36 68.35 -123.36 63.11 C-123.38 62.11 -123.39 61.11 -123.4 60.08 C-123.41 54.18 -122.89 49.19 -121.18 43.54 C-120.85 42.45 -120.52 41.36 -120.18 40.24 C-119.85 39.25 -119.52 38.25 -119.18 37.23 C-118.85 36.22 -118.52 35.22 -118.18 34.18 C-117.18 31.54 -117.18 31.54 -115.18 28.54 C-114.81 26.32 -114.81 26.32 -114.76 23.88 C-114.72 22.98 -114.68 22.09 -114.64 21.17 C-114.6 19.78 -114.6 19.78 -114.55 18.36 C-114.51 17.42 -114.47 16.47 -114.43 15.51 C-114.34 13.19 -114.25 10.86 -114.18 8.54 C-112.36 7.94 -110.55 7.33 -108.74 6.73 C-107.64 6.36 -106.54 5.99 -105.4 5.61 C-103.53 4.99 -101.66 4.39 -99.76 3.86 C-94.17 2.23 -89.84 -0.49 -84.99 -3.68 C-76.91 -8.77 -68.47 -11.49 -59.18 -13.46 C-57.98 -13.74 -57.98 -13.74 -56.77 -14.02 C-37.01 -17.33 -16.4 -10.98 0 0 Z " fill="#BAC0C4" transform="translate(196.17578125,86.45703125)"/>
<path d="M0 0 C1.08 0.01 1.08 0.01 2.19 0.01 C32.38 0.21 60.71 10.89 83.81 30.44 C84.78 31.25 85.75 32.07 86.74 32.91 C110.78 53.95 126.57 85.46 129.04 117.34 C129.69 131.49 129.78 148.3 123.81 161.44 C120.81 160.5 117.81 159.56 114.81 158.62 C113.97 158.36 113.13 158.1 112.27 157.83 C107.74 156.41 103.27 154.89 98.84 153.19 C94.25 151.48 89.57 150.02 84.91 148.51 C78.92 146.54 78.92 146.54 77.81 145.44 C77.77 143.48 77.8 141.52 77.86 139.56 C78.68 117.37 78.68 117.37 71.69 96.68 C69.19 91.82 69.36 87.29 69.56 81.94 C69.58 81.02 69.6 80.1 69.62 79.16 C69.66 76.92 69.73 74.68 69.81 72.44 C68.27 72.24 68.27 72.24 66.7 72.04 C57.25 70.58 49.46 67.58 41.55 62.24 C24.76 51.19 4.33 47.76 -15.38 51.62 C-27.45 54.54 -38.26 60.01 -48.48 67.01 C-52.18 68.96 -55.93 69.75 -60 70.62 C-60.79 70.8 -61.58 70.98 -62.39 71.16 C-64.32 71.6 -66.25 72.02 -68.19 72.44 C-68.17 73 -68.15 73.57 -68.12 74.15 C-68.04 76.74 -67.99 79.34 -67.94 81.94 C-67.89 83.27 -67.89 83.27 -67.84 84.62 C-67.74 90.99 -69.02 94.99 -72.19 100.44 C-72.79 101.96 -73.37 103.5 -73.88 105.06 C-74.11 105.76 -74.34 106.45 -74.57 107.16 C-75.97 112.32 -76.31 117.25 -76.29 122.59 C-76.28 123.57 -76.28 123.57 -76.28 124.58 C-76.28 126.66 -76.26 128.73 -76.25 130.81 C-76.24 132.23 -76.24 133.65 -76.24 135.07 C-76.23 138.52 -76.21 141.98 -76.19 145.44 C-82.42 147.58 -88.65 149.71 -94.88 151.85 C-97 152.57 -99.12 153.3 -101.24 154.03 C-104.28 155.07 -107.32 156.12 -110.37 157.16 C-111.32 157.48 -112.27 157.81 -113.25 158.15 C-114.13 158.45 -115.01 158.75 -115.92 159.06 C-117.09 159.46 -117.09 159.46 -118.28 159.87 C-120.19 160.44 -120.19 160.44 -122.19 160.44 C-122.52 161.43 -122.85 162.42 -123.19 163.44 C-130.17 131.73 -129.46 99.7 -114.19 70.44 C-113.87 69.82 -113.55 69.21 -113.23 68.58 C-109.01 60.53 -104.16 53.29 -98.19 46.44 C-97.49 45.62 -96.79 44.8 -96.07 43.95 C-78.48 23.8 -56.26 9.7 -30.19 3.44 C-29.15 3.17 -28.11 2.91 -27.04 2.64 C-17.96 0.48 -9.27 -0.08 0 0 Z " fill="#024399" transform="translate(150.1875,22.5625)"/>
<path d="M0 0 C1.48 0.74 1.48 0.74 2.98 1.5 C36.16 18.77 60.06 49.86 71.39 85.08 C78.6 108.62 80.39 136 74 160 C73.7 161.17 73.7 161.17 73.4 162.36 C65.39 193.15 48.25 220.43 23 240 C22.13 240.72 21.26 241.44 20.37 242.18 C-7.57 264.55 -45 273.91 -80.32 270.49 C-118.51 266.22 -152.11 248.1 -177.31 219.12 C-201.98 188.21 -213.2 149.68 -208.98 110.4 C-205.21 78.71 -191.05 51.64 -170 28 C-169.38 27.29 -168.76 26.59 -168.12 25.86 C-125.65 -19.46 -53.96 -27.83 0 0 Z M-153 25 C-154.34 26.11 -154.34 26.11 -155.71 27.25 C-161.91 32.59 -167.03 38.51 -172 45 C-172.68 45.88 -173.36 46.75 -174.06 47.65 C-187.43 65.4 -194.85 84.32 -199 106 C-199.26 107.17 -199.26 107.17 -199.53 108.37 C-205.11 139.83 -195.63 176.28 -177.75 202.36 C-172.93 208.96 -167.61 215.07 -162 221 C-161.16 221.91 -160.31 222.81 -159.45 223.75 C-152.91 230.57 -145.98 235.96 -138 241 C-136.42 242.02 -136.42 242.02 -134.8 243.05 C-104.35 261.58 -68.93 265.41 -34.38 257.81 C-0.25 248.74 29.98 228.48 48.24 197.76 C53.45 188.68 58 179.34 61.23 169.37 C61.73 167.82 62.26 166.27 62.8 164.73 C73.42 134.42 69.55 99.69 56 70.87 C49.25 56.92 40.64 45.29 30 34 C29.41 33.35 28.82 32.7 28.22 32.02 C8.79 11.32 -23.21 -4.98 -51.8 -6.11 C-89.86 -6.8 -123.21 0.2 -153 25 Z " fill="#BEC3C6" transform="translate(217,23)"/>
<path d="M0 0 C0.85 -0 1.7 -0 2.57 -0 C24.06 0.04 43.64 3.58 64 10.38 C64.05 14.39 64.09 18.41 64.11 22.42 C64.12 24.44 64.15 26.46 64.18 28.48 C64.23 38.58 63.64 48.58 61 58.38 C60.25 58.31 59.5 58.24 58.73 58.16 C49.45 57.67 43.99 59.93 37.11 66.06 C24.05 79.74 17.43 100.17 14 118.38 C11.36 118.38 8.72 118.38 6 118.38 C6.55 106.65 10.14 95.55 14.02 84.56 C14.28 83.81 14.54 83.06 14.81 82.29 C15.89 79.21 16.97 76.13 18.09 73.06 C22.86 59.94 26.01 47.31 20.25 33.79 C16.11 25.77 9.49 18.42 2 13.38 C-4.2 13.41 -8.8 18.27 -13 22.38 C-21.02 32.43 -24.36 42.03 -23.35 54.9 C-22.09 63.85 -18.57 72.5 -15.62 81 C-14.23 85.09 -12.84 89.19 -11.48 93.29 C-11.15 94.26 -10.83 95.23 -10.5 96.23 C-8.11 103.57 -6.58 110.65 -6 118.38 C-8.97 118.38 -11.94 118.38 -15 118.38 C-15.09 117.41 -15.09 117.41 -15.19 116.42 C-17.44 99.1 -25.39 77.81 -38 65.38 C-43.72 61.3 -48.56 58.23 -55.62 58.31 C-57.13 58.33 -57.13 58.33 -58.66 58.34 C-59.43 58.35 -60.21 58.36 -61 58.38 C-64.18 51.59 -64.15 44.28 -64.1 36.94 C-64.1 36.17 -64.09 35.41 -64.09 34.62 C-64.09 32.2 -64.08 29.79 -64.06 27.38 C-64.06 25.73 -64.05 24.08 -64.05 22.43 C-64.04 18.41 -64.02 14.39 -64 10.38 C-58.24 7.82 -52.72 6.18 -46.56 4.81 C-45.68 4.6 -44.8 4.4 -43.88 4.18 C-29.3 0.88 -14.9 -0.03 0 0 Z " fill="#050607" transform="translate(151,88.625)"/>
<path d="M0 0 C3.45 1.35 5.87 3.5 8.51 6.01 C9.04 6.51 9.57 7 10.11 7.51 C18.77 15.86 23.6 24.55 24 36.69 C24.08 46.09 21.01 54.28 17.82 63.01 C16.74 66.07 15.66 69.13 14.59 72.2 C14.33 72.94 14.07 73.68 13.8 74.45 C10.21 84.74 7.49 95.28 5.57 106.01 C8.21 106.01 10.85 106.01 13.57 106.01 C13.7 104.86 13.82 103.7 13.95 102.51 C16.34 83.52 25.61 61.65 40.68 49.42 C45.66 45.73 49.44 44.68 55.52 44.61 C57.57 45.01 57.57 45.01 60.57 48.01 C58.59 54.94 56.61 61.87 54.57 69.01 C51.6 69.32 51.6 69.32 48.57 69.64 C40.93 70.85 36.45 73.08 31.86 79.35 C26.24 88.26 24.04 96.64 22.57 107.01 C25.87 107.01 29.17 107.01 32.57 107.01 C30.45 111.26 28.54 114.35 24.57 117.01 C21.57 117.7 18.76 117.59 15.7 117.39 C14.92 117.36 14.13 117.33 13.32 117.3 C11.41 117.23 9.49 117.13 7.57 117.01 C8.05 117.92 8.52 118.83 9.01 119.76 C10.22 122.28 11.05 124.31 11.57 127.01 C9.95 128.02 8.33 129.02 6.7 130.01 C5.79 130.57 4.89 131.13 3.96 131.7 C1.57 133.01 1.57 133.01 -0.43 133.01 C-0.43 128.06 -0.43 123.11 -0.43 118.01 C-2.98 118.06 -2.98 118.06 -5.58 118.11 C-24.59 118.13 -24.59 118.13 -29.09 114.98 C-34.43 109.49 -34.43 109.49 -34.43 107.01 C-31.13 107.01 -27.83 107.01 -24.43 107.01 C-26.33 93.64 -28.32 81.95 -39.43 73.01 C-44.47 69.65 -49.51 69.35 -55.43 69.01 C-58.27 61.86 -60.73 54.73 -61.43 47.01 C-61.1 46.35 -60.77 45.69 -60.43 45.01 C-51.06 44.13 -45.77 46.7 -38.44 52.29 C-26.12 62.76 -18.48 83.53 -15.43 99.01 C-15.37 101.34 -15.35 103.68 -15.43 106.01 C-12.46 106.01 -9.49 106.01 -6.43 106.01 C-8.52 95.53 -11.22 85.39 -14.65 75.27 C-14.94 74.41 -15.23 73.55 -15.53 72.66 C-17.01 68.29 -18.51 63.93 -20.06 59.58 C-24.15 47.76 -27.65 34.43 -22.65 22.22 C-18.52 14.79 -9.65 0.05 0 0 Z " fill="#FAFBFB" transform="translate(151.42578125,100.98828125)"/>
<path d="M0 0 C0.66 0 1.32 0 2 0 C8.48 19.74 6.2 39.98 -2.64 58.42 C-9.09 70.29 -19.23 81.27 -31 88 C-30.01 88.99 -29.02 89.98 -28 91 C-12.6 80.43 -0.94 68.02 5 50 C5.33 50.66 5.66 51.32 6 52 C8.35 52.69 8.35 52.69 11.06 53.12 C11.98 53.29 12.9 53.46 13.85 53.63 C14.91 53.81 14.91 53.81 16 54 C16.26 62.58 16.45 71.16 16.57 79.74 C16.63 83.73 16.7 87.71 16.83 91.7 C16.95 95.55 17.02 99.4 17.04 103.25 C17.06 104.71 17.1 106.18 17.16 107.64 C17.61 119.06 17.61 119.06 13.62 123.87 C10.85 126.18 8.08 128.13 5 130 C3.87 130.73 3.87 130.73 2.72 131.48 C0.91 132.64 -0.92 133.67 -2.81 134.69 C-3.49 135.06 -4.16 135.43 -4.85 135.81 C-14.83 141.17 -24.97 145.32 -36 148 C-36 144.04 -36 140.08 -36 136 C-37.98 136 -39.96 136 -42 136 C-42.33 135.01 -42.66 134.02 -43 133 C-41.02 132.67 -39.04 132.34 -37 132 C-36.67 131.01 -36.34 130.02 -36 129 C-37.98 129.33 -39.96 129.66 -42 130 C-42 129.01 -42 128.02 -42 127 C-40.51 126.5 -40.51 126.5 -39 126 C-39 125.34 -39 124.68 -39 124 C-41.97 124.99 -41.97 124.99 -45 126 C-45 124.68 -45 123.36 -45 122 C-42 120 -42 120 -36 120 C-36 112.08 -36 104.16 -36 96 C-44.49 99.13 -44.49 99.13 -48 103 C-48.99 102.67 -49.98 102.34 -51 102 C-49.68 100.02 -48.36 98.04 -47 96 C-48.98 97.65 -50.96 99.3 -53 101 C-56.35 99.61 -58.11 98.11 -60 95 C-60 94.01 -60 93.02 -60 92 C-58.85 92.01 -57.71 92.02 -56.53 92.03 C-46.67 92.27 -46.67 92.27 -38.5 87.56 C-37.07 85.75 -36.03 84.06 -35 82 C-38.3 82 -41.6 82 -45 82 C-44.53 75.37 -43.32 70.36 -38.54 65.52 C-34.26 61.81 -30.95 59.71 -25.25 59.88 C-24.45 59.89 -23.65 59.91 -22.83 59.93 C-22.22 59.95 -21.62 59.98 -21 60 C-21.57 62.61 -22.14 64.24 -23.56 66.56 C-25.25 68.96 -25.25 68.96 -25 72 C-19.45 69.59 -17.91 65.68 -15.56 60.44 C-14.98 59.18 -14.98 59.18 -14.39 57.89 C-10.6 49.46 -7.63 40.85 -5 32 C-4.68 30.98 -4.37 29.96 -4.04 28.91 C-1.37 19.5 -0.82 9.71 0 0 Z " fill="#004198" transform="translate(219,126)"/>
<path d="M0 0 C1.43 2.56 2.73 5.11 4 7.75 C10.57 20.69 19.8 33.15 33.54 39.1 C36.47 40.5 38.67 41.74 41 44 C42.24 48.34 41.95 52.4 41.62 56.88 C41.58 58.04 41.53 59.21 41.49 60.41 C41.37 63.28 41.21 66.14 41 69 C43.31 69 45.62 69 48 69 C47.35 72.52 46.49 75.89 45.44 79.31 C45.17 80.2 44.9 81.08 44.62 81.99 C44.42 82.65 44.21 83.32 44 84 C43.01 84 42.02 84 41 84 C41 87.96 41 91.92 41 96 C22.96 94 5.96 83 -8 72 C-8.99 71.34 -9.98 70.68 -11 70 C-11.36 67.18 -11.36 67.18 -11.34 63.53 C-11.34 62.87 -11.34 62.2 -11.34 61.52 C-11.34 59.32 -11.32 57.13 -11.29 54.93 C-11.29 53.41 -11.28 51.89 -11.28 50.36 C-11.27 46.36 -11.24 42.35 -11.21 38.34 C-11.18 34.25 -11.16 30.16 -11.15 26.07 C-11.11 18.05 -11.06 10.02 -11 2 C-9.73 1.47 -8.46 0.95 -7.19 0.44 C-6.48 0.15 -5.77 -0.14 -5.04 -0.44 C-3 -1 -3 -1 0 0 Z " fill="#004198" transform="translate(78,178)"/>
<path d="M0 0 C0.56 0.23 1.13 0.46 1.71 0.7 C1.38 1.03 1.05 1.36 0.71 1.7 C0.6 3.05 0.56 4.41 0.55 5.77 C0.53 7.08 0.53 7.08 0.52 8.42 C0.51 9.39 0.51 10.36 0.5 11.36 C0.49 12.88 0.49 12.88 0.47 14.43 C0.44 17.8 0.42 21.18 0.39 24.55 C0.37 26.88 0.35 29.21 0.33 31.54 C0.27 37.68 0.22 43.83 0.17 49.98 C0.12 56.25 0.07 62.51 0.01 68.78 C-0.09 81.09 -0.2 93.39 -0.29 105.7 C-2.27 105.7 -4.25 105.7 -6.29 105.7 C-6.5 104.65 -6.71 103.6 -6.93 102.51 C-8.94 93.13 -11.44 84.05 -14.52 74.96 C-14.81 74.1 -15.1 73.23 -15.4 72.34 C-16.88 67.97 -18.38 63.61 -19.92 59.27 C-24.01 47.44 -27.52 34.12 -22.52 21.91 C-18.78 15.18 -9.05 -1.19 0 0 Z " fill="#C1C6C9" transform="translate(151.29296875,101.30078125)"/>
<path d="M0 0 C0.33 0 0.66 0 1 0 C1 1.74 1 1.74 1.01 3.52 C1.17 12.45 1.82 19.1 6.43 26.97 C11.48 36.72 11.4 47.59 11.19 58.31 C11.17 59.65 11.16 60.99 11.15 62.33 C11.11 65.55 11.06 68.78 11 72 C11.7 72.22 12.41 72.44 13.14 72.67 C16.38 73.69 19.63 74.72 22.88 75.75 C23.98 76.1 25.09 76.45 26.23 76.8 C32.95 78.94 39.5 81.29 46 84 C47.04 84.42 48.09 84.84 49.16 85.27 C52.58 86.63 52.58 86.63 56 88 C55.5 89.98 55.5 89.98 55 92 C40.98 88.95 27.4 84.07 14 79 C12 78.32 10 77.65 8 77 C7.73 77.85 7.47 78.7 7.2 79.58 C1 97.32 -10.88 112.28 -27 122 C-27.99 121.34 -28.98 120.68 -30 120 C-30 119.01 -30 118.02 -30 117 C-28.16 115.53 -28.16 115.53 -25.62 113.94 C-10.51 103.71 -2.4 90.09 3 73 C3.37 72.12 3.74 71.24 4.12 70.33 C5.46 65.28 5.29 60.33 5.25 55.12 C5.26 54.07 5.27 53.02 5.27 51.94 C5.26 45.92 4.67 40.78 3 35 C2.88 32 2.88 32 3 30 C2.34 30 1.68 30 1 30 C1.05 31.02 1.05 31.02 1.11 32.06 C1.72 54.19 -6.65 76.88 -16.56 96.38 C-17.1 97.43 -17.64 98.49 -18.19 99.59 C-20 102 -20 102 -22.71 102.85 C-23.47 102.9 -24.22 102.95 -25 103 C-24.39 98.14 -22.27 94.26 -20 90 C-26.85 90.17 -31.65 91.65 -37 96 C-39.32 98.56 -41.09 101.13 -43 104 C-42.58 94.83 -37.6 85.29 -31 79 C-24.8 74.37 -19.65 73.28 -12 74 C-11.84 73.13 -11.84 73.13 -11.67 72.23 C-10.74 67.43 -9.7 62.68 -8.5 57.94 C-8.24 56.92 -7.99 55.9 -7.72 54.86 C-7.3 53.17 -6.87 51.48 -6.43 49.8 C-3.05 35.8 -2.56 21.33 -2 7 C-1.67 7 -1.34 7 -1 7 C-0.67 4.69 -0.34 2.38 0 0 Z " fill="#B9BFC3" transform="translate(218,96)"/>
<path d="M0 0 C0 20.79 0 41.58 0 63 C-2.47 60.53 -2.47 60.53 -5 58 C-6.49 56.89 -8.01 55.82 -9.56 54.81 C-10.68 54.08 -10.68 54.08 -11.82 53.33 C-15.92 50.83 -19.2 49.66 -24 49 C-24.32 47.48 -24.63 45.96 -24.94 44.44 C-25.11 43.59 -25.29 42.74 -25.46 41.87 C-25.64 40.92 -25.82 39.98 -26 39 C-26.19 38.02 -26.37 37.04 -26.56 36.03 C-27.39 30.09 -27.1 24.04 -27.06 18.06 C-27.06 16.81 -27.05 15.55 -27.05 14.26 C-27.04 11.17 -27.02 8.09 -27 5 C-23.63 4.16 -20.25 3.33 -16.88 2.5 C-15.92 2.26 -14.97 2.02 -13.99 1.78 C-13.06 1.55 -12.14 1.33 -11.18 1.09 C-10.33 0.88 -9.48 0.67 -8.61 0.46 C-6 0 -6 0 0 0 Z " fill="#004197" transform="translate(119,97)"/>
<path d="M0 0 C6.68 0.67 12.7 1.45 19.12 3.06 C19.89 3.25 20.66 3.44 21.45 3.63 C23.3 4.08 25.15 4.54 27 5 C27.36 20.01 26.95 34.26 24 49 C23.11 49.17 23.11 49.17 22.2 49.34 C12.82 51.24 6.78 55.41 1 63 C0.67 63 0.34 63 0 63 C0 42.21 0 21.42 0 0 Z " fill="#004198" transform="translate(183,97)"/>
<path d="M0 0 C11.24 5.7 11.24 5.7 16.1 9.22 C20.11 11.68 24.07 12.74 28.6 13.89 C32.87 15.01 32.87 15.01 37.23 16.14 C37.23 22.41 37.23 28.68 37.23 35.14 C36.9 35.14 36.57 35.14 36.23 35.14 C35.9 31.84 35.57 28.54 35.23 25.14 C34.9 25.14 34.57 25.14 34.23 25.14 C33.9 31.41 33.57 37.68 33.23 44.14 C32.9 44.14 32.57 44.14 32.23 44.14 C32.23 36.22 32.23 28.3 32.23 20.14 C30.25 19.81 28.27 19.48 26.23 19.14 C24.26 18.56 22.31 17.95 20.35 17.33 C9.86 14.24 -0.98 12.8 -11.77 11.14 C-11.13 11.04 -10.49 10.94 -9.83 10.83 C-9.15 10.6 -8.47 10.38 -7.77 10.14 C-7.44 9.15 -7.11 8.16 -6.77 7.14 C-12.71 6.41 -18.49 5.98 -24.47 5.97 C-25.27 5.97 -26.07 5.97 -26.89 5.96 C-28.56 5.96 -30.24 5.96 -31.92 5.96 C-34.44 5.95 -36.95 5.94 -39.47 5.92 C-49.11 5.88 -58.27 6.42 -67.77 8.14 C-66.18 4.97 -62.98 4.38 -59.83 3.14 C-59.21 2.88 -58.58 2.62 -57.93 2.35 C-48.94 -1.23 -40.27 -2.16 -30.65 -1.98 C-29.69 -1.97 -28.73 -1.97 -27.75 -1.96 C-25.42 -1.93 -23.1 -1.9 -20.77 -1.86 C-20.77 -2.52 -20.77 -3.18 -20.77 -3.86 C-14.04 -6.1 -6.17 -2.99 0 0 Z " fill="#B2B8BD" transform="translate(182.77099609375,78.8583984375)"/>
<path d="M0 0 C0 0.66 0 1.32 0 2 C-0.99 2 -1.98 2 -3 2 C-3 2.66 -3 3.32 -3 4 C-3.55 4.01 -4.1 4.02 -4.67 4.03 C-20.44 4.36 -34.68 5.84 -49 13 C-48.28 12.86 -47.57 12.72 -46.83 12.57 C-37.6 10.92 -28.63 10.72 -19.28 10.79 C-16.74 10.81 -14.2 10.81 -11.66 10.81 C-10.02 10.82 -8.38 10.83 -6.73 10.83 C-5.62 10.83 -5.62 10.83 -4.48 10.84 C9.96 10.96 9.96 10.96 13 14 C12.01 14 11.02 14 10 14 C10 14.66 10 15.32 10 16 C8.81 16.01 7.63 16.03 6.4 16.04 C-21.78 16.42 -47.95 17.32 -75.1 25.5 C-77 26 -77 26 -79 26 C-79 34.91 -79 43.82 -79 53 C-79.33 53 -79.66 53 -80 53 C-80.33 45.08 -80.66 37.16 -81 29 C-81.33 29 -81.66 29 -82 29 C-82.25 26.19 -82.25 26.19 -82 23 C-78.8 19.76 -75.23 19.2 -70.88 18.25 C-64.76 16.78 -60.53 14.68 -55.52 10.8 C-47.33 4.93 -37.76 2 -28 0 C-27.21 -0.19 -26.42 -0.37 -25.61 -0.57 C-17.3 -1.95 -8.3 -1.36 0 0 Z " fill="#B8BFC5" transform="translate(165,73)"/>
<path d="M0 0 C1.65 2.96 2.36 5.44 2.79 8.8 C6.68 36.61 15.73 64.85 35 86 C34.67 86.66 34.34 87.32 34 88 C15.34 76.16 2.4 59.98 -2.65 38.19 C-3.16 33.56 -3.19 28.96 -3.19 24.31 C-3.19 23.33 -3.19 22.35 -3.19 21.34 C-3.07 6.13 -3.07 6.13 0 0 Z " fill="#0A0A0B" transform="translate(81,127)"/>
<path d="M0 0 C0.66 0 1.32 0 2 0 C8.48 19.74 6.2 39.98 -2.64 58.42 C-9.37 70.82 -19.99 81.61 -32 89 C-32.66 88.67 -33.32 88.34 -34 88 C-33.6 87.6 -33.2 87.19 -32.79 86.78 C-18.67 71.7 -10.91 51.44 -5 32 C-4.68 30.98 -4.36 29.95 -4.03 28.89 C-1.38 19.48 -0.82 9.71 0 0 Z " fill="#080808" transform="translate(219,126)"/>
<path d="M0 0 C0.8 0.02 1.6 0.04 2.42 0.05 C3.03 0.08 3.63 0.1 4.25 0.12 C3.68 2.73 3.11 4.36 1.69 6.69 C-0 9.08 -0 9.08 0.25 12.12 C1.24 11.79 2.23 11.47 3.25 11.12 C2.64 15.07 0.67 17.59 -1.69 20.75 C-2.4 21.71 -3.11 22.67 -3.84 23.66 C-5.75 26.12 -5.75 26.12 -7.75 28.12 C-6.76 28.78 -5.77 29.44 -4.75 30.12 C-4.75 31.12 -4.75 32.1 -4.75 33.12 C-5.49 33.45 -6.22 33.78 -6.98 34.11 C-7.96 34.55 -8.93 34.99 -9.94 35.44 C-10.9 35.87 -11.86 36.3 -12.86 36.74 C-15.6 38.06 -18.16 39.53 -20.75 41.12 C-22.08 41.81 -23.41 42.48 -24.75 43.12 C-24.75 39.61 -23.93 38.75 -21.75 36.12 C-24.72 38.6 -24.72 38.6 -27.75 41.12 C-31.1 39.74 -32.86 38.24 -34.75 35.12 C-34.75 34.13 -34.75 33.15 -34.75 32.12 C-33.6 32.13 -32.46 32.14 -31.28 32.15 C-21.42 32.39 -21.42 32.39 -13.25 27.69 C-11.82 25.87 -10.78 24.19 -9.75 22.12 C-13.05 22.12 -16.35 22.12 -19.75 22.12 C-19.28 15.49 -18.07 10.49 -13.29 5.65 C-9.01 1.94 -5.7 -0.17 0 0 Z " fill="#BBC0C3" transform="translate(193.75,185.875)"/>
<path d="M0 0 C0 0.33 0 0.66 0 1 C-1.65 0.86 -3.29 0.71 -4.94 0.56 C-6.31 0.44 -6.31 0.44 -7.71 0.32 C-9.47 0.15 -11.23 -0.03 -12.98 -0.24 C-18.24 -0.88 -23.4 -1.16 -28.7 -1.17 C-29.5 -1.17 -30.29 -1.17 -31.12 -1.18 C-32.79 -1.18 -34.47 -1.19 -36.15 -1.19 C-38.66 -1.19 -41.18 -1.21 -43.7 -1.22 C-53.33 -1.26 -62.49 -0.72 -72 1 C-69.72 -3.55 -60.71 -5.34 -56 -7 C-37.39 -13.18 -17.03 -8.36 0 0 Z " fill="#121313" transform="translate(187,86)"/>
<path d="M0 0 C0.8 0.02 1.6 0.04 2.42 0.05 C3.03 0.08 3.63 0.1 4.25 0.12 C3.6 4.14 1.51 7.25 -0.62 10.62 C-1.15 11.48 -1.15 11.48 -1.69 12.35 C-2.69 13.95 -3.72 15.54 -4.75 17.12 C-5.21 17.91 -5.68 18.7 -6.15 19.52 C-7.75 21.12 -7.75 21.12 -10.45 21.52 C-11.93 21.45 -11.93 21.45 -13.44 21.38 C-14.43 21.34 -15.43 21.3 -16.45 21.27 C-17.59 21.2 -17.59 21.2 -18.75 21.12 C-19.21 15.45 -18.23 11.6 -14.75 7.12 C-10.4 2.72 -6.29 -0.18 0 0 Z " fill="#07080B" transform="translate(193.75,185.875)"/>
<path d="M0 0 C6.09 -0.52 10.84 0.61 16 4 C21.19 9.49 23.14 13.44 23 21 C13.57 22.21 13.57 22.21 10.14 19.57 C8.56 17.46 7.28 15.31 6 13 C5.44 12.12 4.88 11.25 4.31 10.35 C0 3.54 0 3.54 0 0 Z " fill="#07080A" transform="translate(104,186)"/>
<path d="M0 0 C4.57 2.14 4.57 2.14 6 5 C6.41 9.64 5.87 12.3 3 16 C0.04 18.31 -3.31 18.54 -7.03 18.45 C-9 18 -9 18 -12 15.38 C-14.18 11.7 -14.8 10.17 -14 6 C-10.13 0.2 -6.84 -0.76 0 0 Z " fill="#E8EEF6" transform="translate(125,42)"/>
<path d="M0 0 C4.06 2.03 5.81 3.75 8.75 7.12 C9.55 8.04 10.35 8.95 11.17 9.88 C11.78 10.58 12.38 11.28 13 12 C12.67 12.99 12.34 13.98 12 15 C10.12 14.75 10.12 14.75 8 14 C6.75 11.94 6.75 11.94 6 10 C5.34 10 4.68 10 4 10 C4 13.63 4 17.26 4 21 C0.7 20.01 -2.6 19.02 -6 18 C-5.5 18.76 -5.01 19.53 -4.5 20.31 C-3 23 -3 23 -3 26 C-4.32 26.33 -5.64 26.66 -7 27 C-8.34 24.71 -9.67 22.42 -11 20.12 C-11.38 19.47 -11.76 18.82 -12.16 18.15 C-15 13.23 -15 13.23 -15 11 C-9.86 11.95 -4.99 13.47 0 15 C0 10.05 0 5.1 0 0 Z " fill="#E8EEF6" transform="translate(92,53)"/>
<path d="M0 0 C4.64 1.73 7.5 3.5 11 7 C11.56 9.62 11.56 9.62 11 12 C9.69 13.81 9.69 13.81 8 15 C7.01 15 6.02 15 5 15 C5 17.64 5 20.28 5 23 C3.68 22.34 2.36 21.68 1 21 C1 18.03 1 15.06 1 12 C0.01 12 -0.98 12 -2 12 C-2.66 13.65 -3.32 15.3 -4 17 C-5.32 16.67 -6.64 16.34 -8 16 C-7.44 11.65 -5.85 8.82 -3.44 5.19 C-2.8 4.21 -2.16 3.24 -1.5 2.23 C-0.76 1.13 -0.76 1.13 0 0 Z " fill="#EAF0F7" transform="translate(202,50)"/>
<path d="M0 0 C3.14 1.57 5.51 3.02 8.25 5.12 C8.96 5.66 9.66 6.2 10.39 6.76 C10.92 7.17 11.45 7.58 12 8 C12.33 5.36 12.66 2.72 13 0 C14.65 0 16.3 0 18 0 C18 5.94 18 11.88 18 18 C14.63 16.32 12.16 14.69 9.25 12.38 C8.45 11.74 7.65 11.11 6.83 10.46 C6.22 9.98 5.62 9.5 5 9 C5 11.97 5 14.94 5 18 C3.35 18 1.7 18 0 18 C0 12.06 0 6.12 0 0 Z " fill="#E4EBF4" transform="translate(142,38)"/>
<path d="M0 0 C2.47 1.27 3.94 2.78 5.76 4.88 C6.7 5.93 6.7 5.93 7.66 7 C8.08 7.66 8.51 8.32 8.95 9 C8.62 9.99 8.29 10.98 7.95 12 C5.03 10.7 3.19 9.25 0.95 7 C0.29 7 -0.37 7 -1.05 7 C0.32 9.96 1.94 12.44 3.95 15 C2.2 15.75 2.2 15.75 -0.05 16 C-2.18 14.07 -2.18 14.07 -4.05 12 C-4.71 12 -5.37 12 -6.05 12 C-4.68 14.96 -3.06 17.44 -1.05 20 C-2.04 20.66 -3.03 21.32 -4.05 22 C-7.02 19.03 -9.99 16.06 -13.05 13 C-11.19 9.27 -9.54 7.14 -6.68 4.19 C-5.9 3.38 -5.13 2.57 -4.34 1.73 C-2.05 0 -2.05 0 0 0 Z " fill="#E6ECF5" transform="translate(228.05078125,67.99609375)"/>
<path d="M0 0 C6.6 0 13.2 0 20 0 C18.3 4.24 16.38 7.95 14 11.81 C13.64 12.41 13.29 13.01 12.92 13.62 C12.01 15.12 11.01 16.56 10 18 C9.34 18 8.68 18 8 18 C7.44 15.28 6.93 12.56 6.5 9.81 C6.15 7.06 6.15 7.06 5 5 C3.36 4.28 1.69 3.61 0 3 C0 2.01 0 1.02 0 0 Z " fill="#D6E1EF" transform="translate(231,97)"/>
<path d="M0 0 C0.99 0.33 1.98 0.66 3 1 C2.65 1.52 2.3 2.03 1.94 2.56 C0.64 5.94 1.33 8.5 2 12 C4.33 12.04 6.67 12.04 9 12 C10.5 10.5 10.33 9.01 10.56 6.94 C10.71 5.64 10.85 4.34 11 3 C12.32 3 13.64 3 15 3 C15.45 11.81 15.45 11.81 12 16 C8.79 18.32 5.88 18.55 2 18 C-1.57 14.99 -3.79 12.88 -4.31 8.19 C-3.93 4.31 -2.63 2.8 0 0 Z " fill="#E5ECF4" transform="translate(44,119)"/>
<path d="M0 0 C2.59 0.48 3.46 1.22 4.97 3.36 C5.15 5.52 5.15 5.52 4.85 7.86 C4.76 8.64 4.68 9.41 4.59 10.21 C3.86 12.76 3.09 13.78 0.97 15.36 C-5.18 16.02 -5.18 16.02 -7.96 13.86 C-8.32 13.37 -8.67 12.87 -9.03 12.36 C-6.36 11.7 -3.69 11.03 -1.03 10.36 C-1.81 10.24 -2.59 10.12 -3.4 9.99 C-6.03 9.36 -6.03 9.36 -8.03 7.36 C-8.28 4.86 -8.28 4.86 -8.03 2.36 C-5.43 -0.23 -3.54 0.09 0 0 Z " fill="#E3E3E3" transform="translate(142.02734375,249.63671875)"/>
<path d="M0 0 C0.99 0 1.98 0 3 0 C2.33 3.33 1.67 6.67 1 10 C1.66 10.33 2.32 10.66 3 11 C3.31 10.05 3.62 9.1 3.94 8.12 C5 5 5 5 6 3 C6.99 3.33 7.98 3.66 9 4 C8.41 7.02 7.77 10.02 7 13 C8.32 13.66 9.64 14.32 11 15 C10.67 16.65 10.34 18.3 10 20 C4.03 18.43 -0.83 15.25 -6 12 C-4.35 7.71 -2.33 3.95 0 0 Z " fill="#E7EEF6" transform="translate(54,92)"/>
<path d="M0 0 C3.56 0.25 3.56 0.25 6.56 2.25 C6.96 4.53 6.96 4.53 6.94 7.19 C6.95 8.06 6.95 8.94 6.96 9.84 C6.56 12.25 6.56 12.25 5.27 14.05 C2.52 15.98 -0.2 15.43 -3.44 15.25 C-3.44 13.93 -3.44 12.61 -3.44 11.25 C-1.46 11.25 0.52 11.25 2.56 11.25 C2.89 10.59 3.22 9.93 3.56 9.25 C2.47 9.48 1.38 9.7 0.25 9.94 C-3.44 10.25 -3.44 10.25 -5.44 9.12 C-6.44 7.25 -6.44 7.25 -6.25 4.69 C-4.96 0.81 -4.1 0.3 0 0 Z " fill="#EFEFEF" transform="translate(160.4375,249.75)"/>
<path d="M0 0 C6.2 0.42 11.27 1.6 17 4 C17 4.99 17 5.98 17 7 C14.69 6.67 12.38 6.34 10 6 C9.87 6.6 9.73 7.21 9.6 7.83 C9.33 9.03 9.33 9.03 9.06 10.25 C8.89 11.04 8.71 11.83 8.54 12.64 C8.05 14.77 7.54 16.89 7 19 C5.35 19 3.7 19 2 19 C2.67 14.33 3.33 9.67 4 5 C2.68 4.34 1.36 3.68 0 3 C0 2.01 0 1.02 0 0 Z " fill="#E3EBF4" transform="translate(172,40)"/>
<path d="M0 0 C0.12 0.78 0.25 1.57 0.38 2.38 C0.79 5.14 0.79 5.14 3 7 C3.44 9.44 3.44 9.44 3 12 C-0.29 14.73 -2.78 15.36 -7 15 C-7.33 14.01 -7.66 13.02 -8 12 C-6.02 11.67 -4.04 11.34 -2 11 C-1.67 10.01 -1.34 9.02 -1 8 C-2.98 8.33 -4.96 8.66 -7 9 C-7 8.01 -7 7.02 -7 6 C-6.01 5.67 -5.02 5.34 -4 5 C-4 4.34 -4 3.68 -4 3 C-5.98 3.66 -7.96 4.32 -10 5 C-10 3.68 -10 2.36 -10 1 C-6.15 -1.57 -4.41 -0.83 0 0 Z " fill="#E7EBEF" transform="translate(184,247)"/>
<path d="M0 0 C0 1.65 0 3.3 0 5 C-8.43 7.29 -8.43 7.29 -13 7 C-12.67 9.97 -12.34 12.94 -12 16 C-12.99 16 -13.98 16 -15 16 C-16.47 11.42 -17.11 7.86 -17 3 C-14.54 2.5 -12.08 2 -9.62 1.5 C-8.58 1.29 -8.58 1.29 -7.51 1.07 C-2.23 0 -2.23 0 0 0 Z " fill="#EBF0F7" transform="translate(260,121)"/>
<path d="M0 0 C2.44 0.81 2.44 0.81 4.44 2.81 C4.69 5.81 4.69 5.81 4.44 8.81 C2.44 10.81 2.44 10.81 -0.56 11.06 C-3.56 10.81 -3.56 10.81 -5.56 8.81 C-5.9 5.65 -6.06 3.63 -4.38 0.88 C-2.56 -0.19 -2.56 -0.19 0 0 Z " fill="#09489D" transform="translate(121.5625,45.1875)"/>
<path d="M0 0 C2.97 0 5.94 0 9 0 C8.22 4.85 6.6 9.38 5 14 C3.68 14 2.36 14 1 14 C2 6.57 2 6.57 3 3 C2.01 3 1.02 3 0 3 C0 2.01 0 1.02 0 0 Z " fill="#E6E8EC" transform="translate(117,247)"/>
<path d="M0 0 C4.95 0 9.9 0 15 0 C12.75 5.62 12.75 5.62 10 8 C6.05 6.33 3.18 3.82 0 1 C0 0.67 0 0.34 0 0 Z " fill="#0D0E0E" transform="translate(128,219)"/>
<path d="M0 0 C1.18 0.01 1.18 0.01 2.39 0.01 C4.32 0.03 6.25 0.04 8.19 0.06 C8.19 0.39 8.19 0.72 8.19 1.06 C3.73 1.56 3.73 1.56 -0.81 2.06 C-0.81 2.72 -0.81 3.38 -0.81 4.06 C7.44 4.06 15.69 4.06 24.19 4.06 C24.19 4.39 24.19 4.72 24.19 5.06 C20.06 5.14 15.94 5.19 11.81 5.23 C10.41 5.24 9.01 5.26 7.61 5.29 C-0.07 5.43 -6.79 5.51 -13.81 2.06 C-13.81 1.73 -13.81 1.4 -13.81 1.06 C-9.19 -0.11 -4.73 -0.05 0 0 Z " fill="#9A9EA0" transform="translate(137.8125,83.9375)"/>
<path d="M0 0 C4.95 0 9.9 0 15 0 C12.33 2.67 9.67 5.33 7 8 C3.64 6.61 1.93 5.08 0 2 C0 1.34 0 0.68 0 0 Z " fill="#0C0C0C" transform="translate(159,219)"/>
<path d="M0 0 C-0.65 3.81 -2.42 6.53 -4.5 9.75 C-5.13 10.73 -5.76 11.72 -6.41 12.73 C-6.93 13.48 -7.46 14.23 -8 15 C-8.33 15 -8.66 15 -9 15 C-9.33 11.37 -9.66 7.74 -10 4 C-3.38 0 -3.38 0 0 0 Z " fill="#074394" transform="translate(192,186)"/>
<path d="M0 0 C1.46 0.45 2.92 0.91 4.38 1.38 C5.19 1.63 6 1.89 6.84 2.15 C9 3 9 3 11 5 C10.98 7.38 10.98 7.38 10.62 10.12 C10.46 11.49 10.46 11.49 10.29 12.88 C10.15 13.93 10.15 13.93 10 15 C5.06 10.77 2.68 5.87 0 0 Z " fill="#044090" transform="translate(109,186)"/>
<path d="M0 0 C0.33 0 0.66 0 1 0 C1.05 4.55 1.09 9.11 1.11 13.66 C1.12 15.21 1.13 16.75 1.15 18.3 C1.18 20.53 1.19 22.77 1.2 25 C1.21 25.68 1.22 26.36 1.23 27.06 C1.23 32.04 0.34 36.25 -1 41 C-3 39 -3 39 -3.2 36.18 C-3.17 35.09 -3.15 34 -3.12 32.88 C-3.11 31.78 -3.09 30.68 -3.07 29.55 C-3.05 28.71 -3.02 27.87 -3 27 C-2.34 27 -1.68 27 -1 27 C-0.67 18.09 -0.34 9.18 0 0 Z " fill="#A1A6A8" transform="translate(86,99)"/>
<path d="M0 0 C2.87 2.59 4.35 4.19 5 8 C5.02 10.01 5.02 10.01 4.88 12.11 C4.83 12.86 4.78 13.62 4.73 14.39 C4.65 15.56 4.65 15.56 4.56 16.75 C4.51 17.54 4.46 18.34 4.4 19.15 C4.28 21.1 4.14 23.05 4 25 C3.67 25 3.34 25 3 25 C3 20.05 3 15.1 3 10 C1.68 10 0.36 10 -1 10 C-0.67 6.7 -0.34 3.4 0 0 Z " fill="#919AA3" transform="translate(74,132)"/>
<path d="M0 0 C0.66 0.33 1.32 0.66 2 1 C-4.27 7.27 -10.54 13.54 -17 20 C-17.66 19.67 -18.32 19.34 -19 19 C-13.31 12.55 -7.63 6.51 -1 1 C-0.67 0.67 -0.34 0.34 0 0 Z " fill="#151616" transform="translate(66,46)"/>
<path d="M0 0 C0.99 0.33 1.98 0.66 3 1 C2.94 1.76 2.88 2.53 2.81 3.31 C2.74 6.05 2.74 6.05 4.5 7.81 C5 8.2 5.49 8.6 6 9 C3.69 9.69 3.69 9.69 1 10 C-0.81 8.88 -0.81 8.88 -2 7 C-2.31 4.44 -2.31 4.44 -2 2 C-1.34 1.34 -0.68 0.68 0 0 Z " fill="#E4E4E4" transform="translate(136,250)"/>
<path d="M0 0 C2.93 0.37 3.86 0.86 6 3 C5.62 5.12 5.62 5.12 5 7 C3.68 6.67 2.36 6.34 1 6 C1 5.34 1 4.68 1 4 C-0.32 4.99 -1.64 5.98 -3 7 C-2.25 2.25 -2.25 2.25 0 0 Z " fill="#D3D3D3" transform="translate(157,250)"/>
<path d="M0 0 C0.99 0.99 1.98 1.98 3 3 C3.66 3 4.32 3 5 3 C4.67 5.31 4.34 7.62 4 10 C3.67 9.34 3.34 8.68 3 8 C1.35 8.33 -0.3 8.66 -2 9 C-1.34 6.03 -0.68 3.06 0 0 Z " fill="#A2A6A9" transform="translate(213,139)"/>
<path d="M0 0 C0.66 0 1.32 0 2 0 C3.62 2.5 3.62 2.5 5 5 C4.34 5 3.68 5 3 5 C2.67 6.65 2.34 8.3 2 10 C1.34 10 0.68 10 0 10 C0 6.7 0 3.4 0 0 Z " fill="#3266AD" transform="translate(96,63)"/>
<path d="M0 0 C0.66 0 1.32 0 2 0 C4.43 7.43 4.43 7.43 3 11 C3 10.01 3 9.02 3 8 C2.01 8 1.02 8 0 8 C0 5.36 0 2.72 0 0 Z " fill="#373839" transform="translate(219,126)"/>
<path d="M0 0 C0.33 0.66 0.66 1.32 1 2 C1.66 2 2.32 2 3 2 C2.34 3.98 1.68 5.96 1 8 C0.01 7.67 -0.98 7.34 -2 7 C-1.12 2.25 -1.12 2.25 0 0 Z " fill="#1E58A6" transform="translate(56,95)"/>
<path d="M0 0 C-0.62 0.43 -1.24 0.87 -1.88 1.31 C-4.22 3 -4.22 3 -6 6 C-6.99 5.67 -7.98 5.34 -9 5 C-6.82 0.16 -5.21 -0.14 0 0 Z " fill="#CBCBCB" transform="translate(182,246)"/>
<path d="M0 0 C1.98 0.49 1.98 0.49 4 1 C4 2.32 4 3.64 4 5 C1.53 4.01 1.53 4.01 -1 3 C-0.67 2.01 -0.34 1.02 0 0 Z " fill="#245CA8" transform="translate(204,56)"/>
<path d="M0 0 C1.32 0 2.64 0 4 0 C3.67 1.32 3.34 2.64 3 4 C1.68 3.67 0.36 3.34 -1 3 C-0.67 2.01 -0.34 1.02 0 0 Z " fill="#1D1D1D" transform="translate(159,253)"/>
<path d="M0 0 C2.47 0.5 2.47 0.5 5 1 C4.67 1.99 4.34 2.98 4 4 C2.68 3.67 1.36 3.34 0 3 C0 2.01 0 1.02 0 0 Z " fill="#1E1E1E" transform="translate(138,253)"/>
<path d="M0 0 C0 3 0 3 -2 5.19 C-2.66 5.79 -3.32 6.38 -4 7 C-4.66 6.67 -5.32 6.34 -6 6 C-2.25 1.12 -2.25 1.12 0 0 Z " fill="#A7ABAE" transform="translate(142,107)"/>
<path d="M0 0 C1.98 0 3.96 0 6 0 C6 0.99 6 1.98 6 3 C4.35 3 2.7 3 1 3 C0.67 2.01 0.34 1.02 0 0 Z " fill="#CCD9EB" transform="translate(234,68)"/>
</svg>
